<?xml version="1.0" encoding="utf-8"?>
<!-- Generator: Adobe Illustrator 19.0.0, SVG Export Plug-In . SVG Version: 6.00 Build 0)  -->
<svg version="1.1" xmlns="http://www.w3.org/2000/svg" xmlns:xlink="http://www.w3.org/1999/xlink" x="0px" y="0px"
	 viewBox="811 -6 2234.8 805" style="enable-background:new 811 -6 2234.8 805;" xml:space="preserve">
<style type="text/css">
	.st0{display:none;fill:url(#XMLID_9_);}
	.st1{display:none;fill:#FCFCFC;enable-background:new    ;}
	.st2{font-family:'ArialMT';}
	.st3{font-size:88.2028px;}
	.st4{letter-spacing:15;}
	.st5{display:none;}
	.st6{display:inline;fill:#FCFCFC;}
	.st7{display:inline;fill:#666666;}
	.st8{fill:#211F1F;}
	.st9{fill:none;stroke:#666666;stroke-width:300;stroke-miterlimit:10;}
</style>
<g id="Layer_1">
	<g id="Layer_4">
		
			<linearGradient id="XMLID_9_" gradientUnits="userSpaceOnUse" x1="1928.4" y1="1062.9994" x2="1928.4" y2="-19.0006" gradientTransform="matrix(1 0 0 1 0 -263.9994)">
			<stop  offset="0" style="stop-color:#4F8F40"/>
			<stop  offset="1" style="stop-color:#F3EA59"/>
		</linearGradient>
		<rect id="XMLID_1_" x="811" y="-283" class="st0" width="2234.8" height="1082"/>
	</g>
</g>
<g id="Layer_3_1_">
	<g id="Layer_1_1_">
		<text id="XMLID_1677_" transform="matrix(1 0 0 1 1425.4906 234.391)" class="st1 st2 st3 st4">TAPU-AA-RANGI</text>
		<g id="XMLID_2_" class="st5">
			<circle id="XMLID_70_" class="st6" cx="2101.4" cy="9.5" r="5.5"/>
			<circle id="XMLID_25_" class="st6" cx="1784.7" cy="26.8" r="3.8"/>
			<circle id="XMLID_24_" class="st6" cx="1909.9" cy="10" r="4"/>
			<circle id="XMLID_23_" class="st6" cx="2077.9" cy="-105" r="4"/>
			<circle id="XMLID_22_" class="st6" cx="2106.7" cy="-48.1" r="2.9"/>
			<circle id="XMLID_15_" class="st6" cx="2030.5" cy="-74.3" r="3.7"/>
			<circle id="XMLID_14_" class="st6" cx="1993.9" cy="65" r="2"/>
		</g>
		<g id="XMLID_3_" class="st5">
			<path id="XMLID_19_" class="st7" d="M3045.8-283V799H811V-283H3045.8 M3345.8-583h-300H811H511v300V799v300h300h2234.8h300V799
				V-283V-583L3345.8-583z"/>
		</g>
		<g id="XMLID_1726_">
			<g id="XMLID_1723_">
				<path id="XMLID_8_" class="st8" d="M1480.2,553.4c-0.1,0.1-0.2,0.2-0.1,0.3c0.1,0.2,0.3,0.1,0.4,0.1c1.2-0.5,2.5-1,3.8-1.4
					c0.3-0.1,0.7-0.2,1-0.1c0.1,0,0.2,0.1,0.4,0.1c0.4,0.1,0.8,0.2,1.2,0.3c1.1,0.3,2.1,0.6,3.1,1c0.2,0.1,0.5,0.2,0.7,0.4
					c0.5,0.5,0.6,1.3,0.8,2c-0.8-0.2-1.6,0-2.3,0.5c-0.6,0.5-1,1.3-0.8,2.1c0.1,0.5,0.5,1,0.7,1.5c0.1,0.2,0.1,0.4,0.3,0.6
					c0.1,0.2,0.3,0.4,0.6,0.3c0.1,0,0.2,0,0.3-0.1c0.5-0.1,1,0.1,1.3,0.5c0.3,0.4,0.5,0.8,0.7,1.3c0.6,1.3,1.1,2.6,1.7,3.9
					c0.2,0.4,0.4,0.9,0.6,1.3c0.4,0.6,0.9,1.2,1.4,1.7c1,1.1,2.1,2.2,3.1,3.3c0.3,0.3,0.6,0.6,0.9,0.6c0.1,0,0.3,0,0.4,0
					c0.1,0,0.3,0.1,0.3,0.3c0.3,0.1,0.6,0.4,0.9,0.6c0.3,0.2,0.6,0.3,0.9,0.3c1.1,0.3,2.2,0.6,3.3,0.9c0.4,0.1,0.8,0.2,1.2,0.3
					c0.5,0.1,1,0,1.6,0.1c1,0.1,1.9,0.3,2.9,0.2c0.3,0,0.7-0.1,1,0.1c0.3,0.2,0.3,0.5,0.4,0.8c0,0.1-0.1,0.2,0,0.2
					c0.6,0.4,0,5.2,0,5.2l1-0.1c-0.1-1.3,0.3-4.4,0.3-4.4c0.3-0.1,0.6-0.1,0.9-0.2c0.6-0.2,1.2-0.5,1.6-1c0.2-0.2,0.4-0.5,0.7-0.4
					c0.3,0,0.5,0.2,0.5,0.5c0.1,0.2,0,0.5-0.1,0.7c-0.2,0.9-0.5,1.9-0.7,2.8c-0.2,0.7-0.4,1.5-0.8,2.1l1.2,0.7
					c0.5-1.9,1.1-3.9,1.6-5.8c0.1-0.4,0.2-0.8,0.4-1.1c0.2-0.3,0.4-0.6,0.6-0.8c0.5-0.5,0.9-1.1,1.4-1.6c0.2,0.3,0.7,0.3,1,0.1
					c0.3-0.1,0.7-0.3,1-0.3c0.7-0.1,1.3,0.4,1.9,0.1c0.3-0.1,0.5-0.4,0.7-0.4c0.4-0.1,0.7,0.2,1,0.4c0.6,0.4,1.5,0.5,2.2,0.3
					c0.4-0.1,0.7-0.3,1.1-0.3c0.3,0,0.6,0,0.8,0.1c2.5,0.6,4.8,1.7,7.3,2.4c0.4,0.1,0.8,0.5,1.2,0.7c0.2,0.1,0.5,0.2,0.8,0.3
					c0.2,0.1,0.4,0.2,0.6,0.4c0.3,0.2,0.7,0.5,1,0.7c0.1,0.1,0.2,0.2,0.4,0.2c0.2,0,0.4,0,0.6-0.1c1-0.2,1.9,0.4,2.8,0.5
					c-0.5-0.7-1.2-1.3-2-1.7c-0.1,0-0.2-0.1-0.2-0.1c0-0.1,0-0.1-0.1-0.2c0-0.2-0.1-0.5-0.1-0.7c0-0.1,0-0.2-0.1-0.2
					c0-0.1-0.1-0.1-0.2-0.1c-0.7-0.3-1.6-0.5-2.2-1c-0.6-0.5-1.3-1-2.1-1.3c-1.2-0.6-2.5-0.9-3.6-1.5c-0.6-0.3-1.1-0.6-1.6-0.9
					c-0.6-0.3-1.3-0.6-2-0.9c-1.6-0.7-3.1-1.4-4.7-2.1c0.2-0.1,0.4-0.1,0.7,0c0.8,0.3,1.6,0.5,2.4,0.8c0.9,0.3,1.9,0.6,2.8,0.3
					c-0.8-0.7-1.9-0.9-2.9-1.1c-0.1,0-0.3-0.1-0.3-0.3c0.6,0,1.2,0,1.8-0.1c-0.8-1.2-2.2-1.7-3.6-2c-1-0.2-2-0.1-2.9-0.5
					c-1.5-0.6-2.9-1.3-4.4-1.9c-0.7-0.3-1.3-0.6-2-1c-0.6-0.3-1.1-0.7-1.7-1.1c-0.7-0.4-1.5-0.8-2.3-1.1c-3.3-1.4-6.7-2.4-9.8-4.1
					c-2.6-1.4-5.2-3.1-6.3-5.8c-0.2-0.4-0.3-0.8-0.5-1.2c-0.2-0.3-0.5-0.6-0.8-0.9c-1.3-1.2-3.1-1.9-4.9-2c-1.8,0-3.6,0.7-5,1.9
					c-0.4,0.3-0.7,0.7-1.1,1c-1,0.8-2.4,1-3.5,1.5C1481.8,551.4,1480.9,552.3,1480.2,553.4L1480.2,553.4z"/>
			</g>
			<g id="XMLID_1725_">
			</g>
		</g>
		<g id="XMLID_4_">
			<path id="XMLID_36_" class="st8" d="M1372.1,398.2c2.4-0.5,4.8-0.9,7.1-1.2c1.2-0.2,2.4-0.3,3.6-0.5l3.6-0.5
				c2.4-0.3,4.8-0.5,7.2-0.7c1.2-0.1,2.4-0.2,3.6-0.2l3.6-0.2c4.8-0.2,9.7-0.2,14.6,0.1c1.2,0.1,2.5,0.2,3.7,0.3
				c1.2,0.2,2.5,0.3,3.7,0.6c0.6,0.1,1.3,0.3,1.9,0.4c0.6,0.2,1.3,0.4,1.9,0.6c1.3,0.5,2.6,1,4,2.2l-3.2-0.1c1-0.7,1.9-1.4,2.8-2.1
				c1-0.7,1.9-1.3,2.9-2c1.9-1.3,3.9-2.5,5.9-3.7c1-0.6,2-1.2,3-1.8s2-1.1,3-1.7l3.1-1.6l3.1-1.5c1-0.5,2.1-0.9,3.2-1.4
				c1.1-0.5,2.1-0.9,3.2-1.3l3.3-1.2c1.1-0.3,2.2-0.7,3.3-1c1.1-0.4,2.3-0.6,3.4-0.8l1.7-0.4c0.6-0.1,1.2-0.2,1.7-0.3l1.7-0.2
				c0.6-0.1,1.1-0.2,1.7-0.2c1.2,0,2.3-0.1,3.5-0.1l-3.3,0.8c-1.1,0.2-2.2,0.7-3.3,1c-0.5,0.2-1.1,0.3-1.6,0.5l-1.6,0.6
				c-1,0.4-2.1,0.8-3.1,1.3l-3.1,1.4l-3,1.5c-1,0.5-2,1-3,1.6c-1,0.5-2,1-3,1.6l-2.9,1.7l-2.9,1.8c-1,0.6-1.9,1.2-2.9,1.8
				s-1.9,1.2-2.8,1.8c-1.9,1.2-3.8,2.5-5.6,3.8l-2.8,1.9c-0.9,0.7-1.8,1.3-2.7,2l-1.5,1.2l-1.6-1.3c-0.5-0.4-1.4-0.8-2.3-1.2
				c-0.5-0.2-1-0.3-1.5-0.5c-0.5-0.1-1.1-0.3-1.6-0.4c-1.1-0.2-2.2-0.4-3.4-0.6c-1.2-0.2-2.3-0.3-3.5-0.4c-4.7-0.5-9.4-0.7-14.2-0.9
				l-3.6-0.1l-3.6-0.1c-2.4-0.1-4.8-0.1-7.2-0.1l-7.2-0.1C1376.9,398.3,1374.5,398.3,1372.1,398.2z"/>
		</g>
		<path id="XMLID_7_" class="st9" d="M1063,202.6"/>
		<g id="XMLID_12_">
			<path id="XMLID_38_" class="st8" d="M1679,326.4c1.1-0.4,2.2-0.7,3.3-0.9c1.1-0.3,2.2-0.4,3.3-0.6c2.2-0.4,4.5-0.6,6.8-0.6
				c2.3,0,4.6,0.1,7,0.6c0.6,0.1,1.2,0.3,1.8,0.5c0.3,0.1,0.6,0.2,0.9,0.3c0.3,0.1,0.6,0.2,0.9,0.4c0.3,0.1,0.6,0.3,0.9,0.5
				c0.3,0.2,0.6,0.4,0.9,0.6c0.6,0.5,1.2,1.1,1.7,1.9l-4.6,0.8c0-0.1,0.1-0.3,0.1-0.4l0.1-0.2l0.1-0.3c0.1-0.2,0.2-0.3,0.3-0.4
				c0.2-0.3,0.3-0.4,0.5-0.6c0.3-0.3,0.6-0.6,0.9-0.8c0.6-0.5,1.2-0.8,1.8-1.1c0.6-0.3,1.2-0.6,1.8-0.7c0.6-0.2,1.2-0.4,1.7-0.6
				c1.2-0.3,2.3-0.6,3.5-0.8l1.7-0.3c0.6-0.1,1.2-0.1,1.7-0.2c1.1-0.1,2.3-0.2,3.4-0.2c1.1,0,2.3,0,3.4,0c1.1,0.1,2.3,0.1,3.4,0.2
				c1.1,0.1,2.3,0.2,3.4,0.4c-1.1,0.4-2.2,0.7-3.3,0.9l-3.3,0.8c-1.1,0.3-2.2,0.5-3.2,0.8l-1.6,0.4l-1.6,0.4
				c-1.1,0.3-2.1,0.6-3.1,0.9l-1.5,0.5c-0.5,0.1-1,0.3-1.5,0.5s-1,0.4-1.4,0.6c-0.5,0.2-0.9,0.4-1.3,0.6c-0.4,0.2-0.8,0.4-1,0.7
				c-0.1,0.1-0.2,0.2-0.3,0.3c0,0-0.1,0.1,0,0c0,0,0,0,0-0.1c0,0,0-0.1,0.1-0.1V331c0-0.1,0.1-0.2,0.1-0.3l-4.6,0.8
				c-0.1-0.1-0.2-0.3-0.5-0.5c-0.1-0.1-0.3-0.2-0.4-0.3c-0.1-0.1-0.3-0.2-0.5-0.3s-0.4-0.2-0.6-0.3c-0.2-0.1-0.4-0.2-0.6-0.3
				c-0.4-0.2-0.9-0.3-1.4-0.5c-1.9-0.6-4-0.9-6.1-1.3c-2.1-0.3-4.3-0.6-6.5-0.9l-3.3-0.4C1681.2,326.7,1680.1,326.6,1679,326.4z"/>
		</g>
	</g>
	<g id="Layer_2">
		<path id="XMLID_6_" class="st8" d="M2201.7,400.5c0,0,0.6-1-0.6-2.6c0,0-1-1.9-1-2.5c0,0-1-3.4-6.2-1.2c0,0-1.8,1.2-2.2,2.8
			c0,0-0.8,3.5-9.2,7.2c0,0-1.2,0.1-4.2,1.1c0,0-3.3-0.3-4.7,1.8c0,0-2.7,4.8-2.9,8.8c0,0-0.2,1.2,0,2.7c0,0,0.4,1.9,0.5,2.5
			c0,0,0.8,3.4,3.7,1.2c0,0-0.9,4.3,4.6,12.4l0.1,1l17.1,0.7c0,0,1-5.2,1-6.1c0,0,1.1-0.2,2.8-4.5c0,0,0.7-3.6,0.7-4.3
			c0,0-1-9-1.3-10.3c0,0-0.8-2.1-2.7-3l-0.3-0.2c0,0,0.6-5.3,3.2-8.4l0.1-0.1c0,0,0.4,0.2,1.3,0.9
			C2201.4,400.5,2201.6,400.6,2201.7,400.5z"/>
		<g id="XMLID_9_">
			<path id="XMLID_34_" class="st8" d="M2186,283.6c2.1-0.1,4.1-0.2,6.2-0.2c1,0,2.1,0,3.1,0s2.1,0,3.1,0.1c2.1,0.1,4.1,0.2,6.2,0.4
				s4.1,0.4,6.2,0.7s4.1,0.6,6.2,1c1,0.2,2.1,0.4,3.1,0.7c1,0.2,2.1,0.5,3.1,0.8s2.1,0.6,3.1,1s2,0.8,3.1,1.2c1,0.5,2.1,1,3.1,1.8
				s2.1,1.7,2.8,3.3l-3.1-1.4c1.7-0.6,3.3-1.1,4.9-1.5c1.6-0.5,3.3-0.9,4.9-1.3c0.8-0.2,1.7-0.4,2.5-0.6s1.7-0.4,2.5-0.5
				c1.7-0.3,3.3-0.7,5-0.9l2.5-0.4c0.8-0.1,1.7-0.2,2.5-0.3c1.7-0.2,3.4-0.3,5.1-0.4l2.6-0.1c0.8,0,1.7,0,2.6,0c0.9,0,1.7,0,2.6,0.1
				s1.7,0.1,2.5,0.2c-1.7,0.3-3.3,0.6-5,0.9c-0.8,0.2-1.6,0.3-2.5,0.5l-2.5,0.5c-0.8,0.2-1.6,0.4-2.4,0.6c-0.8,0.2-1.6,0.4-2.4,0.6
				s-1.6,0.4-2.4,0.6l-2.4,0.7c-1.6,0.5-3.2,0.9-4.8,1.4s-3.2,1-4.8,1.5c-1.6,0.5-3.2,1-4.7,1.5c-1.6,0.5-3.2,1.1-4.7,1.6l-2.2,0.8
				l-1-2.1c-0.1-0.3-0.6-0.8-1.2-1.2c-0.7-0.4-1.4-0.9-2.3-1.3c-0.8-0.4-1.7-0.8-2.6-1.1c-0.9-0.3-1.8-0.7-2.8-1
				c-1.9-0.6-3.8-1.1-5.8-1.6l-2.9-0.7l-3-0.7l-6-1.3c-2-0.4-4-0.9-6-1.2l-6-1.2C2190.1,284.4,2188,284,2186,283.6z"/>
		</g>
	</g>
</g>
<g id="Layer_2_1_">
</g>
</svg>
