<?xml version="1.0" encoding="utf-8"?>
<!-- Generator: Adobe Illustrator 19.0.0, SVG Export Plug-In . SVG Version: 6.00 Build 0)  -->
<svg version="1.1" xmlns="http://www.w3.org/2000/svg" xmlns:xlink="http://www.w3.org/1999/xlink" x="0px" y="0px"
	 viewBox="811 -6 2234.8 805" style="enable-background:new 811 -6 2234.8 805;" xml:space="preserve">
<style type="text/css">
	.st0{display:none;fill:url(#XMLID_5_);}
	.st1{fill:#211F1F;}
	.st2{fill:none;}
	.st3{fill:#231F20;stroke:#231F20;stroke-miterlimit:10;}
	.st4{fill:#4F4C1F;}
</style>
<g id="Layer_1">
	<g id="Layer_4">
		
			<linearGradient id="XMLID_5_" gradientUnits="userSpaceOnUse" x1="1928.4" y1="1062.9994" x2="1928.4" y2="-19.0006" gradientTransform="matrix(1 0 0 1 0 -263.9994)">
			<stop  offset="0" style="stop-color:#4F8F40"/>
			<stop  offset="1" style="stop-color:#F3EA59"/>
		</linearGradient>
		<rect id="XMLID_1_" x="811" y="-283" class="st0" width="2234.8" height="1082"/>
	</g>
	<g id="Layer_3">
		<g id="XMLID_30_">
			<path id="XMLID_10_" class="st1" d="M1870.2,1110.8c-0.1-10.1-0.4-36.2-0.4-36.2l0.5-37.4c0,0-28.7-131.2-30.7-177.6
				s-9.4-61.8-13.4-113.6l-21.8-17.2c0,0-41.7-18-107.6-63.4c-66-45.5-89.7-45.6-89.7-45.6s-168.1-53.7-185.8-49.5
				c0,0-2.1-6,43.6,1.7c45.8,7.6,141.1,36.3,141.1,36.3c55.5,19.7,105.3,49.6,105.3,49.6s-1.2,3.5,35.3,18.5
				c35.8,14.6,36.9,6.8,36.9,6.8l9.7,3.4l18.9,20.3c22.4,17.4,35.2-1.5,35.2-1.5s5.4-39.8-10.9-94.4c-16.3-54.6,15.1,5.4-106.9-72.6
				c0,0-60.7-24.7-68.8-70.7c0,0,5.4,1-45.8-42.5c-59.6-50.6-62.2-74-62.2-74s12.3-30.3-30.8-64.5c0,0,33.1,15.9,38.5,38.5
				s54.6-53.8,69.6-48.5c0,0-41.9,37.1-58.6,62.4c-15.7,23.9,2.6,40.2,90.5,111.7c0,0,9.9,1.6,42.1,58.5c0,0,86.7,48.4,104,47.5
				s-11.3-49.7-11.3-49.7s-13.1-63.7,17.7-113.4c0,0,12-11.1-29-46.5c0,0-9.3-27.7-4.2-33.8l12.5,33.2c0,0,19.7,6.5,27.1,28.8
				c0,0,9.3,22.7,3.9,31c0,0-19.3,25-15.7,58.5c3,28.4,8.7,40.1,24.2,73.2s35.7,43.4,35.7,43.4c8.3,1.8,16.7,50,20.3,74.2
				c0.9,6,8.3,9.1,13.4,5.7l20.6-6.7l8.1-8.5l11.5-3.8l9.5,8.1c0,0,13.6,0.1,29.4-9.6c10.2-6.3,16.1-9.7,22.4-14.2
				c4.4-3.1,8.5-6.6,11.3-8.9c5.2-4.2,5.8-4.7,8.9-7.4c0,0,49.6-12.9,73.6-20.4l2.6-0.7c37-11.7,44.2-14.4,44.2-14.4l35.4-11
				c13.7,0.9,22.6,1,22.6,1l25,6.1l-29.3-2.5L2175,572c-30.1,5.8-70.4,25.8-70.4,25.8l-10.3,5l-67.7,28.1
				c-4.6,3.7-9.2,7.4-13.8,11.1l-4.5,6.1l-9.2,4.3c-10,8.3-51.4,18.9-51.4,18.9l-45.6,17.3c-4,3.9-6.2,9.2-6,14.7
				c1.2,41.9,7.9,73.5,7.9,73.5c-1.2,77.5,0.3,116.4,9.8,118.2c9.6,1.8,17.7,29.3,17.7,29.3l-0.6-3.6c0.8,5.3-0.5,10.5-3.5,14.7
				c-3.3,4.6-4.7,10.3-3.8,16c12.5,103.6,56.7-5.8,56.7-5.8l27.4-68.2c0,0,5-53.7-5.3-99.9c0,0,13.7-63.6,19.9-99.2
				c1.5-8.6,5.2-25.7,6.4-47.2c4-67.4,4-175.2,2-177.7c-2.7-3.3,13.1-22.5-82-135.4c0,0-71.1-51.3-117.5-60.7l-17.4-5.8l-8.8-4.4
				l-14.2-5.4c-20.4-6.9-118.6-19.3-118.6-19.3s-42.1-4.5-56.9-1.5c-11.2,2.3-42.2,6.3-42.2,6.3s11.2-10.7,27.2-13
				c12.4-1.8,16.6-1.3,16.6-1.3l6.7,1.3l9.1,1C1664,207.4,1797,232,1797,232s125.2,51.3,157,73.2S1884,178,1884,178
				c-23.7-45.1-23-45.2-45.8-110.3l-1.9-2.9L1820.4-6l27.1,70.8c0,0,12.1-5.3,0,0s63.2,127.4,63.2,127.4s68.7,111.8,66.5,125.2
				c-2.2,13.4,69.9,108.7,69.9,108.7s10.6,2.6,12.9,6.9c1.7,3.2,12.1-3.1,17.7-6.7c1.8-1.2,4.1-1.3,6.1-0.2
				c15.7,8.3,79,2.5,81.9,7.9c3,5.8,76.8-18.7,76.8-18.7l90.7-32.7l-15.7,14.8l-40.1,15.5c0,0-64.7,24.9-80.5,33.5
				c-15.8,8.6-93.9-1.5-93.9-1.5l-34.3,13.8c0,0-12.7,35.6-7.8,115.3c0.5,7.6,0.8,15.3,1,23.1c0.1,3.6,0.1,7.1,0.1,7.1
				s0,2.8,0.1,5.6c0,4.7-2.8,58.9-7.6,133.1l-3.8,17.8c0,0-2.8-1.6,1,43.9c3.8,44.7,55.5-11,55.5-11l11.9-13.5l22.4-3.9
				c0,0,16.7,10.7,32.6,4.5s191.5,35,191.5,35l-8.2,23.1c0,0-130.4-22.7-158.6-23.3c-28.1-0.6-66.3,26.1-66.3,26.1
				c-0.2,49.5-41.6,148.2-41.6,148.2L1870.2,1110.8z"/>
		</g>
	</g>
</g>
<g id="Layer_3_1_">
</g>
<g id="Layer_2_1_">
	<g id="moths">
		<path id="XMLID_49_" class="st1" d="M2010.9,590.3c0-1.9-0.6-2.8-1.7-2.3c-0.1,0-0.5,0.2-0.8,0.4c-1.2,0.5-2.7,1-3.4,1
			c-0.6,0-2.5,0.5-2.9,0.8c-0.2,0.2-0.4,0.5-0.5,0.9l-0.2,0.6l-0.4-0.5c-0.5-0.7-1.1-1.1-1.8-1c-1.2,0.2-1.8,0.3-2.1,0.5
			c-0.2,0.1-0.4,0.2-0.6,0.2c-0.2,0-0.5,0.1-0.7,0.2c-0.2,0.1-0.5,0.2-0.8,0.2c-0.4,0-0.5,0.1-0.7,0.3c-0.1,0.2-0.4,0.4-0.7,0.5
			c-0.4,0.1-0.5,0.2-0.6,0.5c-0.1,0.2-0.2,0.5-0.4,0.7c-0.3,0.4-0.4,0.6-0.2,1.1c0.1,0.2,0,0.3-0.1,0.5c-0.2,0.2-0.2,0.3,0.1,0.9
			c0.2,0.4,0.4,0.8,0.5,0.9c0.1,0.1,0.3,0.3,0.4,0.5c0.1,0.2,0.4,0.5,0.7,0.6c0.3,0.2,1,0.5,1.5,0.9c0.5,0.3,1.3,0.8,1.8,0.9
			l0.8,0.4l-0.5,0c-1,0.1-0.5,0.5,0.9,0.7c0.7,0.1,1.2,0.3,0.9,0.5c-0.1,0.1-0.1,0.1-0.1-0.1s0.1-0.1-0.1-0.1
			c-0.1,0.1-0.3,0.1-0.5,0.2c-0.3,0.1-0.3,0.1,0.1,0.1c0.2,0,0.4,0,0.4,0c0,0-0.2,0.1-0.4,0.2c-0.2,0.1-0.3,0.2-0.2,0.2
			c0.1,0,0.5-0.2,0.8-0.4c0.4-0.3,0.6-0.4,0.9-0.3c0.2,0.1,0.5,0.1,0.8,0.1c0.3,0,0.5,0.1,0.9,0.5c0.4,0.5,0.4,0.5,0.3,0.2
			c-0.2-0.5-0.2-0.5,0.2-0.5c0.2,0,0.5,0.1,0.7,0.3c0.5,0.4,0.5,0.2,0.1-0.2c-0.2-0.2-0.5-0.3-0.8-0.4c-0.4,0-0.4,0-0.2-0.1
			c0.1-0.1,0.4-0.1,0.6,0c0.2,0.1,0.4,0,0.4-0.2c0.1-0.3,0-0.4-0.5-0.4c-0.6,0-0.4-0.1,1.1-0.8c3.1-1.4,5.3-3,6.4-4.8
			c0.7-1.1,0.9-1.8,0.8-2.7"/>
		<path id="XMLID_48_" class="st1" d="M1940.6,693.7c-0.3,0.2-0.6,0.3-0.6,0.3c-0.3,0-0.4,0.1-0.8,0.8c-0.5,0.9-0.9,3-0.9,4.1
			c0,0.5-0.1,0.8-0.1,0.8c-0.1,0-0.2-0.4-0.4-0.8c-0.6-1.9-2.2-4.6-2.8-4.6c-0.1,0-0.5-0.1-0.7-0.2c-0.4-0.2-0.6-0.2-1,0
			c-0.3,0.1-0.8,0.3-1.1,0.4c-0.6,0.2-1.4,0.9-1.7,1.5c-0.2,0.5,0,1.1,0.5,1.8l0.3,0.4l-0.3-0.1c-0.9-0.3-1.3,0-2.1,1.7
			c-0.3,0.7-0.9,1.5-1.2,1.8c-0.3,0.3-0.6,0.7-0.7,1c-0.1,0.4-0.1,0.4,0.1,0.8c0.3,0.4,1.2,1,2.5,1.5c0.9,0.4,1.1,0.4,2.7,0.4
			c1.5,0,1.8,0,3.5-0.5c1-0.3,1.9-0.5,2-0.6c0.3-0.2,0.3-0.1,0.1,0.4c-0.1,0.2-0.1,0.3,0,0.2c0.2-0.4,0.7-0.8,0.6-0.6
			c-0.1,0.1,0,0.2,0,0.3s0.1,0.4,0.1,0.6c0,0.6,0.2,0.7,0.2,0.1c0-0.6,0.2-0.7,0.4-0.1l0.2,0.5l0-0.5c0-0.6,0.1-0.7,0.4-0.5
			c0.1,0.1,0.1,0-0.1-0.2c-0.2-0.2-0.3-0.5-0.3-0.5c0,0,0.5,0,1,0.1c0.5,0.1,2,0.2,3.2,0.3c2,0.1,2.5,0.1,3.8-0.1
			c1.8-0.3,2.5-0.5,3.6-1.1c2.2-1.3,2.4-1.7,1.4-2.5c-0.3-0.3-0.6-0.5-0.7-0.5c-0.3,0-1.4-0.9-2.5-1.9c-1.4-1.4-2.1-1.6-3-1.2
			l-0.4,0.2l0.3-0.4c0.4-0.6,0.3-1.4-0.1-1.9c-0.2-0.2-0.5-0.5-0.7-0.6c-0.2,0-0.5-0.2-0.6-0.3c-0.1-0.1-0.8-0.2-1.5-0.3
			c-0.7-0.1-1.4-0.2-1.6-0.2S1940.9,693.5,1940.6,693.7z"/>
		<path id="XMLID_47_" class="st1" d="M2120,666.3c-1.3,0.7-3.4,2.3-5.3,4.3c-2.1,2.1-2.1,2.1-2.4,1.9c-0.5-0.4-3.5-2-4.6-2.5
			c-0.5-0.2-1.2-0.5-1.5-0.5c-0.5-0.1-0.5,0-0.4,0.2c0.1,0.2,0.1,0.2-0.2,0c-0.7-0.5-2-1.1-3.6-1.6c-1-0.3-2.3-0.9-3-1.2
			c-0.7-0.3-1.5-0.6-1.7-0.6c-0.4-0.1-0.4-0.1,0.3,0.6c1,0.9,2,1.7,4,2.9c1.8,1.1,6.6,3.8,8.2,4.7c1,0.5,1.2,0.7,0.6,0.7
			c-0.4,0-0.3,0.4,0.1,0.5c0.4,0.1,0.4,0.2,0.1,0.4c-0.1,0-0.2,0-0.1-0.1c0-0.1,0-0.1,0-0.1c-0.1,0-0.2,0.2-0.3,0.5l-0.2,0.5
			l0.3-0.3c0.4-0.3,0.6-0.4,0.4-0.1c-0.1,0.1,0,0.1,0.1-0.1c0.1-0.1,0.3-0.2,0.4-0.2s0.2,0.1,0.2,0.2c0,0.2,0,0.2,0.1,0
			c0.1-0.2,0.1-0.2,0.1,0.1c0,0.1,0,0.2,0.1,0.1s0-0.3-0.1-0.4c-0.1-0.2-0.1-0.2,0-0.2c0.1,0,0.3,0,0.5-0.1c0.3-0.2,0.3-0.1,0.6,0.2
			c0.2,0.2,0.4,0.4,0.5,0.4c0.1,0,0.1-0.1-0.2-0.3c-0.5-0.4-0.5-0.5-0.1-0.6c0.3-0.1,0.4-0.4,0.1-0.5c-0.1,0,0.4-0.2,1.2-0.4
			c1.9-0.5,3.1-1,4-1.8c1.6-1.3,3-3.4,2.3-3.4"/>
		<path id="XMLID_46_" class="st1" d="M1984.8,611.3c-0.9,0.6-2.2,2-2.7,2.9c-0.3,0.5-0.5,0.9-0.5,1c0,0-0.4-0.1-0.9-0.2
			c-1-0.3-1.5-0.3-1.8-0.1c-0.2,0.2-0.2,0.2-0.5-0.1c-0.4-0.4-2-1.1-3.7-1.6c-0.9-0.3-2.2-0.7-2.9-0.9c-2.7-1-3-1.1-3.3-1.1
			c-0.2,0-0.3,0.1-0.3,0.1c0,0.2,1.2,1.6,1.8,2.1c0.8,0.7,3.4,2.4,5.1,3.4c0.9,0.5,1.9,1.1,2.4,1.4c0.5,0.3,1.5,0.8,2.3,1.2
			c1.2,0.6,1.3,0.7,0.9,0.7c-0.2,0-0.5,0-0.6,0c-0.1,0,0,0.1,0.1,0.2c0.3,0.3,0.4,0.4,0.6,0.3c0.1,0,0.2,0,0.2,0.1
			c0.1,0.1-0.1,0.1-0.3,0.1s-0.5,0.1-0.6,0.3c-0.2,0.3-0.2,0.3,0,0.1c0.1-0.1,0.3-0.2,0.4-0.2c0.1,0,0,0.1-0.1,0.2
			c-0.1,0.2-0.1,0.2,0.1,0c0.2-0.1,0.3-0.2,0.3-0.1s-0.1,0.2-0.3,0.3c-0.2,0.1-0.2,0.2-0.2,0.2c0.1,0,0.4-0.2,0.6-0.4
			c0.5-0.3,0.6-0.4,0.6-0.2c0.1,0.1,0.1,0.1,0.1,0.1c0-0.3,0.6-0.1,0.8,0.2c0.1,0.2,0.2,0.3,0.3,0.3c0.1,0,0-0.1-0.1-0.3
			c-0.3-0.4-0.3-0.5,0.1-0.5c0.2,0,0.5,0.2,0.8,0.4c0.2,0.2,0.5,0.4,0.7,0.4c0.1,0,0-0.1-0.3-0.3c-0.3-0.1-0.5-0.3-0.5-0.4
			c0-0.1,0.3-0.2,0.6-0.2c0.6-0.1,0.8-0.2,0.6-0.5c-0.1-0.1,0.1-0.2,1-0.3c1.3-0.1,3.2-0.5,4.2-0.9c0.6-0.2,0.8-0.4,1.2-0.9
			c0.5-0.6,0.5-0.7,0.5-1.6c0-0.5,0-1-0.1-1c-0.1,0-0.2-0.2-0.2-0.4c-0.1-0.2-0.3-0.4-0.6-0.5c-0.4-0.2-0.6-0.2-1.1-0.1
			c-0.4,0.1-0.8,0.2-0.9,0.2c-0.2,0.1-0.2,0.1,0.1-0.3c0.3-0.4,0.3-0.4,0.1-0.7c-0.2-0.3-0.4-0.5-1.4-1.1c-0.4-0.2-0.7-0.6-0.9-0.8
			c-0.3-0.5-0.8-0.8-1.1-0.8C1985.3,611,1985.1,611.1,1984.8,611.3z"/>
		<path id="XMLID_45_" class="st1" d="M2046.7,632.6c-0.8,0.5-2.1,2-2.5,2.8c-0.9,1.8-1.5,3.7-2.1,6.5c-0.3,1.6-0.6,3.1-0.6,3.5
			c-0.2,1.9-0.2,1.8-0.6,1.8c-0.2,0.1-1.5-0.3-3.7-1c-4.7-1.5-6.7-1.9-8.1-1.6c-0.4,0.1-0.8,0.2-1,0.3c-0.2,0.2-0.2,0.2,0.2,0.5
			c0.2,0.2,1.2,0.8,2.2,1.3c1,0.5,2.5,1.4,3.3,1.9c2,1.3,3.3,1.9,3.9,1.9c0.4,0,0.5,0.1,0.6,0.4c0.1,0.5,0.4,0.8,1.3,1.4
			c1.7,1.1,5.3,2.5,6.7,2.5l0.8,0l-0.1-0.4c-0.1-0.5-0.8-1.7-1.7-2.8c-0.4-0.5-0.6-0.8-0.6-0.9c0,0,0.5,0.2,0.9,0.5
			c1.3,0.7,2.9,1.3,3.9,1.3h0.8l0.3-0.6c0.2-0.3,0.4-0.7,0.6-0.9c0.2-0.2,0.3-0.5,0.4-1.1c0-0.4,0.1-1.3,0.2-1.9
			c0.2-1.3,0.2-1.3,0-2.5c-0.2-1.3-0.5-2.1-1.2-2.4c-0.3-0.2-0.7-0.2-0.9-0.2c-0.2,0-0.4,0-0.4,0c0,0,0.2-0.3,0.3-0.5
			c0.5-0.8,0.4-1.9-0.4-4.4c-0.4-1.1-0.7-2.4-0.8-2.9c-0.3-2-0.6-2.7-1-2.9C2047.4,632.3,2047,632.4,2046.7,632.6z"/>
		<path id="XMLID_44_" class="st1" d="M1918.2,568.6c-0.2,0.2-0.3,0.7-0.4,1.6c-0.1,0.7-0.2,1.5-0.3,1.7c-0.1,0.2-0.2,0.8-0.4,1.2
			c-0.4,1.2-0.5,2.3-0.2,2.9c0.1,0.2,0.3,0.5,0.4,0.7c0.2,0.2,0.2,0.2-0.2,0.1c-0.7-0.2-1.2,0-1.5,0.7c-0.4,1-0.3,2.7,0.2,4.3
			c0.1,0.4,0.2,0.8,0.2,1s0.1,0.4,0.2,0.5c0.1,0.1,0.4,0.5,0.6,0.8c0.4,0.6,0.5,0.7,1.1,0.8c0.8,0.2,2.4,0,3.3-0.3
			c0.3-0.1,0.7-0.2,0.7-0.1c0,0-0.2,0.4-0.5,0.7c-0.6,0.6-0.8,1.2-0.4,1c0.1,0,0.6-0.2,1-0.3c0.5-0.1,1.1-0.4,1.3-0.5
			c0.3-0.1,0.4-0.2,0.5-0.1c0,0.1,0.1,0.1,0.3-0.1c0.1-0.1,0.7-0.4,1.2-0.7c1.3-0.6,3.9-1.9,4.3-2.2c0.2-0.1,0.3-0.3,0.3-0.4
			c0-0.1,0.2-0.2,0.5-0.3c0.3-0.1,1.5-0.6,2.6-1.2c1.1-0.6,3.1-1.6,4.3-2.3c3.1-1.6,3.2-1.7,1-1.1c-1.7,0.5-4.5,1.5-8.9,3.4
			c-2.1,0.9-3.9,1.6-4.1,1.6c-0.3,0-0.3,0-0.5-0.9c-0.3-1.5-1.5-5.8-2.2-7.2c-0.9-2.2-1.4-3-2.8-4.4c-0.7-0.7-1.3-1.3-1.4-1.3
			C1918.4,568.4,1918.3,568.5,1918.2,568.6z"/>
		<path id="XMLID_43_" class="st1" d="M2004.6,645.2c-2.4,1.3-5.2,3.6-9,7.6c-1.4,1.5-2.6,2.7-2.7,2.7c-0.1,0-0.5-0.2-0.8-0.5
			c-1.2-1.1-5.3-4.7-7.2-6.1c-1.8-1.4-4.5-3.2-4.9-3.2c-0.3,0,0,0.4,1.1,1.5c0.5,0.6,1.4,1.6,1.9,2.3c1.2,1.5,1.8,2.1,2.5,2.6
			c0.4,0.3,0.4,0.4,0.3,0.5c-0.4,0.2,0.5,1.4,2.9,3.5c2.7,2.4,3.5,2.9,4.2,2.2c0.2-0.1,0.3-0.3,0.4-0.3c0.1,0,0.1-0.1,0.2-0.2
			c0-0.1,0.2,0,0.3,0.2c0.3,0.3,0.7,0.4,1.6,0.4c0.5,0,0.7-0.1,1.5-0.7c1.5-1.1,3.6-3.5,4.2-4.7c0.3-0.6,0.2-0.8-0.2-0.8
			c-0.3,0-0.3,0,0.2-0.4c0.6-0.4,1.4-1.5,2.1-2.9"/>
		<path id="XMLID_81_" class="st1" d="M1989.2,505.4c-0.2,0.1-1.1,1.4-1.3,2c-0.4,0.9-1.4,2.6-2.5,3.9c-0.5,0.7-1.4,2.4-1.4,2.8
			c0,0.2,0.1,0.5,0.2,0.6c0.3,0.3,0.2,0.4-0.1,0.4c-0.1,0-0.5,0-0.9,0c-0.5,0.1-0.7,0.2-1.3,0.8c-0.4,0.4-0.8,1-0.9,1.3
			c-0.1,0.3-0.3,0.7-0.4,0.8c-0.1,0.1-0.2,0.8-0.4,1.6c-0.1,0.8-0.3,1.6-0.3,1.9c-0.1,0.4-0.1,0.6,0.1,1.1c0.2,0.5,0.3,0.7,0.4,1.1
			c0,0,0.4,0.1,0.8,0.2l0.8,0.1l-0.3,0.3c-0.2,0.2-0.3,0.4-0.3,0.6c0,0.4,0.3,0.3,3-1.1c1.6-0.8,2.4-1.1,2.4-1
			c0.1,0.2,1.3-0.2,2.4-1c0.6-0.4,1.1-0.7,1.1-0.7c0.2,0,0,0.3-0.4,0.5c-0.3,0.2-0.5,0.5-0.8,1.1c-0.2,0.4-0.2,0.7-0.1,0.6
			c0.1-0.1,0.3-0.5,0.4-0.8c0.2-0.4,0.3-0.6,0.6-0.8c0.2-0.1,0.4-0.3,0.5-0.4c0.1-0.3,0.2-0.3,1.1,0.1c0.7,0.3,0.7,0.2-0.1-0.1
			c-0.4-0.2-0.6-0.3-0.5-0.3c0.1,0,0.3-0.1,0.5-0.3s0.5-0.3,0.7-0.3c0.4,0,0.4,0-0.1-0.1c-0.2-0.1-0.4-0.1-0.2-0.1
			c0.2,0,0.2,0,0.1-0.2c-0.5-0.5-0.5-0.5-0.1-0.9c0.7-0.7,3-3.3,3.4-4c0.5-0.8,0.6-1.2,0.1-1.4c-0.4-0.2-0.8,0-2.2,1.2
			c-1.7,1.4-1.7,1.4-1.6,1.1c0.1-0.1,0.2-1.1,0.3-2.1c0.2-1.6,0.2-2.2,0.1-3.5c-0.2-1.9-0.4-2.6-1-3.5
			C1990.3,505.4,1989.9,505.1,1989.2,505.4z M1991.7,520.3c0,0.1-0.2,0.2-0.4,0.3c-0.3,0.2-0.3,0.2,0-0.1
			C1991.6,520.2,1991.9,520.1,1991.7,520.3z"/>
		<path id="XMLID_78_" class="st1" d="M2103.6,730.3c-0.3,0.2-0.8,0.6-1.2,0.8c-0.6,0.5-1.7,1.2-2.7,1.7c-0.9,0.4-2.1,1.6-2.2,2.2
			l-0.1,0.5l-0.2-0.4c-0.2-0.5-0.5-0.6-1-0.5c-0.3,0.1-0.4,0-0.9-1.1c-1.1-2.3-1.6-2.5-2.3-1.1c-0.1,0.3-0.6,0.9-1.1,1.3
			c-0.8,0.8-0.8,0.9-0.8,1.4c0,0.3,0.1,0.6,0.1,0.8c0.1,0.2,0,0.1-0.4-0.2c-0.5-0.4-0.6-0.4-0.9-0.3c-0.6,0.3-0.8,1-0.8,2.5
			c0,2.2,0.5,3.1,2.3,4.3c0.9,0.6,2.2,1.3,2.5,1.3c0.1,0,0.1,0,0,0.2c-0.1,0.2-0.1,0.2,0.1,0.5c0.2,0.1,0.4,0.2,0.5,0.2
			c0.2,0,0.1,0.1-0.1,0.3c-0.2,0.2-0.4,0.3-0.5,0.3c-0.1,0-0.2,0.1-0.2,0.1c0,0.2,0.1,0.2,0.6-0.2c0.5-0.4,0.6-0.4,1,0
			c0.2,0.2,0.3,0.2,0.3,0.1c0.1-0.3,0.3-0.1,0.2,0.2c-0.1,0.3-0.1,0.3,0.1,0.1c0.2-0.3,0.4-0.3,1,0.2c0.2,0.2,0.4,0.3,0.5,0.3
			c0.1,0,0.1,0,0-0.1c-0.1-0.1-0.2-0.1-0.2-0.2c0.1-0.4,0-0.5-0.3-0.5c-0.3,0-0.3,0-0.1-0.1c0.3-0.1,0.6-0.3,0.6-0.4
			c0-0.1-0.2-0.2-0.4-0.2l-0.4-0.1l0.5-0.6c0.3-0.3,0.9-1,1.2-1.5c0.4-0.5,1.1-1.5,1.6-2.2c2.5-3.4,3.8-6.1,4.4-9
			c0.1-0.4,0.1-0.7,0-0.8C2104.3,729.9,2104.3,729.9,2103.6,730.3z M2097.3,745.4c0.1,0.2,0.1,0.2-0.1,0.1c-0.2-0.2-0.2-0.3-0.1-0.3
			C2097.2,745.2,2097.3,745.3,2097.3,745.4z"/>
		<path id="XMLID_37_" class="st1" d="M2096.5,537.2c-0.3,0.2-0.5,0.5-0.8,1c-0.2,0.4-0.4,0.8-0.4,1s-0.1,0.2-0.3,0.2
			c-0.2,0-0.4,0.1-0.5,0.3c-0.1,0.2-0.3,0.4-1,0.5c-0.5,0.1-1.3,0.4-1.8,0.5c-0.5,0.2-1.6,0.6-2.6,0.9c-2.8,0.9-5.2,2.3-6.3,3.7
			c-1.9,2.4-1.7,2.9,1,3.1c0.6,0,1.6,0.2,2.3,0.4c2.5,0.7,2.8,0.7,3.6,0.7c0.7,0,0.9-0.1,1.2-0.4l0.4-0.4l0.1,0.5
			c0.1,1.1,0.9,1.7,2.6,1.8c0.8,0.1,1.2,0,2.1-0.2c0.6-0.2,1.4-0.4,1.8-0.5c0.6-0.1,0.9-0.3,1.5-0.9c0.8-0.7,0.8-0.8,0.8-1.3
			c0-0.6-0.8-2.9-1.2-3.5c-0.1-0.2-0.3-0.5-0.3-0.6c-0.1-0.2-0.2-0.4-0.3-0.4c-0.1-0.1-0.2-0.3-0.2-0.4c0-0.2,0.1-0.2,0.6,0.2
			c1.3,1.1,3.1,2.5,3.8,3c0.6,0.4,0.9,0.5,1.2,0.5c0.5,0,0.5,0,0.6-0.6c0.1-1-0.5-2.1-1.6-3c-0.4-0.3-0.7-0.6-0.6-0.6
			c0.1,0,0.2-0.1,0.2-0.1c0-0.2-0.4-1-1-1.8c-0.3-0.4-0.7-1.1-0.9-1.6c-0.5-1.1-0.9-1.5-1.9-1.9C2097.8,537,2097,537,2096.5,537.2z"
			/>
		<path id="XMLID_35_" class="st1" d="M1958.4,569.1c-0.2,0.3-0.1,1.9,0.1,2.3c0.2,0.4,0.6,2.5,0.7,3.6c0.1,1.4,0.4,3.3,0.6,3.8
			s0.7,0.9,1.1,1c0.3,0.1,0.3,0.1-0.2,0.4c-0.3,0.2-0.6,0.5-0.8,0.8c-0.3,0.4-0.3,0.6-0.2,1.4c0,0.5,0.2,1.1,0.3,1.3
			c0.1,0.2,0.2,0.6,0.3,0.8c0.1,0.4,0.6,1.2,1.5,2.5c0.3,0.4,0.5,0.8,0.6,1c0.1,0.2,0.2,0.4,0.4,0.4c0.2,0,0.6,0.2,0.9,0.5
			c0.3,0.2,0.7,0.4,0.8,0.4c0.7,0,2.8-1.9,3.8-3.5c0.8-1.3,0.9-1.2,0.6,0.6c-0.2,1.3-0.2,2.8,0,3.8c0.2,1,0.3,1.1,1,1.2
			c0.3,0.1,0.7,0.2,1,0.3c0.4,0.2,0.5,0.2,0.8,0c0.2-0.1,0.8-0.2,1.3-0.3c1.4-0.3,2.4-0.5,2.6-0.7c0.1-0.1,0.5-0.3,0.8-0.5
			s0.9-0.6,1.2-0.9c0.5-0.5,0.6-0.6,0.6-1.3c0-0.4-0.1-0.9-0.1-1c-0.1-0.3-0.1-0.3,0.1-0.2c0.4,0.2,1.3,0.2,1.9-0.1
			c0.6-0.3,1.3-0.8,2.2-1.7c1.5-1.3,2.6-2.2,3.4-2.5c0.5-0.2,1.9-1.5,1.9-1.8c0-0.6-2.5-2-4.1-2.3c-1.6-0.2-3.6-0.2-5.6,0.2
			c-3.7,0.6-4.7,0.8-5.3,1c-0.8,0.3-0.9,0.2-0.8-0.1c0.1-0.3,0-0.3-0.2-0.2c-0.2,0.1-0.3,0-0.2-0.2c0.1-0.3,0.1-0.3-0.2,0
			c-0.2,0.2-0.3,0.3-0.4,0.3c0,0-0.3-0.4-0.5-0.8c-0.5-0.8-0.9-1.4-3.2-4.5c-1.1-1.5-2.9-3.3-4.1-4c-0.8-0.5-2.4-1.1-3.4-1.2
			C1958.6,568.8,1958.5,568.8,1958.4,569.1z"/>
		<path id="XMLID_33_" class="st1" d="M2022.4,676.5c-0.5-1-0.8-1.2-2.9-1.9c-1.8-0.6-2.9-0.7-5.3-0.5c-1.5,0.1-2.3,0.2-2.4,0.4
			c0,0.1-0.6,0.4-1.4,0.7c-2.3,1-6.2,3-7.7,3.9c-1.3,0.8-3,2.2-3,2.5c0,0.2,0.6,0.1,2.7-0.6c1.2-0.4,3-0.9,4-1.2
			c1.9-0.5,3.1-1,3.5-1.4c0.2-0.2,0.3-0.2,0.4,0c0.2,0.2,1.2,0.1,1.7-0.1c0.2-0.1,0.2,0,0.1,0.9c-0.1,1.1,0.2,3,0.6,4.4
			c0.3,0.9,1.6,3,2.2,3.4c0.6,0.5,1.1,0.2,1.7-0.9c0.2-0.4,0.7-1,1.1-1.3c1.9-1.8,2.2-2.3,1.7-3.2l-0.2-0.4l0.5,0.3
			c0.7,0.4,1.4,0.4,2-0.1c0.2-0.2,0.4-0.5,0.4-0.6"/>
		<path id="XMLID_32_" class="st1" d="M1969.6,499.9c-0.7,1.2-2.3,6.3-3.5,11.5c-0.1,0.6-0.3,1-0.4,1c-0.1,0-0.4-0.5-0.6-1
			c-0.9-2.1-3.3-6.8-4.1-8.2c-0.8-1.4-2.3-3.1-2.6-3.1c-0.2,0-0.1,0.9,0.5,2.7c0.3,0.9,0.8,2.5,1,3.6c0.6,2.4,0.8,3,1.3,3.7
			c0.2,0.4,0.3,0.6,0.2,0.7c-0.4,0.4,0.2,2.7,1.3,5.1c0.3,0.6,0.6,1.4,0.8,1.7c0.1,0.3,0.5,0.9,0.8,1.3c0.5,0.6,0.6,0.7,0.8,0.6
			c0.2-0.1,0.5-0.9,0.8-2l0.1-0.5l0.1,0.5c0.1,0.8,0.5,1.8,0.7,1.8c0.2,0.1,0.8-1.5,1.2-3.4c0.8-3.3,1-5.5,0.7-5.8
			c-0.1-0.1-0.1-0.2,0-0.5c0.2-0.4,0.5-2,0.8-4.3c0.1-1,0.3-2.4,0.5-3.2c0.4-2.1,0.4-3,0.3-3
			C1970.1,499.1,1969.8,499.5,1969.6,499.9z"/>
		<path id="XMLID_71_" class="st1" d="M1928.6,592c-0.4,0.4-0.7,0.9-0.9,1.2c-0.3,0.5-1.5,2.1-2.3,3c-1.8,1.8-2.4,2.9-2.3,3.9
			l0.1,0.6l-0.4-0.2c-0.6-0.3-1.2-0.1-2,0.6c-0.4,0.3-0.8,0.8-0.9,1.1c-0.1,0.3-0.4,0.6-0.5,0.7c-0.1,0.1-0.4,0.9-0.7,1.8
			c-0.3,0.9-0.6,1.7-0.7,1.9c-0.1,0.2-0.1,0.4-0.1,0.5c0,0.1,0.1,0.5,0.1,1l0.1,0.8l0.6,0.3c0.8,0.3,0.8,0.3,0.6,0.5
			c-0.1,0.1-0.2,0.2-0.2,0.3c0,0.3,1.7,0,3.4-0.5c0.5-0.2,0.9-0.2,0.9-0.1c0.1,0.3,1.5,0,2.9-0.7c0.4-0.2,0.7-0.3,0.7-0.2
			c0,0.1-0.2,0.2-0.4,0.3c-0.4,0.2-1.5,1.6-1.3,1.6c0,0,0.3-0.3,0.5-0.7c0.3-0.4,0.6-0.7,0.7-0.7s0.3-0.1,0.4-0.2
			c0.2-0.3,0.5-0.2,1,0.3c0.2,0.1,0.3,0.2,0.4,0.2c0,0-0.1-0.2-0.4-0.4c-0.2-0.2-0.5-0.4-0.5-0.4s0-0.1,0.1,0c0.1,0,0.2,0,0.4-0.1
			c0.2-0.1,0.5-0.2,0.7-0.1c0.3,0.1,0.3,0.1,0.1-0.1c-0.1-0.1-0.2-0.2-0.1-0.4c0.1-0.2,0-0.3-0.1-0.4c-0.2-0.1-0.1-0.3,0.8-1
			c1.5-1.3,5.1-4.9,5.7-5.7c0.4-0.5,0.6-0.9,0.6-1.3c0-0.5,0-0.6-0.1-0.6c-0.2,0-1.7,0.9-2.8,1.7c-1.1,0.8-2.9,1.9-2.9,1.8
			c0,0,0.1-0.7,0.3-1.4c0.5-1.7,0.8-4.5,0.7-5.7c-0.1-1-0.7-2.7-1.1-3.2C1929.5,591.2,1929.3,591.2,1928.6,592z M1928.3,607.8
			c-0.3,0.2-0.5,0.1-0.2-0.1c0.1-0.1,0.3-0.2,0.3-0.1C1928.4,607.6,1928.4,607.7,1928.3,607.8z"/>
		<path id="XMLID_68_" class="st1" d="M2130.7,606.4c-0.4,0.2-1.1,0.6-1.5,0.9c-0.7,0.4-3.1,1.5-3.4,1.5c-0.2,0-1.8,0.9-2.3,1.2
			c-0.5,0.3-0.7,0.9-0.7,1.4v0.4l-0.4-0.4c-0.8-0.8-2.1-0.8-3.3,0c-0.3,0.2-0.7,0.5-0.9,0.6c-0.2,0.1-0.4,0.2-0.4,0.3
			c-0.2,0.3-1.5,1.9-2,2.4c-0.5,0.5-0.5,0.7-0.6,1.3c-0.1,0.4-0.1,0.8-0.2,0.8c-0.1,0-0.1,0.3-0.1,0.6c0,0.4,0.1,0.6,0.6,0.9
			c0.7,0.5,2.5,1.2,3.9,1.6c1.6,0.4,1.6,0.4,1.3,0.5c-0.3,0.2,0,0.4,1.2,0.6c0.9,0.2,1,0.2,0.8,0.4c-0.1,0.1-0.3,0.2-0.5,0.2
			c-0.2,0.1-0.2,0.1,0.1,0.1l0.3,0l-0.3,0.1c-0.2,0.1-0.3,0.2-0.2,0.2c0.1,0.1,0.6-0.2,1-0.5c0.2-0.2,0.4-0.2,0.6-0.2
			c0.2,0.1,0.5,0.1,0.8,0.1c0.4,0,0.8,0.3,1.1,0.8l0.2,0.3l0-0.3c0-0.1-0.1-0.3-0.1-0.4c-0.2-0.3,0.7-0.2,1,0.1
			c0.1,0.1,0.3,0.3,0.4,0.3c0.1,0,0-0.2-0.2-0.4c-0.3-0.3-0.5-0.4-0.8-0.4c-0.2,0-0.4,0-0.4-0.1c0.1,0,0.3-0.1,0.5-0.1
			c0.4,0,0.8-0.2,0.7-0.4c0-0.1-0.2-0.1-0.4-0.1c-0.2,0-0.4-0.1-0.5-0.1c0-0.1,0-0.1,0.1-0.1c0.3,0,1.3-0.9,3.3-2.9
			c1.9-2,2.8-3.1,3.6-4.6c0.4-0.8,0.4-0.9,0.4-1.9c0-2.6-0.2-4.7-0.5-5C2132.3,605.8,2131.5,605.9,2130.7,606.4z M2124.4,621.3
			c0,0.1,0,0.1-0.1,0.1c-0.1,0-0.2-0.1-0.2-0.1c0-0.1,0.1-0.1,0.1-0.1C2124.3,621.1,2124.4,621.2,2124.4,621.3z"/>
		<path id="XMLID_17_" class="st1" d="M1937.3,738c-0.6,0.1-1.2,0.7-1.3,1.5l-0.1,0.4l-0.1-0.3c-0.1-0.2-0.3-0.5-0.5-0.6
			c-0.4-0.4-0.4-0.4-3.9-0.3c-0.8,0-1.6,0-1.7-0.1c-0.2-0.1-0.6-0.1-0.9-0.1c-0.5,0-0.7,0.1-0.9,0.4c-0.2,0.3-0.2,0.4-0.1,1.1
			c0.2,1.3,0.7,2.4,1.1,3.1c0.7,1.1,2,2.4,3.2,3.3c0.7,0.5,1.5,1.1,1.8,1.4c0.4,0.3,1,0.7,1.4,0.9c0.5,0.3,0.7,0.5,0.6,0.5
			c-0.1,0-0.3,0.2-0.4,0.4c-0.2,0.3-0.2,0.3,0,0.2c0.3-0.1,0.2,0-0.1,0.5l-0.3,0.4l0.3-0.4c0.2-0.2,0.4-0.4,0.5-0.4
			c0.2,0,0.1,0.1-0.1,0.5c-0.2,0.4-0.2,0.3,0.3-0.2l0.7-0.7l0.1,0.6l0,0.6l0-0.7c0-0.6,0.1-0.7,0.5-0.9c0.2-0.1,0.5-0.2,0.5-0.3
			c0.1-0.1,0.3-0.1,0.8-0.1l0.7,0.1l-0.6-0.1c-0.5-0.1-0.7-0.1-1.1,0.1c-0.3,0.2-0.4,0.2-0.4,0.1c0-0.1,0.3-0.3,0.6-0.5
			c0.7-0.4,1.6-1.4,1.6-1.8c0-0.1,0.9-1.1,2.1-2.2c1.2-1.1,2.3-2.2,2.5-2.6c0.4-0.6,0.4-0.6,0.2-0.9c-0.2-0.3-0.2-0.3-0.7-0.1
			c-0.3,0.1-0.6,0.3-0.9,0.5c-0.3,0.2-0.4,0.2-0.4,0.1c0-0.4-0.8-1.9-1.1-1.9c-0.1-0.1-0.5-0.3-0.8-0.5c-0.7-0.6-1.3-0.9-1.8-1
			c-0.2,0-0.5-0.1-0.7-0.2C1938,737.9,1937.6,737.9,1937.3,738z"/>
		<path id="XMLID_16_" class="st1" d="M1938.2,559.8c0.2-0.5,0.5-3.2,0.6-4.2c0-0.2,0.4,0,0.6,0.3c0.1,0.1,0.1,0.2,0.1,0.1
			s-0.1-0.2-0.2-0.4c-0.1-0.2-0.2-0.3-0.1-0.4c0.2-0.1,0.2-0.3-0.2-0.5c-0.3-0.1-0.2-0.2,0.9-0.2c1.2-0.1,1.8-0.2,5.4-0.8
			c1.8-0.3,4-0.9,5-1.3c0.7-0.3,2.1-1.5,2.1-1.8c0-0.4-0.8-0.6-2.6-0.7c-1.8-0.1-2.4-0.2-4.5-0.6c-1.6-0.3-3.7-0.3-4,0
			c-0.3,0.3-0.4,0.3-0.5-0.1c-0.1-0.4-0.8-0.8-1.5-1c-0.9-0.2-2.9-0.3-4.1-0.1c-0.6,0.1-1.5,0.2-2,0.2c-0.5,0.1-1,0.2-1.3,0.4
			c-0.2,0.2-0.5,0.3-0.6,0.3c-0.2,0-0.2,0.3,0,0.8c0.2,0.5,1.6,1.8,2.6,2.4c0.4,0.3,0.7,0.5,0.7,0.6c0,0-0.6-0.1-1.2-0.4
			c-1.3-0.5-4-1-4.7-1c-0.5,0-0.6,0.1-1,0.5l-0.5,0.5l0,1.1c0.1,1.3,0.3,2,1.1,2.7c0.6,0.5,1.1,0.8,1.9,0.8c0.5,0,0.5,0,0.3,0.2
			c-0.5,0.5-0.2,1.1,1.4,3"/>
	</g>
	<g id="owl">
		<path id="XMLID_63_" class="st2" d="M1757,501"/>
		<path id="XMLID_62_" class="st3" d="M1765.4,542.1c1.1,1.3,2.2-0.1,2.2-0.1c0.2,0.3,0.7,1.5,0.7,1.5c0.1-0.7,0.1-1.6,0.1-1.6
			c0.4,0,2.5,1.2,2.5,1.2s0.7-0.3,0.7-0.4c-0.1-0.1,0.2-0.6,0.2-0.6c0.8,0.6,0.9,1.3,0.9,1.3c0.3-1.7-1.4-2.4-1.4-2.4
			s-0.6-0.6-1.1-0.5c-0.5,0.1-1.3,0.1-1.3,0.1s-1.2-0.5-2.1-0.5c-0.9,0-1.2-0.2-1.2-0.2c0-0.4,1.4-2.8,1.4-2.8l3.9-4.7
			c0,0,3.3-3.6,4-5.9c0.7-2.3,2-7.5,2-7.5s0.6-4.3-0.1-6c-0.7-1.7-0.7-4.2-0.7-4.2c0.4-4,0-6.3,0-6.3c-2.4-13.3-11.3-12.5-11.3-12.5
			c-12.7-2-16.4,11.2-16.4,11.2c-1.3,2.3-1.9,2.2-1.9,2.2c-10.8,4.9-10.9,10.8-10.9,10.8c-0.5,0.3-2.6,6.8-2.6,6.8s-2.4,6.3-2.7,9.6
			c0,0-1.4,4.3-2.1,5.5s12.7,2.3,12.7,2.3l23.2,3.6c0.5-0.2,1-0.1,1-0.1"/>
		<path id="XMLID_59_" class="st4" d="M1769.5,500.3c0,0,0.1,1.7-1.5,1.9c-1.5,0.3-2-0.5-2.3-1.1c-0.4-0.6-0.3-0.8-0.3-0.8
			s0.2-1.4,2.1-1.5c2-0.1,1.9,0.9,1.9,0.9S1769.5,500,1769.5,500.3z"/>
		<path id="XMLID_53_" class="st4" d="M1757.8,501.4c0,0-1.9-0.5-1.2-2.7c0,0,0.2-0.7,1-0.8s1.9,0.5,2.4,1c0.4,0.5,0.4,1.2,0,1.6
			C1759.6,500.9,1758.9,501.8,1757.8,501.4z"/>
	</g>
	<path id="bat" class="st3" d="M1748.3,660.8c0,0-1.7,0.7-2.4,0.9c-0.7,0.1-1.5-0.2-1.5-0.2s-0.4-0.1-0.4-0.5c0,0-0.7-0.2-1-0.6
		s-0.3-0.7-0.3-0.7s-0.2-0.3,0.1-1.1c0.3-0.9,1.1-1.6,1.4-2.7s-0.2-2.6-0.2-2.6s-0.3-1.1,0-2.2s1.4,0.5,1.4,0.5l0.4,0.5
		c0,0,0.3,0.3,0.6-0.3c0.4-0.7,0.6-0.6,1.8-2.8c0,0,0.6-0.4-0.5-2.2c0,0-1.6-2.2-1.5-2.6c0,0-6.2-6.3-10.4-9.3c0,0-1.1-0.1-2.9,0
		c0,0-0.2,0.1-1.2-0.5c0,0-0.9-0.2,2.1-0.6c0,0,0.6,0,0.1-1.4s-1.2-3.4-1.4-5.3c-0.2-1.9-3.9-10.7-3.9-10.7s-1-4.4-1.7-7.1
		c0,0-0.2-0.8,0.3-1.3c0,0,0.1-3.3-0.1-4.2c0,0-0.2-0.1,0.6-0.8c0,0,0.3-0.3,0.5,0.5c0.2,0.8,0.6,1.5,0.6,1.5s0.8,1.1,2.1,1.9
		c1.3,0.8,14.1,6,14.1,6s0.8,0.3,1.4-0.2c0.5-0.5,0.3,0.5,0.3,0.5s1.1,0.7,0.9,2.2c-0.2,1.5,0.5,3.2,1.4,3.8s0.8,0.8,1,1.4
		c0.2,0.6,1.5,2.4,4.6,4.5c0,0,1,0.2,2,1.8c0,0,2.8,5.2,4.5,10.4c0,0,1.7,4.4,2.1,5.7c0.4,1.2,0.3,2.6,0.3,2.6s-0.8,0.5,3.1,0.7
		c0,0,4.1-2.4,9.4-2.5c0,0,0.8-0.1,1.6,0.1c0.8,0.2,4.1-0.9,4.1-0.9s0.5-0.7,8.7,0.6c0,0,1.9,0.3,2.7,0.5c0.8,0.2,0.6,0.5-0.8,0.8
		c-1.3,0.3-0.8,1.1-0.8,1.1s-0.2,0.3,1.7,0.9c0,0,0.4,0.5-1.5,0.6s-4.8-0.2-4.8-0.2s-0.2-0.2-2.6,0.5c0,0-0.9,0.2-3,0.3
		c-2.1,0.1-8.7,0.6-9.1,0.7c-0.4,0,3.5,0.7,5.2,1.1c0,0,0.5,0.1,0.9,0.5c0.4,0.5-0.7,0.7-0.7,0.7s-1.5,0.6-2.9,2.6
		c0,0-0.2,0.6,0.9,2c0,0,0,0.5-0.1,0.6c-0.1,0.1,0,0.4,0,0.4s-0.7,0.7-1.6,0.1c0,0-0.5-0.9-0.5-1.6s0.1-1-1.6-2c0,0-1.2-0.7-1.6-0.7
		c-0.5,0-0.8,1-0.8,1s-3.6,3.5-7.2,4.8c-3.5,1.3-9.3,2-9.3,2S1749.3,660.1,1748.3,660.8z"/>
</g>
</svg>
