<?xml version="1.0" encoding="utf-8"?>
<!-- Generator: Adobe Illustrator 19.0.0, SVG Export Plug-In . SVG Version: 6.00 Build 0)  -->
<svg version="1.1" xmlns="http://www.w3.org/2000/svg" xmlns:xlink="http://www.w3.org/1999/xlink" x="0px" y="0px"
	 viewBox="811 -6 2234.8 805" style="enable-background:new 811 -6 2234.8 805;" xml:space="preserve">
<style type="text/css">
	.st0{display:none;fill:url(#XMLID_3_);}
	.st1{fill:#211F1F;}
</style>
<g id="Layer_1">
	<g id="Layer_4">
		
			<linearGradient id="XMLID_3_" gradientUnits="userSpaceOnUse" x1="1928.4" y1="1062.9994" x2="1928.4" y2="-19.0006" gradientTransform="matrix(1 0 0 1 0 -263.9994)">
			<stop  offset="0" style="stop-color:#4F8F40"/>
			<stop  offset="1" style="stop-color:#F3EA59"/>
		</linearGradient>
		<rect id="XMLID_1_" x="811" y="-283" class="st0" width="2234.8" height="1082"/>
	</g>
	<g id="Layer_3">
		<g id="XMLID_30_">
			<path id="XMLID_10_" class="st1" d="M1870.2,1110.8c-0.1-10.1-0.4-36.2-0.4-36.2l0.5-37.4c0,0-28.7-131.2-30.7-177.6
				s-9.4-61.8-13.4-113.6l-21.8-17.2c0,0-41.7-18-107.6-63.4c-66-45.5-89.7-45.6-89.7-45.6s-168.1-53.7-185.8-49.5
				c0,0-2.1-6,43.6,1.7c45.8,7.6,141.1,36.3,141.1,36.3c55.5,19.7,105.3,49.6,105.3,49.6s-1.2,3.5,35.3,18.5
				c35.8,14.6,36.9,6.8,36.9,6.8l9.7,3.4l18.9,20.3c22.4,17.4,35.2-1.5,35.2-1.5s5.4-39.8-10.9-94.4c-16.3-54.6,15.1,5.4-106.9-72.6
				c0,0-60.7-24.7-68.8-70.7c0,0,5.4,1-45.8-42.5c-59.6-50.6-62.2-74-62.2-74s12.3-30.3-30.8-64.5c0,0,33.1,15.9,38.5,38.5
				s54.6-53.8,69.6-48.5c0,0-41.9,37.1-58.6,62.4c-15.7,23.9,2.6,40.2,90.5,111.7c0,0,9.9,1.6,42.1,58.5c0,0,86.7,48.4,104,47.5
				s-11.3-49.7-11.3-49.7s-13.1-63.7,17.7-113.4c0,0,12-11.1-29-46.5c0,0-9.3-27.7-4.2-33.8l12.5,33.2c0,0,19.7,6.5,27.1,28.8
				c0,0,9.3,22.7,3.9,31c0,0-19.3,25-15.7,58.5c3,28.4,8.7,40.1,24.2,73.2s35.7,43.4,35.7,43.4c8.3,1.8,16.7,50,20.3,74.2
				c0.9,6,8.3,9.1,13.4,5.7l20.6-6.7l8.1-8.5l11.5-3.8l9.5,8.1c0,0,13.6,0.1,29.4-9.6c10.2-6.3,16.1-9.7,22.4-14.2
				c4.4-3.1,8.5-6.6,11.3-8.9c5.2-4.2,5.8-4.7,8.9-7.4c0,0,49.6-12.9,73.6-20.4l2.6-0.7c37-11.7,44.2-14.4,44.2-14.4l35.4-11
				c13.7,0.9,22.6,1,22.6,1l25,6.1l-29.3-2.5L2175,572c-30.1,5.8-70.4,25.8-70.4,25.8l-10.3,5l-67.7,28.1
				c-4.6,3.7-9.2,7.4-13.8,11.1l-4.5,6.1l-9.2,4.3c-10,8.3-51.4,18.9-51.4,18.9l-45.6,17.3c-4,3.9-6.2,9.2-6,14.7
				c1.2,41.9,7.9,73.5,7.9,73.5c-1.2,77.5,0.3,116.4,9.8,118.2c9.6,1.8,17.7,29.3,17.7,29.3l-0.6-3.6c0.8,5.3-0.5,10.5-3.5,14.7
				c-3.3,4.6-4.7,10.3-3.8,16c12.5,103.6,56.7-5.8,56.7-5.8l27.4-68.2c0,0,5-53.7-5.3-99.9c0,0,13.7-63.6,19.9-99.2
				c1.5-8.6,5.2-25.7,6.4-47.2c4-67.4,4-175.2,2-177.7c-2.7-3.3,13.1-22.5-82-135.4c0,0-71.1-51.3-117.5-60.7l-17.4-5.8l-8.8-4.4
				l-14.2-5.4c-20.4-6.9-118.6-19.3-118.6-19.3s-42.1-4.5-56.9-1.5c-11.2,2.3-42.2,6.3-42.2,6.3s11.2-10.7,27.2-13
				c12.4-1.8,16.6-1.3,16.6-1.3l6.7,1.3l9.1,1C1664,207.4,1797,232,1797,232s125.2,51.3,157,73.2S1884,178,1884,178
				c-23.7-45.1-23-45.2-45.8-110.3l-1.9-2.9L1820.4-6l27.1,70.8c0,0,12.1-5.3,0,0s63.2,127.4,63.2,127.4s68.7,111.8,66.5,125.2
				c-2.2,13.4,69.9,108.7,69.9,108.7s10.6,2.6,12.9,6.9c1.7,3.2,12.1-3.1,17.7-6.7c1.8-1.2,4.1-1.3,6.1-0.2
				c15.7,8.3,79,2.5,81.9,7.9c3,5.8,76.8-18.7,76.8-18.7l90.7-32.7l-15.7,14.8l-40.1,15.5c0,0-64.7,24.9-80.5,33.5
				c-15.8,8.6-93.9-1.5-93.9-1.5l-34.3,13.8c0,0-12.7,35.6-7.8,115.3c0.5,7.6,0.8,15.3,1,23.1c0.1,3.6,0.1,7.1,0.1,7.1
				s0,2.8,0.1,5.6c0,4.7-2.8,58.9-7.6,133.1l-3.8,17.8c0,0-2.8-1.6,1,43.9c3.8,44.7,55.5-11,55.5-11l11.9-13.5l22.4-3.9
				c0,0,16.7,10.7,32.6,4.5s191.5,35,191.5,35l-8.2,23.1c0,0-130.4-22.7-158.6-23.3c-28.1-0.6-66.3,26.1-66.3,26.1
				c-0.2,49.5-41.6,148.2-41.6,148.2L1870.2,1110.8z"/>
		</g>
	</g>
</g>
<g id="Layer_3_1_">
</g>
<g id="Layer_2_1_">
</g>
</svg>
