<?xml version="1.0" encoding="utf-8"?>
<!-- Generator: Adobe Illustrator 19.0.0, SVG Export Plug-In . SVG Version: 6.00 Build 0)  -->
<svg version="1.1" id="Layer_1" xmlns="http://www.w3.org/2000/svg" xmlns:xlink="http://www.w3.org/1999/xlink" x="0px" y="0px"
	 viewBox="275 991.3 2233.4 510.9" style="enable-background:new 275 991.3 2233.4 510.9;" xml:space="preserve">
<style type="text/css">
	.st0{fill:none;stroke:#5D5D5D;stroke-miterlimit:10;}
	.st1{fill:#0A1719;}
	.st2{fill:#17292D;}
	.st3{fill:none;stroke:#5D5D5D;stroke-width:200;stroke-miterlimit:10;}
	.st4{fill:#0D0E12;}
	.st5{fill:#152A2B;}
	.st6{fill:#1A3333;}
	.st7{fill:#1D3A3A;}
</style>
<title>Asset 5</title>
<g id="Layer_2">
	<g id="Layer_1-2">
		<path id="_Path_7" class="st0" d="M196,1476.1"/>
		<path id="_Path_8" class="st1" d="M2508.2,1260.5c0,0-43.8,5.7-84.8,11.5c-25.2,3.5-48.2,9.4-58.8,7.8c-11.3-1.6-22.5,8-34.8,14.3
			c-10.9,5.6-23.4,8.3-28.4,14.1c-7.3,8.6-9.7,7.7-11.2,13.7c-3.4,13.5,61.4,74.1,99,74.6c55.8,0.7,119,0,119,0V1260.5z"/>
		<path id="_Path_9" class="st2" d="M2508.2,1255.5c0,0-39.6,4.4-80.6,10.2c-25.2,3.5-48.2,9.4-58.8,7.8c-11.3-1.6-22.5,8-34.8,14.3
			c-10.9,5.6-23.4,8.3-28.4,14.1c-7.3,8.6-9.7,7.7-11.2,13.7c-3.4,13.5,61.2,78.5,98.8,79.9c55,2,115,1,115,1V1255.5z"/>
		<path id="_Path_10" class="st1" d="M524.3,1281.5c0,0,0.9,8.6,2.2,9.1s-4.5,7.1-6,10.3s-7.5,12-7.5,12s-4.8,7.3,3,17.3
			s-32-0.1-32-0.1l2.8-48.6L524.3,1281.5L524.3,1281.5z"/>
		<path id="_Path_11" class="st2" d="M273.3,1248c0,0,220.6,0.5,247.2,30c0.9,1,1.9,1.8,2.9,2.6c1.5,1.1,2.7,4.3-3.9,13.2
			c-2,2.7-6.3,13.8-8.5,17.8c-4.8,8.5,9.6,10.3,22.3,12.1c28.5,4.2,71.7,1.9,71.7,1.9s366-15,423,6c57,21,77,29,153,34
			c45.2,3,86.7,14.8,118.2,31h-1026c1-5,16-11,0,0l0,0v-144.1L273.3,1248"/>
		<path id="_Path_12" class="st3" d="M172,1191.5"/>
		<path id="_Path_13" class="st4" d="M2220,1301.6c0-0.9,0-1.8,0-2.6c0-1.3,0.1-2.6,0.1-2.6v-0.1l1-0.6l1.2-0.6
			c0.7-0.3,0.7-0.1,0.7-0.1l1.3,0.3c1.1,1.5,0.4,2,0.4,2l0.1,0.3c0,0.1,0,0.2,0,0.2c0,0.1-0.5,5.5-0.5,5.5c0.2,0,0.4,0,0.6,0
			c-0.4-0.4,0.4-5.3,0.4-5.3c0.7-1.6,0.1-1.9,0.1-1.9l-0.3-1.3c-0.4-0.4,0-0.5,0-0.5c3.5-0.6,3.1-0.7,3.1-0.7c0-0.9,0.5-0.7,0.5-0.7
			c1.4,0.4,1.9,0,1.9,0c1.9,0.2,1.4-0.7,1.4-0.7c1.4-0.3,1.6-0.6,1.6-0.6l0.1-0.2c0-0.2-0.3-0.8-0.3-0.8c-0.3-0.2-0.6-0.3-0.9-0.4
			c0-0.1,0.1-0.2,0.1-0.3h0.1c0.3,0,0.7,0,1.1-0.1c1-0.5,0.4-0.6,0.4-0.6l-0.2,0l0.7-0.5c0.3-0.2-0.1-0.3-0.1-0.3
			c0.3-0.2,0.2-0.2,0.2-0.2h-0.2c0.1-0.1,0.1-0.2,0.1-0.2c-1.1-0.4-4.6,0.6-4.6,0.6c-1.1-0.4-2.2-0.7-3.4-0.8
			c-7.6-4.5-12.4-0.8-12.4-0.8l-0.5,0.3c-3-1-4.2-0.7-4.4-0.6h0c-0.6,0.4-1.1,0.9-1.5,1.6c-0.8,0.6-1.3,1.5-1.4,2.5
			c0.1,0.3,0.2,0.1,0.2,0.1c2.4-1.1,2.1-0.9,2.1-0.9c1.9,0.1,2.3,1,2.3,1c0.9,1,2.1,1.7,3.4,2.2c1.3,0.3,2.4,1,3.4,1.9
			c0.4,0.2,0.6,0.7,0.7,1.1l0.3,0.4c0,0,0.2,1.2,0.2,2.5s0,2.5,0,2.5v0.1c0.1,0,0.2,0,0.3,0L2220,1301.6z"/>
		<path id="_Path_14" d="M2181.5,1308.4c0.1,0-0.2-1.1-0.2-1.1c-0.1-0.4-0.3-0.7-0.6-1.1l-0.3-0.9c0,0-0.1-0.7-0.1-0.9
			c0-0.3,0.1-0.7,0.2-1c0.4-0.5,0.9-0.8,1.6-1c0.8-0.1,4.7-0.1,6.5-2.7c0.1-0.5,0.7-0.8,1.3-0.7c0.1,0,0.1,0,0.2,0.1
			c0,0,1.4,1.2,1.8,1.2c0.1-0.8,0-1.6-0.5-2.3c0,0,0-1.6-0.9-1.9c-1.1-0.3-2.2-0.1-3.2,0.3c-0.1,0-0.2-0.1-0.3-0.2
			c0,0-3.6-4.7-9.4-2.2c0,0-3.8,1.5-4.2,1.5c0,0-0.6-0.2-3.5-0.2c0,0,0,0,0,0.1l-0.1,0.1l0.7,0.3c0,0,0.1,0-0.3,0.1
			c0,0-0.1,0-0.1,0.3c0,0,0,0.1-0.1,0.1s-0.6,0.2-0.2,0.5l-0.1,0v0.1l0.4,0.1c0,0,0.3,0-0.2,0.3c0,0-0.4,0.1,1.8,0.7
			c0.1,0,0.2,0.1,0.3,0.1l0.1,0.1l0.9,0.1c0.3,0.1,0.7,0.3,1,0.5c0.2,0.3,0.4,0.7,0.6,1c0.1,0.1,0.6,0.1,0.7,0.4
			c0.4,0.6,0.9,1.1,1.5,1.6c0.1,0.1,0.1,0.7,0.1,0.7l-0.1,0.6c-0.2,0.6-0.5,1.1-0.8,1.6c-0.2,0.1-1.3,1.8-1.5,1.9c0.1,0,0.2,0,0.3,0
			c0.1,0,0.2,0,0.3,0s0.2,0,0.3,0c0,0,0-0.2,0-0.2l0.3-0.5c0,0,0.5-0.3,0.5-0.5c0.1-0.2,0.2-0.4,0.3-0.7c0-0.1,0.5-1.4,1-1.8
			c0,0,0.8,0,1.9-0.1l-0.2,1.4c-0.1,0.4,0,0.8,0.3,1.1c0,0,0.2,0.8,0.4,1l0.2,0.3c0,0,0.5,1.5,0.6,1.5"/>
		<path id="_Path_15" class="st5" d="M600.5,1295.3c0,0-1-2.4-6-2.7s-6.4-0.3-7.8,0.4c0,0-0.2,0.1-0.1,0.5c0,0-4.2,0.8-4.9,1.3
			c0,0-1.3,0.2-1.7,0.2s-3.1-0.3-4,0.3c0,0-0.5,0.1,1.9,0.2c-0.7,0.1-1.3,0.2-1.9,0.5c-0.1,0.2,0,0,2.7-0.1c0,0-1.3,0.8-1.5,1.3
			c-0.3,0.5-0.6,1-1,1.5c-0.2,0-0.3,0-0.5,0c-0.1,0-0.6-1.4,0.8-1c0,0,0.1,0,0-0.1c-0.3-0.4-0.8-0.5-1.2-0.3c0,0-0.1,0-0.1,0.1
			c0,0-0.5,0.2-0.5,1.1c0,0-0.1,0.1-1-0.2c0,0-0.3,0-0.1,0.1c0.3,0.2,0.7,0.4,1.1,0.4c0.1,0.2,0.2,0.4,0.3,0.6c0,0,0.1,0.1,0,0.1
			s-1.3,0.5-2-1.3l0,0c0,0-0.3,0.5,0.3,1.4c-0.4,0.2-0.9,0.2-1.4,0.3c0,0-0.1,0-0.1,0.1c0.7,0.1,1.3,0.3,1.9,0.7
			c0.4,0,0.8,0.1,1.3,0c0.9,0,1.8,0.1,2.7,0.3c0.5,0.1,1,0.1,1.5,0c1.4-0.1,2.7,0,4.1,0.1c0.1,0.1,5.4,0.8,5.9,1.1
			c0.5,0.3,13.3,0.6,15.6-0.7c0,0,3.6-1.1,3.9-1.6s-1.8-3.7-2.4-3.7c0,0-0.6-0.4-0.6-0.5s0.3-0.3,0.3-0.3s0.5-0.3,0.6-0.4
			c0.4,0,0.9,0,1.3-0.1c0,0,0-0.1,0.2-0.1c0.5,0.2,1.1,0.4,1.7,0.5c0.9,0.4,2,0.7,3,0.8c0.2,0.1,0.4,0.2,0.6,0.2
			c0,0,0.7-0.2-0.4-0.9c-0.6-0.4-1.3-0.8-2-1.1c-0.8-0.5-1.4-1.2-2-1.9c-0.3-1.4-1.3-2.6-2.6-3.2c-1.1-0.5-2.4-0.6-3.5-0.1
			c-1.1,0.6-2,1.6-2.5,2.7c-0.2,0.3-0.3,0.6-0.4,0.9c-0.1,0.6-0.1,1.3,0,1.9"/>
		<path id="_Path_16" class="st6" d="M538.7,1266.5c-0.6,0.4-1.3,0.7-2,0.6c0,0-0.8-0.1-1-2.5s-1.9-3.5-3.1-3.4c-0.3,0-0.7,0-1,0.2
			c-0.5,0.4-0.9,0.9-1.1,1.4s-0.2,1.1,0,1.7c0,0,0.3,0.9-1,3.2c0,0-0.1,0.4,0.1,0.6c0,0,0.1,0.2,0.3-0.3c0.2-0.2,0.4-0.5,0.7-0.7
			l1.5-1.8c0.3-0.3,0.7-0.5,1.1-0.5c0.3,0.1,0.4,0.3,0.3,0.6l0,0c-0.1,0.5-0.1,0.9-0.1,0.9s-1,1.4-0.9,2.2s1.2,1.2,1.2,1.2l1.4,0.4
			c2.6,0.4,5.2,0.5,7.8,0.5c3.2-0.2,6.4-0.8,9.4-1.9c0,0,0.5-0.3,0.2-0.3s0.2-0.3,0.2-0.3s1-0.8,2.4-2.5c0,0-0.1,0,0-0.1
			c0.3-0.2,0.7-0.4,1-0.5c0,0,0.1-0.1-0.2,0s0-0.2,0-0.2c-0.3,0.1-0.5,0.2-0.8,0.3c-0.7,0.1-1.3,0.3-2,0.5c-0.1,0.1-0.7-0.1-0.8-0.2
			c0.4-0.1,0.8-0.1,1.3-0.2c-0.5-0.3-1.1-0.4-1.7-0.3c0,0,1.5-0.2,1.7-0.1c0,0-5.9-0.7-8.3-0.1c0,0-2.4,0.3-2.8,0.4
			C542.1,1265.4,539.3,1265.7,538.7,1266.5z"/>
		<path id="_Path_17" class="st7" d="M732.3,1263.2c0,0,4.1-1,4.4-1.6c0.4-1,0.2-2.2-0.5-3c-0.7-1-1.4-2-1.9-3.1
			c0.6-1,0.4-2.4-0.5-3.2c0,0,0.1-1.6-1-1.5s-1.1,1.5-1.1,1.5c-0.8,1-0.8,2.4,0,3.4c0,0-0.7,0.3-0.7,0.6c0,0.3-2.7-1.6-4.5,1.5
			c0,0-1.5,0.8-1.5,1.6c0,0-0.6,0.4-0.5,1c0,0-0.8,0.1-0.8,0.2s0.3,0.5,0.3,0.5l0.3,0.2c0.3,0.7,0.6,1.3,1.1,1.8
			c1.9,0.2,3.8,0.1,5.7-0.2l0.3,0.3C731.7,1263.3,732,1263.3,732.3,1263.2z"/>
		<path id="_Path_18" class="st5" d="M716.4,1288.7c0,0,3.5,3.1,2.2,5.7c0,0-12.5,2.4-18.5,1.2c-2.2-0.3-4.3-1.4-5.7-3.1h0.5
			l0.2-1.3l0.5,1.3h0.5c0,0-0.5-2.6,1.8-1.8l0.8-0.8c0,0-2.2-1.5-3-1.1c0,0,0.2-1.1,2.7-0.8c1.1,0,2.2-0.2,3.3-0.5
			c0,0,8.3-2.8,9.5-1c0,0-0.3-3.7,3.2-4c0.8,0,1.5,0.3,2,0.9c0.5,0.9,0.8,1.9,1.1,2.8c0.7,0.6,1.4,1.3,2,2.1
			c0.1,0.3-2.7-0.8-2.7-0.8s-1,0.4-1,0.6C715.8,1288.3,715.2,1288.3,716.4,1288.7z"/>
	</g>
</g>
</svg>
