<?xml version="1.0" encoding="utf-8"?>
<!-- Generator: Adobe Illustrator 19.0.0, SVG Export Plug-In . SVG Version: 6.00 Build 0)  -->
<svg version="1.1" id="Layer_1" xmlns="http://www.w3.org/2000/svg" xmlns:xlink="http://www.w3.org/1999/xlink" x="0px" y="0px"
	 viewBox="275 991.3 2233.4 510.9" style="enable-background:new 275 991.3 2233.4 510.9;" xml:space="preserve">
<style type="text/css">
	.st0{fill:none;stroke:#5D5D5D;stroke-miterlimit:10;}
	.st1{fill:none;stroke:#5D5D5D;stroke-width:200;stroke-miterlimit:10;}
	.st2{fill:#0F1A1C;}
</style>
<title>Asset 5</title>
<g id="Layer_2">
	<g id="Layer_1-2">
		<path id="_Path_7" class="st0" d="M196,1476.1"/>
		<path id="_Path_12" class="st1" d="M172,1191.5"/>
		<path class="st2" d="M273.2,1396.6h1026c0,0,19.7,19.7,30.1,31c8,8.7,9,14.6,16.3,18c6.2,2.9,12.1,6.5,17.6,10.5
			c6.9,5.1,20.1,12.7,44.8,22.1c42,16,68.3,24,68.3,24h677.4c0,0,17.7-6,33.2-18.7s35.8-28,40.3-34s55.7-19.3,55.7-19.3
			s36.4-7.3,48.4-13.3s57.9-20.4,57.9-20.4h119v124.8H273L273.2,1396.6z"/>
	</g>
</g>
</svg>
