<?xml version="1.0" encoding="utf-8"?>
<!-- Generator: Adobe Illustrator 19.0.0, SVG Export Plug-In . SVG Version: 6.00 Build 0)  -->
<svg version="1.1" id="Layer_1" xmlns="http://www.w3.org/2000/svg" xmlns:xlink="http://www.w3.org/1999/xlink" x="0px" y="0px"
	 viewBox="275 991.3 2233.4 510.9" style="enable-background:new 275 991.3 2233.4 510.9;" xml:space="preserve">
<style type="text/css">
	.st0{fill:none;stroke:#5D5D5D;stroke-miterlimit:10;}
	.st1{fill:none;stroke:#5D5D5D;stroke-width:200;stroke-miterlimit:10;}
	.st2{fill:#0F1A1C;}
</style>
<title>Asset 5</title>
<g id="Layer_2">
	<g id="Layer_1-2">
		<path id="_Path_7" class="st0" d="M196,1476.1"/>
		<path id="_Path_12" class="st1" d="M172,1191.5"/>
		<path class="st2" d="M1299.2,1396.6c0,0,19.7,19.7,30.1,31c8,8.7,9,14.6,16.3,18c6.2,2.9,12.1,6.5,17.6,10.5
			c6.9,5.1,20.1,12.7,44.8,22.1c42,16,68.3,24,68.3,24H273.2l0-105.7H1299.2z"/>
		<path class="st2" d="M2389.2,1396.5c0,0-45.9,14.4-57.9,20.4s-48.4,13.3-48.4,13.3s-51.1,13.3-55.7,19.3s-24.8,21.3-40.3,34
			s-33.2,18.7-33.2,18.7h354.7l-0.2-105.8H2389.2z"/>
	</g>
</g>
</svg>
