<?xml version="1.0" encoding="utf-8"?>
<!-- Generator: Adobe Illustrator 19.0.0, SVG Export Plug-In . SVG Version: 6.00 Build 0)  -->
<svg version="1.1" id="Layer_1" xmlns="http://www.w3.org/2000/svg" xmlns:xlink="http://www.w3.org/1999/xlink" x="0px" y="0px"
	 viewBox="275 991.3 2233.4 510.9" style="enable-background:new 275 991.3 2233.4 510.9;" xml:space="preserve">
<style type="text/css">
	.st0{fill:none;}
	.st1{fill:#508287;}
	.st2{fill:#3D6A72;}
	.st3{fill:#315760;}
	.st4{fill:#27464F;}
	.st5{opacity:0.35;fill:#27464F;enable-background:new    ;}
	.st6{fill:none;stroke:#5D5D5D;stroke-miterlimit:10;}
	.st7{fill:none;stroke:#5D5D5D;stroke-width:200;stroke-miterlimit:10;}
</style>
<title>Asset 5</title>
<g id="Layer_2">
	<g id="Layer_1-2">
		<rect x="273.2" y="314.5" class="st0" width="2235" height="1082"/>
		<path id="_Path_" class="st1" d="M273.2,1135.5l64.4-19l65.4-13.3l33.3,6l140.7,0.3l312.4-30c0,0,39.4,2,61.5-5l8,5l14.8,2
			l26.3-4.5l9.5,3l19.5,3l119.4,16.2l127.8-18.7l31.8-1l31.7,5l11.3-6.3l16.7,1.3l12,3l21.3-3.7l17,0.7l21.3,8.7l232.9,22.3l18.8,5
			l20.8,5.5l62.9,2.5l25.3-11l11.7-1.5l11.3,5.5l618.3,16l66.9,1v189l-2235,74L273.2,1135.5L273.2,1135.5z"/>
		<path id="_Path_2" class="st2" d="M273.2,1216.5l313.1-77.9l295.8-39.1c0,0,89.9-2.1,131.9-15.1c42-13,53.6-11,53.6-11l46,4
			l45.8-4.1l49.1-12.9c0,0,36.4,18,63,22s81.3,5,81.3,5l32,1l204.6,17c0,0,95.1,15,114.9,12s46-6,46-6l25.9,5l29.3-1l42-11l26.6-12
			l17.5,5l35.6,3.5c0,0,62-6.5,65-6.5h38l58.4-11.4l201.5,5.2c0,0,79.2-0.1,99.8-6.1s31.4-8.7,31.4-8.7s20.3,12.7,38.4,14.7
			l48.1,5.3h0.6l-1,122L273.2,1313L273.2,1216.5L273.2,1216.5z"/>
		<path id="_Path_3" class="st3" d="M273.2,1121.5c0,0,39,11,116.2-7.9c77.7-19,105.3-22.5,105.3-22.5s144.2-13.5,175.5-21
			s182.7,26.8,182.7,26.8s53.8,13.2,92.9,6.3c0,0,98.4-4.5,128.8-13.5s101.6,6.7,101.6,6.7s57.6,35.8,89.9,27.3l32.4-8.5
			c0,0,108.5-25.5,127.7-36c12.1-6.7,23.7-14.2,34.7-22.5c0,0,42.6-22.5,55.6-22.5s66.7,48.8,84.1,45.4c0,0,85,49.2,101.4,45.4
			l16.5-3.8l0,0l93.1,4l134.5-20.5l93-9l227.9,9c0,0,258.4-8.1,240.2-8.1h1v150l-2235,32.9L273.2,1121.5L273.2,1121.5z"/>
		<path id="_Path_4" class="st4" d="M273.2,1138.5l83.8,1.5c21,0.3,41.9-2.7,62-9c33.6-10.5,83.2-27.6,94.9-40.5
			c18-20,112-34,112-34s124-32,158-56c34-24,108,54,108,54s62,49.4,126,42.7c64-6.7,216,41.3,216,41.3s103.8,7.7,156,6
			c60.5-2,150-11,150-11s194-3,236,5s198-22,198-22l150-48c0,0,12.4-5.9,33.2-18.5c9-5.5,17.5-16.1,30.8-21.5c0,0,10.9,2.9,37.8,8
			c13.8,2.6,26.4,3.3,41.3,13.5c13.5,9.2,42.1,14,57.4,21.1c21.9,10.1,44.5,18.8,67.5,26.1l115,17.3l1.4,1v195H273.2V1138.5z"/>
		<path id="_Path_6" class="st5" d="M2508.2,1204.5v26l-10.6,0.6l-114.8,7.1c0,0-32.6,4.1-67.4,10.8c-15.3,2.9-43.9,4.9-57.4,8.7
			c-14.9,4.2-27.4,4.5-41.2,5.6c-26.9,2.1-37.8,3.3-37.8,3.3c-13.3-2.2-21.8-6.6-30.8-8.9c-20.9-5.2-33.2-7.6-33.2-7.6l-150-19.8
			c0,0-156-12.4-198-9.1c-34.3,2.7-170,2.4-218.6,2.2c-17.3,4.9-34.2,10-40.7,10c-13,0-55.6-9.3-55.6-9.3s-5.4-1.7-13.8-4
			c-19.7-0.6-39.8-1-57.4-1.3c-52.2-0.7-156,2.5-156,2.5s-152,19.8-216,17s-126,17.6-126,17.6s-74,32.2-108,22.3s-158-23.1-158-23.1
			s-94-5.8-112-14c-11.6-5.3-61.3-12.4-94.9-16.7c-20.6-2.6-41.3-3.8-62-3.7l-75,0.9V1132l2235,15.6L2508.2,1204.5L2508.2,1204.5z"
			/>
		<path id="_Path_7" class="st6" d="M196,1476.1"/>
		<path id="_Path_12" class="st7" d="M172,1191.5"/>
		<rect x="273.2" y="314.5" class="st0" width="2235" height="1078"/>
	</g>
</g>
</svg>
