<?xml version="1.0" encoding="utf-8"?>
<!-- Generator: Adobe Illustrator 19.0.0, SVG Export Plug-In . SVG Version: 6.00 Build 0)  -->
<svg version="1.1" id="Layer_1" xmlns="http://www.w3.org/2000/svg" xmlns:xlink="http://www.w3.org/1999/xlink" x="0px" y="0px"
	 viewBox="275 991.3 2233.4 510.9" style="enable-background:new 275 991.3 2233.4 510.9;" xml:space="preserve">
<style type="text/css">
	.st0{fill:none;}
	.st1{fill:#193435;}
	.st2{fill:url(#SVGID_1_);}
	.st3{fill:url(#SVGID_2_);}
	.st4{opacity:0.35;fill:#27464F;enable-background:new    ;}
	.st5{fill:none;stroke:#5D5D5D;stroke-miterlimit:10;}
	.st6{fill:#C5E6EA;}
	.st7{fill:none;stroke:#5D5D5D;stroke-width:200;stroke-miterlimit:10;}
	.st8{opacity:0.21;}
	.st9{fill:#1D3435;}
</style>
<title>Asset 5</title>
<g id="Layer_2">
	<g id="Layer_1-2">
		<rect x="273.2" y="314.5" class="st0" width="2235" height="1082"/>
		<g id="Layer_2-2">
			<g id="_Group_">
				<g id="_Group_2">
					<path class="st1" d="M2313,1373.4c-1.4,0.9-2.9,1.6-4.5,2c-1.6,0.5-3.2,0.8-4.8,1.1c-3.2,0.5-6.5,0.7-9.8,0.6
						c3.3-0.1,6.5-0.4,9.8-0.9c1.6-0.2,3.2-0.6,4.8-1C2310,1374.9,2311.6,1374.2,2313,1373.4z"/>
				</g>
				<g id="_Group_3">
					<path class="st1" d="M2304.1,1365c2.2,0.3,4.3,0.8,6.3,1.5c1,0.4,2,0.9,2.9,1.5c1,0.6,1.6,1.6,1.7,2.7c0-0.5-0.3-1-0.6-1.4
						s-0.7-0.8-1.2-1.1c-0.9-0.6-1.9-1.1-2.9-1.4C2308.2,1366,2306.2,1365.4,2304.1,1365z"/>
				</g>
				<g id="_Group_4">
					<path class="st1" d="M2289,1377c-3.1-0.2-6.2-0.6-9.1-1.4c-1.5-0.4-3-1-4.3-1.7c-0.7-0.4-1.3-0.8-1.9-1.4s-0.9-1.4-0.8-2.2
						c0.2-0.8,0.6-1.5,1.3-2c0.6-0.5,1.3-0.9,2-1.2c1.4-0.6,2.9-1.2,4.4-1.5c3-0.7,6.1-1.2,9.2-1.3c-3.1,0.2-6.1,0.7-9.1,1.4
						c-1.5,0.4-2.9,0.9-4.3,1.6c-0.7,0.3-1.3,0.7-1.9,1.2c-0.6,0.5-1,1.1-1.2,1.8c-0.1,0.7,0.2,1.5,0.7,2s1.1,1,1.8,1.4
						c1.4,0.7,2.8,1.3,4.3,1.7C2282.9,1376.2,2285.9,1376.7,2289,1377z"/>
				</g>
			</g>
			<g id="_Group_5">
				<path class="st1" d="M2280,1370.2c-0.1-0.2,0-0.4,0.1-0.6s0.3-0.3,0.5-0.3C2280.4,1369.7,2280.1,1369.8,2280,1370.2z"/>
			</g>
			<g id="_Group_6">
				<path class="st1" d="M2291.9,1367c2-0.1,4.1-0.1,6.1,0s4.1,0.4,6.1,0.8c1,0.2,2,0.5,2.9,1c0.5,0.2,0.9,0.6,1.1,1.2
					c0.1,0.6-0.4,1-0.8,1.3c-1.8,0.9-3.8,1.4-5.9,1.6c1-0.2,2-0.4,3-0.6s1.9-0.6,2.8-1.1c0.4-0.3,0.8-0.7,0.7-1.1s-0.6-0.8-1-1
					c-0.9-0.5-1.9-0.8-2.9-1C2300,1367.2,2295.9,1366.9,2291.9,1367z"/>
			</g>
			<g id="_Group_7">
				<path class="st1" d="M2294,1373.4c-0.9,0-1.9,0-2.8,0s-1.9-0.1-2.8-0.2c-1.9-0.2-3.7-0.5-5.5-1.1c0.9,0.2,1.8,0.4,2.7,0.5
					s1.8,0.3,2.8,0.3s1.9,0.2,2.8,0.2S2293,1373.4,2294,1373.4z"/>
			</g>
			<g id="_Group_8">
				<g id="_Group_9">
					<path class="st1" d="M2186.9,1384.4c1.4,0.8,2.9,1.4,4.5,1.9c1.6,0.4,3.2,0.8,4.8,1c3.2,0.5,6.5,0.8,9.8,0.9
						c-3.3,0.1-6.6-0.1-9.8-0.6c-1.6-0.3-3.2-0.6-4.8-1.1C2189.8,1386,2188.3,1385.3,2186.9,1384.4z"/>
				</g>
				<g id="_Group_10">
					<path class="st1" d="M2195.9,1376c-2.1,0.4-4.2,1-6.2,1.8c-1,0.4-2,0.8-2.9,1.4c-0.5,0.3-0.9,0.6-1.2,1.1
						c-0.4,0.4-0.6,0.9-0.6,1.4c0.1-1.1,0.7-2.1,1.7-2.7c0.9-0.6,1.9-1.1,2.9-1.5C2191.6,1376.8,2193.7,1376.3,2195.9,1376z"/>
				</g>
				<g id="_Group_11">
					<path class="st1" d="M2210.9,1388c3.1-0.3,6.1-0.8,9.1-1.6c1.5-0.4,2.9-1,4.3-1.7c0.7-0.4,1.3-0.8,1.8-1.4
						c0.5-0.5,0.8-1.3,0.7-2c-0.2-0.7-0.6-1.4-1.2-1.8c-0.6-0.5-1.2-0.9-1.9-1.2c-1.4-0.7-2.8-1.2-4.3-1.6c-3-0.7-6.1-1.2-9.1-1.4
						c3.1,0.1,6.2,0.6,9.2,1.3c1.5,0.4,3,0.9,4.4,1.5c0.7,0.3,1.4,0.7,2,1.2s1.1,1.2,1.3,2c0.1,0.8-0.2,1.6-0.8,2.2
						c-0.5,0.6-1.2,1-1.9,1.4c-1.4,0.7-2.8,1.3-4.3,1.7C2217.1,1387.4,2214,1387.9,2210.9,1388z"/>
				</g>
			</g>
			<g id="_Group_12">
				<path class="st1" d="M2220,1381.2c-0.2-0.4-0.4-0.6-0.6-0.9c0.2,0,0.4,0.2,0.5,0.3C2220,1380.8,2220.1,1381,2220,1381.2z"/>
			</g>
			<g id="_Group_13">
				<path class="st1" d="M2208,1378c-4.1-0.1-8.2,0.2-12.2,1.1c-1,0.2-2,0.5-2.9,1c-0.4,0.2-0.9,0.6-1,1s0.3,0.9,0.7,1.1
					c0.9,0.5,1.8,0.9,2.8,1.1c1,0.3,2,0.5,3,0.6c-2.1-0.1-4.1-0.7-5.9-1.6c-0.4-0.3-0.9-0.7-0.8-1.3c0.2-0.5,0.6-0.9,1.1-1.2
					c0.9-0.5,1.9-0.8,2.9-1c2-0.4,4-0.7,6.1-0.8C2203.9,1378,2206,1377.9,2208,1378z"/>
			</g>
			<g id="_Group_14">
				<path class="st1" d="M2206,1384.4c0.9-0.1,1.9-0.1,2.8-0.2c0.9-0.1,1.8-0.1,2.8-0.2s1.8-0.2,2.8-0.3s1.8-0.3,2.7-0.5
					c-1.8,0.6-3.6,0.9-5.5,1.1c-0.9,0.1-1.9,0.2-2.8,0.2S2206.9,1384.5,2206,1384.4z"/>
			</g>
			<rect x="273.2" y="934.5" class="st0" width="2234" height="470"/>
		</g>
		<g>
			
				<linearGradient id="SVGID_1_" gradientUnits="userSpaceOnUse" x1="1491.6572" y1="-642.7999" x2="1491.6572" y2="-287.4267" gradientTransform="matrix(1 0 0 -1 -101.22 859.48)">
				<stop  offset="0" style="stop-color:#00373F"/>
				<stop  offset="0.49" style="stop-color:#5A9BA4"/>
				<stop  offset="0.84" style="stop-color:#94DBE6"/>
				<stop  offset="1" style="stop-color:#AAF4FF"/>
			</linearGradient>
			<path class="st2" d="M2382.8,1238.2c0,0-32.6,4.1-67.4,10.8c-15.3,2.9-43.9,4.9-57.4,8.7c-14.9,4.2-27.4,4.5-41.2,5.6
				c-26.9,2.1-37.8,3.3-37.8,3.3c-13.3-2.2-21.8-6.6-30.8-8.9c-20.9-5.2-33.2-7.6-33.2-7.6l-150-19.8c0,0-156-12.4-198-9.1
				c-34.3,2.7-170,2.4-218.6,2.2c-17.3,4.9-34.2,10-40.7,10c-13,0-55.6-9.3-55.6-9.3s-5.4-1.7-13.8-4c-19.7-0.6-39.8-1-57.4-1.3
				c-52.2-0.7-156,2.5-156,2.5s-152,19.8-216,17s-126,17.6-126,17.6s-74,32.2-108,22.3s-158-23.1-158-23.1s-94-5.8-112-14
				c-11.6-5.3-61.3-12.4-94.9-16.7c-20.6-2.6-41.3-3.8-62-3.7l-74.8,0.9v280.7h2234l0.5-271.7l-10.1,0.6L2382.8,1238.2z"/>
			
				<linearGradient id="SVGID_2_" gradientUnits="userSpaceOnUse" x1="1491.7198" y1="-642.7999" x2="1491.7198" y2="-287.4268" gradientTransform="matrix(1 0 0 -1 -101.22 859.48)">
				<stop  offset="0" style="stop-color:#00373F"/>
				<stop  offset="0.49" style="stop-color:#5A9BA4"/>
				<stop  offset="0.84" style="stop-color:#94DBE6"/>
				<stop  offset="1" style="stop-color:#AAF4FF"/>
			</linearGradient>
			<path class="st3" d="M2094.8,1158.9l-614-12l-728,22H596.1c-258.8-5.6-179.6-4.1-322.9,6.6v46.1l74.8-0.9
				c20.7-0.1,41.4,1.1,62,3.7c33.6,4.3,83.3,11.4,94.9,16.7c18,8.2,112,14,112,14s124,13.2,158,23.1s108-22.3,108-22.3
				s62-20.4,126-17.6s216-17,216-17s103.8-3.2,156-2.5c17.6,0.3,37.7,0.7,57.4,1.3c8.4,2.3,13.8,4,13.8,4s42.6,9.3,55.6,9.3
				c6.5,0,23.4-5.1,40.7-10c48.6,0.2,184.3,0.5,218.6-2.2c42-3.3,198,9.1,198,9.1l150,19.8c0,0,12.3,2.4,33.2,7.6
				c9,2.3,17.5,6.7,30.8,8.9c0,0,10.9-1.2,37.8-3.3c13.8-1.1,26.3-1.4,41.2-5.6c13.5-3.8,42.1-5.8,57.4-8.7
				c34.8-6.7,67.4-10.8,67.4-10.8l114.8-7.1l10.1-0.6l0.1-71.6H2094.8z"/>
			<path class="st4" d="M2094.8,1158.9l-614-12l-728,22H596.1c-258.8-5.6-179.6-4.1-322.9,6.6v46.1l74.8-0.9
				c20.7-0.1,41.4,1.1,62,3.7c33.6,4.3,83.3,11.4,94.9,16.7c18,8.2,112,14,112,14s124,13.2,158,23.1s108-22.3,108-22.3
				s62-20.4,126-17.6s216-17,216-17s103.8-3.2,156-2.5c17.6,0.3,37.7,0.7,57.4,1.3c8.4,2.3,13.8,4,13.8,4s42.6,9.3,55.6,9.3
				c6.5,0,23.4-5.1,40.7-10c48.6,0.2,184.3,0.5,218.6-2.2c42-3.3,198,9.1,198,9.1l150,19.8c0,0,12.3,2.4,33.2,7.6
				c9,2.3,17.5,6.7,30.8,8.9c0,0,10.9-1.2,37.8-3.3c13.8-1.1,26.3-1.4,41.2-5.6c13.5-3.8,42.1-5.8,57.4-8.7
				c34.8-6.7,67.4-10.8,67.4-10.8l114.8-7.1l10.1-0.6l0.1-71.6H2094.8z"/>
		</g>
		<path id="_Path_7" class="st5" d="M196,1476.1"/>
		<g id="_Group_15">
			<g id="_Group_16">
				<path class="st6" d="M1862.6,1216.2l-139.4,0.8l-139.4,0.6c-46.5,0.2-93,0.7-139.4,0.4s-93-0.7-139.4-1.8v-0.4
					c46.5-1.2,93-1.4,139.4-1.8s93,0.2,139.4,0.4l139.4,0.6l139.4,0.8V1216.2z"/>
			</g>
			<g id="_Group_17">
				<path class="st6" d="M1043.6,1182.7l159.7-1.2l159.7-0.9l79.8-0.6l39.9-0.2l39.9,0.1l39.9,0.3c13.3,0.2,26.6,0.3,39.9,0.5
					s26.6,0.5,39.9,0.7s26.6,0.6,39.9,1.1v0.6c-13.3,0.5-26.6,0.7-39.9,1.1s-26.6,0.5-39.9,0.7s-26.6,0.4-39.9,0.5l-39.9,0.3
					l-39.9,0.1l-39.9-0.2l-79.8-0.6l-159.7-0.5l-159.7-1.2V1182.7z"/>
			</g>
			<g id="_Group_18">
				<path class="st6" d="M1783,1182.8c9.8-0.3,19.5-0.5,29.3-0.8l29.3-0.6c9.8-0.2,19.5-0.7,29.3-0.4c4.9,0.1,9.8,0.3,14.6,0.6
					c4.8,0.3,9.8,0.6,14.6,1.2v0.4c-4.9,0.6-9.8,0.9-14.6,1.2s-9.8,0.5-14.6,0.6c-9.8,0.3-19.5-0.2-29.3-0.4l-29.3-0.6
					c-9.8-0.3-19.5-0.5-29.3-0.8V1182.8z"/>
			</g>
			<g id="_Group_19">
				<path class="st6" d="M1375,1234.1l-35.3,0.4l-35.3,0.3c-11.8,0.1-23.5,0.3-35.3,0.2s-23.5-0.3-35.3-0.9v-0.2
					c11.8-0.6,23.5-0.7,35.3-0.9s23.5,0.1,35.3,0.2l35.3,0.3l35.3,0.4V1234.1z"/>
			</g>
			<g id="_Group_20">
				<path class="st6" d="M1541,1251.1l-14,0.4l-14,0.3c-4.7,0.1-9.3,0.3-14,0.2s-9.3-0.3-14-0.9v-0.2c4.7-0.5,9.3-0.8,14-0.9
					s9.3,0.1,14,0.2l14,0.3l14,0.4V1251.1z"/>
			</g>
			<g id="_Group_21">
				<path class="st6" d="M1440,1260l-28,0.3c-4.7,0-9.3,0.2-14,0.1s-9.3-0.2-14-0.5v-0.1c4.7-0.3,9.3-0.4,14-0.5s9.3,0,14,0.1
					l28,0.3V1260z"/>
			</g>
			<g id="_Group_22">
				<path class="st6" d="M1168,1207.9l22.5-0.4l22.5-0.3c7.5-0.1,15-0.3,22.5-0.2c3.8,0.1,7.5,0.1,11.3,0.3l5.6,0.2
					c1.9,0.1,3.8,0.2,5.6,0.4v0.2c-1.9,0.2-3.8,0.2-5.6,0.4l-5.6,0.2c-3.8,0.2-7.5,0.2-11.3,0.3c-7.5,0.1-15-0.1-22.5-0.2l-22.5-0.3
					l-22.5-0.4V1207.9z"/>
			</g>
		</g>
		<path id="_Path_12" class="st7" d="M172,1191.5"/>
		<g id="_Group_23" class="st8">
			<path class="st9" d="M1512.9,1325c7.2,6.5,14.9,12.4,23,17.7c4,2.7,8.1,5.1,12.3,7.4c4.2,2.3,8.5,4.3,12.9,6s8.9,2.9,13.5,3.6
				l7.1,0.9c2.4,0.3,4.9,0.8,7.3,1.3c4.8,1,9.6,2.4,14.3,4.2c1.2,0.4,2.3,0.9,3.5,1.4s2.3,1.1,3.4,1.7c0.6,0.3,1.1,0.6,1.6,0.9
				s1.1,0.6,1.6,1c1.1,0.7,2.1,1.5,2.9,2.4l-0.4,0.4c-2.2-1-4.4-1.7-6.8-2.3c-2.3-0.6-4.7-1.1-7-1.6c-4.7-0.9-9.4-1.6-14.2-2.3
				l-7.1-1c-1.2-0.2-2.4-0.4-3.6-0.5s-2.5-0.4-3.8-0.7c-4.9-1.2-9.7-2.9-14.3-5c-9-4.1-17.4-9.3-25.2-15.4c-3.9-3-7.6-6.2-11.2-9.4
				c-3.6-3.3-7.1-6.7-10.4-10.3L1512.9,1325z"/>
		</g>
		<rect x="273.2" y="314.5" class="st0" width="2235" height="1078"/>
	</g>
</g>
</svg>
