<?xml version="1.0" encoding="utf-8"?>
<!-- Generator: Adobe Illustrator 19.0.0, SVG Export Plug-In . SVG Version: 6.00 Build 0)  -->
<svg version="1.1" id="Layer_1" xmlns="http://www.w3.org/2000/svg" xmlns:xlink="http://www.w3.org/1999/xlink" x="0px" y="0px"
	 viewBox="637 -93.7 2234.8 746.7" style="enable-background:new 637 -93.7 2234.8 746.7;" xml:space="preserve">
<style type="text/css">
	.st0{display:none;}
	.st1{display:inline;fill:#001A27;}
	.st2{fill:#21677B;}
	.st3{fill:#134C5B;}
	.st4{fill:#003A49;}
	.st5{fill:#002933;}
	.st6{fill:#001420;}
	.st7{display:none;fill:#1F3944;enable-background:new    ;}
	.st8{font-family:'ArialMT';}
	.st9{font-size:88.2028px;}
	.st10{letter-spacing:14;}
	.st11{display:inline;fill:#F2EAA9;}
	.st12{fill:#F2F2A5;}
</style>
<g id="Layer_3" class="st0">
	<rect id="XMLID_88_" x="1275.6" y="-704.7" class="st1" width="2232.7" height="1079.9"/>
</g>
<g id="Layer_1_1_">
	<g id="XMLID_40_">
		<polygon id="XMLID_41_" class="st2" points="1065.1,382.6 1058.5,380.9 1043.7,380.4 1043.6,382.4 		"/>
		<path id="XMLID_48_" class="st2" d="M2742.1,427.6l23.7-2.1l34.3-32.3l25.2-7.3l29.6-8.2l15.3-10.5l8.4-1.8v8l4.8-3.3l14.9-4.6
			l-2.8-93l-39.6,17.8l-8.2,10.1l-14.2,7.5l-21.3,10.5l-17.7,6l-8.9,4.5l-14.2,7.6c0,0-12.4,4.6-17.7,4.6s-14.3,0.1-14.3,0.1h-10.6
			l-7.2,9h-8.8c0,0,1.8,10.3,0,16.3c-1.4,4.6-7.9,9-10.9,10.9l27.9,58.4L2742.1,427.6z"/>
		<polygon id="XMLID_49_" class="st2" points="1864.9,409.3 1861.2,406.8 1842.2,402 1849.5,407.1 		"/>
		<path id="XMLID_54_" class="st2" d="M1935.1,441.8l28.4-1.4l9,5.8l24.8-5.7l6.8,20.1l2.8-6l26.1,13.2c0,0,0.8,1.2,2.1,3.2l0,0
			h30.8l18.9,11h23.7h30.8l23.7-11.4l18.9-19.6l56.8,10.5l11.6-14.5h16.6l33.1-16h23.7h26l8.6-17.9l19.1,3l22.7-20.4l21.4,4.1
			l9.3,7.2l18.8,12.2l28.9-7.4l17.5-0.8l20.5,0.3l15.3-9c0.6,0.3,1.4,0.2,1.9-0.3l0,0c0.5-0.4,1.1-0.5,1.7-0.4l28.9-2.8l13.2,0.9v-7
			c-2.6-1.2-12.5-5.7-17.1-5.7c-5.3,0-14.2-4.5-21.3-7.5s-24.8-9-24.8-9s-19.5-9-26.6-12s-25.5-10.1-25.5-10.1s-10.1-9-15.4-12
			c-5.3-3-18.9-16.5-18.9-16.5l-7.5,2.5l-12.9-4.4l-16.8-14.1l-8.3,3l-6.5,7l-19.4,6l-8.3,3.6l-11.4-5.1c0,0-12,3.1-19.1,6.1
			l-20.4,9.4c-6.4,0-28.5,5-29.6,5c-2.4,0-26.8-7.8-26.8-7.8l-11.4,7.8c-16.6-6-10.7-0.8-25.2-10c-3.2-2-22.5,13.3-22.5,13.3
			s-18.9-12.7-22.1-14c-3.2-1.3-15.8,0.9-15.8,0.9l-10.2-7.2c0,0-21.3,4-23.7,4.7c-2.4,0.7-22.9,10.3-22.9,10.3l-28.3-9l-8.8,1.7
			l-15.8,6.3l-9.5,13.3l-15,3.3l-12.6,10l-13.4,4l-13.4,8.7l-15,6.7l-12.6,10l-6.3,12l-16.6,8.1l-10.5,5.2l-2.3,0.4v13.3
			L1935.1,441.8z"/>
		<polygon id="XMLID_55_" class="st2" points="1017.1,368 1016.1,366.3 1013.7,366.2 1016.6,368.6 		"/>
		<path id="XMLID_56_" class="st2" d="M1805.2,376.7c-1.6-2.2-3.2-4.4-4.3-5.9c-3.5-4.5-10.7-10.5-10.7-10.5l-13.1,2.4l25,12
			L1805.2,376.7z"/>
		<path id="XMLID_57_" class="st2" d="M1385.8,468.3l26,2.3l35.5,11.5h35.5h28.4l30.9-28l12.7,2.4l22.3-26.6l14.6,25.6l16.7-1.5
			l14.2-6.2l26-8.2l28.4-2.1l51-34.7l28.4-13.9v-25.4l-8.2-3.7l-12.7,1l-21.1-10.5l-12.7,4.6l-11.3-2.6l-17.8-8.3l-27.1-3.2
			c0,0-13.7-9.3-17.1-5.5c-7.2,7.9-22.1,0-22.1,0l-17.4,8.7l-11.6,5.2l-22.1,3l-10.1,9.3l-18.9,0.8l-39,6l-4.1-3.4l-8.5,4l-12.5,3.3
			l-14.2,6.1l-16,9l-17.5,2.4l-14.5,9.6l-16,3l-17.7,3l-7.7,7.5l-2.1,3.2L1385.8,468.3z"/>
		<polygon id="XMLID_58_" class="st3" points="667.3,432.7 713.6,428 727.8,438.5 758.5,449.5 772.7,459.5 791.6,469.5 802,477.3 
			817.1,470.6 876.2,460.2 885.5,460.2 919.2,448.2 954.7,452.2 962.1,450.7 966.2,449.3 1006.4,433.2 1022.8,433.2 1041.1,435.9 
			1060.1,441.9 1079.1,426.2 1077.6,384.5 1073.5,382.2 1064.1,382.2 1047.5,382.2 1043.7,380.4 1017.1,368 1016.7,367.8 
			1014.5,366.2 990.7,349.4 945.8,328.7 919.7,316.2 900.8,316.2 853.5,332.7 808.5,345.1 766,357.2 739.9,357.2 713.9,372.2 
			697.3,372.2 680.8,372.2 655.3,379.3 649.8,430.2 		"/>
		<polygon id="XMLID_59_" class="st3" points="1242.9,464.4 1276.1,475.2 1313.8,480.5 1373.1,510.4 1418.1,510.4 1423,511.4 
			1434.5,511.4 1460.6,503.4 1498.4,491.4 1564.8,430.5 1554.6,413.8 1542,411.4 1513.6,433.2 1485.2,433.2 1449.7,433.2 
			1414.2,421.7 1388.2,419.4 1359.8,413.2 1358.5,412.8 1336.1,405 1310.1,400.9 1293.5,388.5 1279.3,361.8 1260.4,355.6 
			1241.5,374.7 1227,390 1224.5,413.2 		"/>
		<polygon id="XMLID_60_" class="st3" points="2875.8,316.2 2875.7,417.8 2898.7,395.2 2915.3,350.9 2915.3,280.9 2895.6,308.2 
			2895.6,308.2 2880.6,312.9 		"/>
		<path id="XMLID_61_" class="st3" d="M2353.5,501.1l37.9,2c0,0,28.4-12,35.5-12s86.6-11.1,86.6-11.1l30.8-15.8l-10.7-75.6
			l-19.2-8.4h-18.9h-18.9h-26l-18.8-12.2v-18.5l-21.4-4.1l-28.5,4.2l-28.4,8.3l-21.3,6.3h-26h-23.7l-33.1,16h-16.6l-11.8,14.5
			l-37.9,18.6l-18.9,19.6l-23.7,11.4h-30.7h-23.7l-18.9-11h-30.8l0,0c4.9,7.2,1.3,63.3,7.4,63.4c7.8,0.1,36,17.5,36,17.5h49.7
			c0,0,21.4,8,36.4,12h19.6c16-5.3,54.1-18,60.1-12.5c3.9,3.6,19.9,7.7,36,10.7l26.9-15.2L2353.5,501.1z"/>
		<polygon id="XMLID_62_" class="st3" points="2560.3,393.8 2570.8,436.5 2606.3,442.5 2648.9,444.5 2732.8,440.3 2756.5,431.3 
			2801.4,431.3 2830.1,414.5 2852.5,398.2 2869.8,344.4 2866.8,322.4 2851.5,332.9 2822.3,350.9 2797,358.2 2769.8,365.9 
			2746.2,368 2734,376.2 2702,377.4 2698.5,377.5 2677.2,382.2 2637,384.2 2606.6,380.4 2577.4,393 2573.5,394.7 		"/>
		<polygon id="XMLID_63_" class="st3" points="1707.6,388.5 1676.8,394.7 1648.4,396.8 1622.4,405 1608.2,411.2 1591.5,412.8 
			1589.6,417.9 1619.8,463 1643.5,488.6 1674.2,500.6 1702.6,508.6 1736.3,504.6 1744.1,511 1775.8,505.3 1830.9,511.6 1864,511.6 
			1865.8,510.4 1866.2,510.6 1894.8,497.6 1930.5,479 1998.6,446.3 1998.6,422.2 1991.5,415.5 1967.8,403 1951.3,409.2 
			1932.3,409.2 1913.4,419.4 1906.8,417.9 1877.9,411.2 1864.9,409.3 1849.5,407.1 1842.2,402 1825.9,390.6 1805.2,376.7 
			1802.2,374.7 1777.2,362.7 1766.7,357.7 1756.2,363.5 1736,374.7 		"/>
		<polygon id="XMLID_64_" class="st4" points="623.1,437.3 643,451 643.1,381.9 630.6,376 604.5,365.7 603.9,652.2 623.7,652.2 		
			"/>
		<path id="XMLID_65_" class="st4" d="M2876.6,306.9l-9.8,15.5l-7.5,11.8l-23.7,20l-28.4,11.5l-23.7,21.5h-45l-23.7,9l-52,12
			l-42.6-2l-35.5-6l-24.5-6.4l-25.2-6.6l-1.6,1.4l-31.5,27.6l-30.8,15.8c0,0-21.3,20.2-28.4,20.2c-7.1,0-35.5,12-35.5,12l-37.9-2
			l-45,8l-26.9,15.2c-1.3,14.5-6.4,42.9,0,42.8c14.2-0.2,47.4,7.8,59.2,11.8s42.6,14,42.6,14h42.6h47.4h33.2l28.4,20h40.3l26.1-10
			l26.1-10l33.2-14l80.7,15.2c0,0,21.3-6,30.8-10s30.8-18.5,30.8-18.5l23.7-34.8l34.1-10.1v-64V316.4L2876.6,306.9L2876.6,306.9z"/>
		<polygon id="XMLID_66_" class="st4" points="1704.7,472.2 1676.3,464.2 1645.6,452.2 1621.9,426.6 1593.5,416.2 1591.5,412.8 
			1576.9,387.2 1554.6,413.8 1543.8,426.6 1503.6,456.2 1465.8,468.2 1439.7,476.2 1428.2,476.2 1428.2,534.2 1537.1,530.7 
			1570.3,516.2 1596.3,530.7 1634.2,530.7 1662.6,530.7 1777.1,491.1 1738.4,468.2 		"/>
		<polygon id="XMLID_67_" class="st4" points="1866.1,475.2 1866.1,475.2 1868.3,474.2 1867.9,474 		"/>
		<polygon id="XMLID_68_" class="st4" points="782,408.2 767.8,398.2 737.1,387.2 722.9,376.7 687.4,387.2 664.9,387.2 657.8,430.2 
			727.1,448.5 817.1,460.2 811.3,426 800.9,418.2 		"/>
		<path id="XMLID_69_" class="st4" d="M2195.3,489.2c1.1-0.3,3.3-1,6.2-2h-19.6C2188.2,488.8,2193.3,489.8,2195.3,489.2z"/>
		<polygon id="XMLID_72_" class="st4" points="1030.4,400.2 1022.8,403.2 1044.3,403.2 1055.8,396.8 1047,400.2 		"/>
		<polygon id="XMLID_73_" class="st4" points="919.2,418.2 885.5,430.2 935.4,430.2 962.1,420.7 954.7,422.2 		"/>
		<path id="XMLID_74_" class="st5" d="M665.7,508.5l21.3,16.7h28.4l18.9,14l27-4l22.7,30h21.3H829l28.4-20l28.7-24l23.7,4l28.1,16
			l30.8,4l18.9,20h16.6h35.5l14.2,20.1l18.9,8.9h23.7l18.9,9l16.6,10h37.9h35.5l28.4,16c0,0,26,8,33.1,0s18.9-14,18.9-14l40.2-6
			h33.1c0,0,23.7-14.3,30.8-15.2c7.1-0.9,26-18.8,26-18.8l16.6-10l16.6-9.2l16.1,9.8l29.9,0.5l8.4,4.9l16.6,22.8l18.9,9.2l16.6,2
			l28.4,4l28.4,12l14.2,11.6l28.4,5.9c0,0,16.6,12.5,26,14.5c9.5,2,28.4-4,35.5,0s43.8-3.2,43.2,0.4c-0.6,3.6,25.4,0.8,25.4,0.8
			s18.9-12.3,26-15.8s21.3-9.5,30.8-9.5s35.5-2,47.3-2s28.4,0,42.6,2s28.4,11,37.9,9.5s26,1.5,35.5,0s45,9.5,59.1,0
			s35.5-15.4,42.6-17.4s47.3-27.1,47.3-27.1h33.1c0,0,21.3-5,33.1-9s18.9-21.7,28.4-17.9c9.5,3.8,21.3-0.1,21.3-0.1h37.9l30.8,26.8
			c0,0,23.7,21.2,30.8,25.2s26,8,40.2,10s40.2,13,56.8,9.5s61.5-15.5,61.5-15.5l26-16c0,0,4.7-20.3,30.8-13.2
			c26.1,7.1,52,9.2,52,9.2s35.5-2.3,45-9.2s21.3-10.8,28.4-12.8s10.3-8,26.8-10s25.2-19.8,32.3-14c0,0,9.5-3.2,21.3-5.3
			c11.8-2.2,18.9-6.7,18.9-6.7l19.7-10l36.3-26.7l31.5-56.3l-0.3,200h20.8l0.4-307.7l-2.4,6.4l-16.6,44.3l-23,22.6l-12.5,12.3
			l-33.2,9.8l-23.7,34.8c0,0-21.3,14.5-30.8,18.5s-30.8,10-30.8,10l-35.5-2l-33.2,14l-26.1,10l-26.1,10h-40.3l-28.4-20h-33.2h-47.4
			h-42.6c0,0-30.8-10-42.6-14s-45-12-59.2-11.8c-6.4,0.1-19.6-1.6-32.7-4c-16-3-32.1-7.1-36-10.7c-6-5.5-44.1,7.2-60.1,12.5
			c-2.9,1-5.1,1.7-6.2,2c-2.1,0.6-7.2-0.4-13.3-2c-15-4-36.4-12-36.4-12H2096c0,0-28.2-17.4-36-17.5c-6.2-0.1-18.5-17.3-23.4-24.5
			c-1.3-1.9-2.1-3.2-2.1-3.2l-26.1-13.2l-9.6,5.3l-14.1,7.8l-51.9,12.6l-35.7,18.6l-28.6,13l-2.2,1l0,0h-33.1l-55.1-6.3l-31.7,5.7
			l-81.6,14.8h-28.4h-37.9l-26.1-14.5l-33.1,14.5h-47.4l-63.8-13l-4.9-1h-45l-59.2-29.9l-37.9-15.3l-33.1-10.8l-14.2-28l-6.8-1.2
			l-21-3.5l-19.6-19.3l-23.7-22.7l-33.1,16.7l-42.6,18l-9.4,5.3l-21.8,12.3l-11.4,6.4h-21.6h-16.4l-40.3,16.1l-4.1,1.5l-26.7,9.5
			h-49.9H876l-49.7-10.9l-15.1,6.7l-25,11.1l-47.4-16l-49.7-14l-24.2-20l-9.6-7.9l-18.2-15.1v12.7V488L665.7,508.5z"/>
		<path id="XMLID_75_" class="st6" d="M2865.2,469.5l-36.3,26.7l-19.7,10c0,0-7.1,4.5-18.9,6.7c-11.8,2.2-21.3,5.3-21.3,5.3
			c-7.1-5.8-15.8,12-32.3,14s-19.7,8-26.8,10s-18.9,6-28.4,12.8s-45,9.2-45,9.2s-26-2-52-9.2s-30.8,13.2-30.8,13.2l-26,16
			c0,0-45,12-61.5,15.5s-42.6-7.5-56.8-9.5s-33.1-6-40.2-10c-7.1-4-30.8-25.2-30.8-25.2l-30.8-26.8h-37.8c0,0-11.8,3.9-21.3,0.1
			s-16.6,13.9-28.4,17.9c-11.8,4-33.1,9-33.1,9h-33.2c0,0-40.2,25.1-47.3,27.1s-28.4,7.9-42.6,17.4c-14.2,9.5-49.7-1.5-59.1,0
			c-9.5,1.5-26-1.5-35.5,0s-23.7-7.5-37.9-9.5c-14.2-2-30.8-2-42.6-2c-11.8,0-37.9,2-47.3,2c-9.5,0-23.7,6-30.8,9.5
			c-7.1,3.5-26,15.8-26,15.8s-26,2.7-25.4-0.8c0.6-3.6-36.1,3.6-43.2-0.4s-26,2-35.5,0s-26-14.5-26-14.5l-28.4-5.9l-14.2-11.6
			l-28.4-12l-28.4-4l-16.6-2l-18.9-9.2l-16.5-22.9l-8.4-4.9l-29.9-0.5l-16.1-9.8l-16.6,9.2l-16.6,10c0,0-18.9,18-26,18.8
			s-30.8,15.2-30.8,15.2h-33l-40.2,6c0,0-11.8,6-18.9,14s-33.1,0-33.1,0l-28.4-16h-35.5h-37.9l-16.6-10l-18.9-9h-23.7l-18.9-8.9
			l-14.2-20.1H1004h-16.6l-18.9-20l-30.8-4l-33.1,2l-23.7-4l-23.7,6l-28.4,20h-23.7h-21.3l-16.6-16l-33.1-10l-18.9-14H687
			l-21.3-16.7L643,454l-19.9-13.7l0.5,214.9h2272.8l0.3-242L2865.2,469.5z"/>
	</g>
</g>
<g id="Layer_2">
	<g id="XMLID_9_">
		<path id="XMLID_34_" d="M1946.2,501.7c0,0-0.7-36.2-0.8-39.1c-0.1-3-5.5-3.2-5.5-3.2l-0.4-13.1h-0.4l-0.5,13.4
			c0,0-0.5,11.7,0,24.1c0.4,12.4-3.1,11.7-3.1,11.7s-0.9,8.2,0,7.3c0.9-0.9,9.9-1.2,9.9-1.2C1946,501.5,1946.2,501.7,1946.2,501.7z"
			/>
		<path id="XMLID_13_" d="M1966.8,631.1c0,0-7.6-27.8-10.2-34.2c0,0-8.7-31.3-11.3-54.4c0,0-2.2-0.8,11.5-10c0,0,1.6-0.9,1.2-8
			c0,0-2.1-4,4.7-9.6c0,0,1-0.3,1.3-5.6c0,0,5.8-32.1,5-47c0,0-4.1-42-19.8-69.1c0,0-3.1-7.2-13-10.2c0,0-12-3.5-13-3.5
			c0,0-2.5-0.7-6.7-9.9c0,0-1.7-1.5,1.1-8.5c0,0,2.7-16-1.8-26c0,0-5.3-10.9-19.6-7.4c0,0-7.5,0.6-12.9,13.5c0,0-4.3,10.9-1.3,19.5
			c0,0,0.5,1.6,1.3,1.8c0.8,0.2,2.4,2.3,0.3,3.7c0,0-5.8,5.7-6.9,7.7s-6.9,4.1-6.9,4.1s-12.6,5.8-14.8,8.1c-2.2,2.2-4.9,2.5-6.4,6.4
			c-1.5,3.8-6.6,9.5-9.7,22.2c-3.1,12.6-9.8,22.8-11.1,47c0,0-0.7,6.2-4.7,20.6c0,0-3.1,20.6-2.9,39.9c0,0,0.4,10.6-7.5,7.5
			c0,0-21.4-4.2-22.1-5.3c-4.8-8.4-9.6-11.9-9.6-11.9c-3.4-4.4-4.3-18.2-4.3-18.2c-0.6-10.4-5.8-11.1-5.8-11.1
			c-10.6-5-10.2-8.1-10.2-8.1c1.2-13.5-1.7-13.5-1.7-13.5c-2.1-0.6-2.6-1.8-2.6-1.8c3-6.2,1.5-15.1,1.5-15.1
			c-2.2-9-11.1-15.7-11.1-15.7c-17.2-8.9-23.2,12.3-23.2,12.3c-5,12.4-1.2,23.1-1.2,23.1c1.8,1.8,2.2,3.8-0.2,4.9
			c-2.4,1.1-7.1,4.9-7.1,4.9c-4,3.5-10.9,7.3-10.9,7.3c-6.4,3.1-6,6-4.7,7.5s0.9,3.5,0.9,3.5c-13.3,44.6-20.2,47.7-20.2,47.7
			c-10.7-14.4-24-77.9-24-77.9c-7.1-26.8-11.3-23.7-11.3-23.7c-2,0-4.7-1.3-4.7-1.3c-4.9-3.1-1.3-11.1-1.3-11.1
			c2-8.2-1.6-24.2-1.6-24.2c-3.8-10.4-16.2-12.4-16.2-12.4c-21.3-0.7-22.8,19.1-23.3,20.8c-0.5,1.7-10.9,26.8-10.9,26.8
			c-3.1,2.7-6.4,3.3-6.4,3.3c-9.3-3.1-10.2,6.4-10.2,6.4l-1.7,1.6c-3.3,5.3-19.4,42.1-19.4,42.1c-8.5,13.7-1.1,17.8-1.1,17.8
			c1.6,3.4,17.3,20.5,17.3,20.5c4.2,2.6,2.9,5.1,2.9,5.1c-6.5,34.6-10.6,39.2-10.6,39.2c-5.5,8.4,0,9.5,0,9.5
			c8.4,3.8,7.3,7.8,7.3,7.8c2.7,22.2-2,52-2,52.7s-1.8,11.9-1.8,11.9h28.2c0.4-8.5,8.9-56.7,8.9-56.7c2.7-16.2,5.8-6.6,6.9,1.4
			s1.1,24.3,1.1,24.3c-0.2,1.3-2.4,31-2.4,31h26c2.2-35.4,3.1-34.3,3.1-34.3c4.2-9.1,6-27.5,6-27.5c0.7-6.3,3.2-4.8,3.2-4.8
			c3.9-11.9,5.1-6.9,5.1-6.9c-0.4-17.5,2.7-36.5,2.7-36.5c-0.4-2.4-1.8-8-1.1-10c0.7-2,0.4-7.8,0.4-7.8c-4-10.9,0-8.2,0-8.2
			c0.9,3.1,6.4,15.5,6.4,15.5s2.9,2.4,3.1,3.1s1.8,6,1.8,6c9.3,18.4,4.9,17.7,4.9,17.7c-2.9,2.9-2.4,7.3-2.4,7.3
			c0.4,2.7,3.3,4.9,3.3,4.9c1.6-0.2,3.3,2.9,3.3,2.9c2.2,2.4,5.3,2.4,5.3,2.4c4.9,2.4,5.8-1.3,5.8-1.3c0.2-3.3,4.4-14.4,4.4-14.4
			c2.9-5.1,12.6-19.1,12.6-19.1c10.9-13.3,7.3-3.5,7.3-3.5c-1.3,2.7-4.7,12.2-4.7,12.2c-2,10.9-0.7,18.9-0.7,18.9
			c1.1,11.5,0.8,34.6,0.8,34.6c0.6,0.1-6.4,48.8-6.4,48.8h62.4c0.4-5,1.5-35.8,1.5-35.8c0-17,1-13.6,1-13.6
			c16,1.9,15.1-2.3,15.1-2.3c-3.1-19.8-3.5-59.4-3.5-59.4c-0.3-16.6,1.3-13.2,1.3-13.2c10.5,8.7,28.4,13.1,28.4,13.1
			c4.9,3.5,30.8,1.9,30.8,1.9c0.9,0.1,4.9,0.1,3.3-1.8c-1.6-1.9,0.4-3.7,0.4-3.7s6.7,1.6,6-7.1l-0.4-11.5c0,0-2.4-5.3-2.4-6.4
			l0.7-9.8l5.5-8l11.3-42.1l-0.5,17.7l-2.7,2v20.4l4.2,2.2l-0.9,2.9l-2.6,22l1.7,4c0,0-0.1,62.1,3.4,71.2c0,0-0.6,4.7-2.4,9.5
			l-0.4,9.8c0,0,0.9,2.9,1.1,6.2c0.2,3.3,0,26.6,0.9,30.2l30.4,0.4l2.7-17.3c0,0,0.4-7.1,3.1-12.4c0,0,1.3-5.3,0.4-12.9
			c-0.9-7.5,1.3-29.3,7.5-49.2l25.7,53.7c0,0,6.5,18,9.3,21s2.8,6.7,2.8,6.7l3.3,10.1l30,0.4l-4.5-13.5
			C1968.4,640.5,1967.5,636.7,1966.8,631.1z M1577.1,496.7c-0.1,1.3-2.8,10.2-2.8,10.2c-2.4,0.1-2.7-0.7-4-1.8c-1.3-1-0.7-4.6,0-5.6
			s2.8-6.9,2.7-7.7c-0.1-0.7,3.2-7.4,3.2-7.4s1.4,3.5,1.8,4.1C1578.4,489.2,1577.2,495.4,1577.1,496.7z M1935.4,502.8
			c-0.9,0.9,0-7.3,0-7.3s3.6,0.7,3.1-11.8c-0.4-12.4,0-24.1,0-24.1l0.5-13.4h0.4l0.4,13.1c0,0,5.3,0.3,5.5,3.2
			c0.1,3,0.8,39.1,0.8,39.1s-0.1-0.1-0.8-0.1C1945.4,501.6,1936.3,501.9,1935.4,502.8z"/>
	</g>
	<text id="XMLID_1677_" transform="matrix(1 0 0 1 1460.1528 91.5719)" class="st7 st8 st9 st10">MATARIKI</text>
	<g id="XMLID_14_" class="st0">
		<circle id="XMLID_70_" class="st11" cx="1915.3" cy="-133.3" r="5.5"/>
		<circle id="XMLID_38_" class="st11" cx="1598.6" cy="-116" r="3.8"/>
		<circle id="XMLID_37_" class="st11" cx="1723.8" cy="-132.8" r="4"/>
		<circle id="XMLID_36_" class="st11" cx="1891.8" cy="-247.8" r="4"/>
		<circle id="XMLID_35_" class="st11" cx="1920.7" cy="-190.9" r="2.9"/>
		<circle id="XMLID_15_" class="st11" cx="1844.5" cy="-217.1" r="3.7"/>
		<circle id="XMLID_71_" class="st11" cx="1807.8" cy="-77.8" r="2"/>
	</g>
</g>
<g id="XMLID_1_">
	
		<image style="overflow:visible;" width="375" height="223" xlink:href="B4CE6D86.png"  transform="matrix(1 0 0 1 1571.844 -94.2187)">
	</image>
	<g>
		<g>
			<circle id="XMLID_129_" class="st12" cx="1915.3" cy="47.9" r="7.5"/>
			<circle id="XMLID_128_" class="st12" cx="1598.7" cy="65.2" r="5.8"/>
			<circle id="XMLID_127_" class="st12" cx="1723.8" cy="48.4" r="6"/>
			<circle id="XMLID_126_" class="st12" cx="1891.9" cy="-66.6" r="6"/>
			<circle id="XMLID_125_" class="st12" cx="1920.7" cy="-9.7" r="4.9"/>
			<circle id="XMLID_124_" class="st12" cx="1844.5" cy="-35.9" r="5.7"/>
			<circle id="XMLID_123_" class="st12" cx="1807.8" cy="103.4" r="4"/>
		</g>
	</g>
</g>
</svg>
