<?xml version="1.0" encoding="utf-8"?>
<!-- Generator: Adobe Illustrator 19.0.0, SVG Export Plug-In . SVG Version: 6.00 Build 0)  -->
<svg version="1.1" xmlns="http://www.w3.org/2000/svg" xmlns:xlink="http://www.w3.org/1999/xlink" x="0px" y="0px"
	 viewBox="812 -1794 2235.3 4380" style="enable-background:new 812 -1794 2235.3 4380;" xml:space="preserve">
<style type="text/css">
	.st0{display:none;}
	.st1{display:inline;}
	.st2{fill:#233044;}
	.st3{display:inline;fill:#243042;}
	.st4{fill:#356170;}
	.st5{display:inline;fill:#192230;}
	.st6{display:inline;fill:none;stroke:#FFFFFF;stroke-miterlimit:10;}
	.st7{fill:#1A1A1A;}
</style>
<g id="Layer_1">
	<g id="Layer_1_2_">
		<g id="Layer_2">
		</g>
		<g id="Layer_3" class="st0">
			<g id="XMLID_1562_" class="st1">
				<path id="XMLID_1561_" class="st2" d="M4389,1907.2c0,0,0-1.6,0.1-4.5c0-1.4,0.1-3.2,0.2-5.3c0.1-2,0.4-4.3,0.8-6.8
					s0.9-5.1,1.4-7.8c0.5-2.8,1.1-5.7,1.6-8.7c0.5-2.9,0.7-6,0.8-9.2c0.1-3.1-0.1-6.4-0.5-9.5c-0.4-3.2-1-6.3-1.9-9.4
					c-0.2-0.8-0.4-1.5-0.7-2.3c-0.2-0.8-0.5-1.5-0.7-2.2c-0.3-0.7-0.5-1.5-0.8-2.2c-0.2-0.8-0.4-1.6-0.6-2.3c-0.7-3.1-0.7-6.2-0.2-9
					c0.2-1.4,0.6-2.8,1-4.1c0.4-1.3,1-2.5,1.4-3.6c3.8-9,6.4-15.1,6.4-15.1s-2.3,6.1-5.6,15.3c-0.4,1.2-0.9,2.3-1.2,3.6
					c-0.4,1.2-0.6,2.6-0.8,3.9c-0.3,2.7-0.1,5.6,0.6,8.5c0.2,0.7,0.4,1.4,0.7,2.1c0.3,0.7,0.6,1.4,0.9,2.2c0.3,0.7,0.6,1.5,0.9,2.3
					c0.3,0.8,0.5,1.5,0.8,2.3c1,3.1,1.8,6.3,2.4,9.6c0.6,3.3,0.9,6.6,1,9.9c0.1,3.3,0,6.5-0.4,9.7c-0.4,3.1-0.8,6-1.2,8.8
					c-0.4,2.8-0.8,5.5-1,7.8c-0.3,2.4-0.4,4.6-0.4,6.5c-0.1,1.9,0,3.6,0,5c0.1,2.9,0.1,4.5,0.1,4.5H4389L4389,1907.2z"/>
			</g>
			<g id="XMLID_1565_" class="st1">
				<path id="XMLID_1564_" class="st2" d="M4416.8,1926.1c0,0,0-1.7,0.1-4.6c0-0.7,0-1.6,0.1-2.4c0-0.4,0-0.9,0-1.4v-0.4
					c0-0.4,0-0.2,0-0.6c0-0.2,0.1-0.5,0.1-0.8c0.3-2,0.5-4.3,0.9-6.9c0.3-2.5,0.7-5.2,0.9-8.1c0.3-2.9,0.4-5.9,0.6-9
					c0.1-3.1,0.1-6.3,0-9.7c0-3.4,0.1-6.8,0.4-10.2c0.3-3.4,0.8-6.8,1.5-10.1c0.7-3.3,1.5-6.5,2.3-9.5c0.8-3.1,1.6-6.1,2.2-8.8
					c0.5-2.8,1.1-5.5,1.5-8c0.2-1.2,0.5-2.4,0.7-3.6c0.2-1.1,0.3-2.2,0.3-3.2c0-2-0.2-3.8-0.6-5.2c-0.6-2.9-1-4.5-1-4.5
					s0.4,1.6,1.2,4.5c0.4,1.4,0.7,3.2,0.8,5.3c0,1,0,2.1-0.2,3.3c-0.2,1.1-0.3,2.3-0.5,3.6c-0.4,2.5-0.7,5.2-1.2,8.1s-1.2,5.9-1.8,9
					c-0.6,3.1-1.3,6.3-1.8,9.5c-0.5,3.2-0.8,6.6-1,9.9s-0.1,6.7,0,9.9c0.2,3.3,0.4,6.6,0.4,9.8c0,3.2,0,6.3-0.1,9.2
					s-0.3,5.7-0.5,8.2s-0.4,4.8-0.5,6.9c0,0.3,0,0.5-0.1,0.8c0,0.2,0,0.3,0,0.5c0,0.5,0,0.9,0,1.4c0,0.9,0,1.7,0.1,2.4
					c0.1,3,0.1,4.6,0.1,4.6L4416.8,1926.1L4416.8,1926.1z"/>
			</g>
			<g id="XMLID_1568_" class="st1">
				<path id="XMLID_1567_" class="st2" d="M4488.6,1922.2l0.2-8v0.3l-0.4-4.9c-0.2-1.7-0.3-3.3-0.4-5c-0.2-3.4-0.2-6.8,0-10.1
					c0.2-3.4,0.5-6.7,1.1-10c0.5-3.3,1.3-6.6,2-9.8c0.4-1.6,0.8-3.2,1.1-4.8c0.3-1.5,0.5-3.2,0.5-4.8c0-1.6-0.1-3.2-0.3-4.8
					s-0.7-3.1-1.1-4.8c-0.4-1.6-0.7-3.3-1-4.9l-0.7-4.9l-1.4-9.8l2,9.7l1,4.9c0.3,1.6,0.7,3.2,1.2,4.8c0.5,1.5,1.1,3.2,1.4,4.8
					c0.4,1.7,0.6,3.4,0.7,5.1c0.1,1.7,0,3.4-0.2,5.1s-0.6,3.3-0.8,4.9c-0.6,3.3-1.1,6.5-1.5,9.7c-0.3,3.2-0.5,6.5-0.5,9.8
					c0,3.3,0.2,6.5,0.5,9.7c0.2,1.6,0.4,3.2,0.6,4.8l0.7,4.9v0.1v0.2l0.2,8h-4.9L4488.6,1922.2L4488.6,1922.2z"/>
			</g>
			<g id="XMLID_1571_" class="st1">
				<path id="XMLID_1570_" class="st2" d="M4355.2,1907.2h-5l0,0l0,0l0,0c0,0,0,0,0-0.1c0-0.1,0-0.1,0-0.2c0-0.2,0-0.5,0-0.9
					c0-0.8,0.1-1.9,0.2-3.4c0.2-2.9,0.7-7,1.9-11.8c0.6-2.4,1.2-4.8,1.6-7.4s0.7-5.5,0.8-8.4c0.1-2.9-0.1-6-0.2-9.2
					c-0.1-3.3,0.5-6.8,1.8-9.9c0.6-1.5,1.2-3,1.8-4.4c0.6-1.5,1.2-2.9,1.7-4.4c1-2.9,1.8-5.9,2.3-8.8c0.2-1.4,0.4-2.9,0.6-4.4
					c0.2-1.4,0.4-2.8,0.7-4.2c0.6-2.7,1.5-5.2,2.6-7.4s2.4-4,3.6-5.5s2.3-2.8,3.2-3.9c1.8-2.2,2.8-3.4,2.8-3.4s-0.9,1.3-2.6,3.6
					c-0.8,1.1-1.8,2.5-3,4.1c-1.1,1.6-2.3,3.4-3.2,5.6c-1,2.2-1.8,4.6-2.2,7.3c-0.2,1.3-0.3,2.7-0.5,4.2c-0.1,1.4-0.3,2.9-0.4,4.4
					c-0.4,3-1,6.1-1.9,9.2c-0.5,1.5-1,3.1-1.6,4.6c-0.5,1.5-1.1,3-1.6,4.5c-1,2.9-1.4,5.9-1.2,8.8c0.1,1.6,0.3,3.1,0.4,4.6
					c0.1,1.6,0.2,3.1,0.3,4.7c0.1,3.1-0.1,6.1-0.4,8.9c-0.3,2.8-0.8,5.5-1.3,7.8c-0.9,4.6-1.2,8.5-1.3,11.2c0,1.4,0,2.4,0,3.1
					c0,0.4,0,0.6,0,0.8C4355.2,1907,4355.2,1907,4355.2,1907.2C4355.2,1907.1,4355.2,1907.1,4355.2,1907.2
					C4355.2,1907.1,4355.2,1907.2,4355.2,1907.2L4355.2,1907.2L4355.2,1907.2h-5H4355.2z"/>
			</g>
			<g id="XMLID_1578_" class="st1">
				<path id="XMLID_1575_" class="st2" d="M4434.9,1936.7c0,0,0-1.2,0.1-3.4c0-1.1,0.1-2.4,0.1-3.9c0-0.4,0-0.8,0-1.2s0-0.8,0-1.2
					c0-0.8,0-1.6-0.1-2.5c0-0.4-0.1-0.9-0.1-1.3c-0.1-0.5-0.1-1-0.2-1.5c-0.1-1-0.2-2-0.3-3.1c-0.2-2.1-0.6-4.2-0.6-6.7
					c-0.1-2.4,0.1-4.9,0.5-7.4s1.1-5,1.9-7.3c0.2-0.6,0.5-1.2,0.7-1.8l0.7-1.7c0.4-1.1,0.8-2.2,1.1-3.3c0.6-2.3,0.9-4.6,1-6.8
					c0.1-2.2-0.2-4.4-0.6-6.4s-1-3.9-1.5-5.7c-2-7.1-3.3-11.8-3.3-11.8s1.6,4.6,4,11.6c0.6,1.8,1.3,3.6,1.9,5.7
					c0.6,2.1,1,4.3,1.1,6.7s-0.1,4.8-0.6,7.3c-0.2,1.2-0.6,2.4-1,3.7l-0.6,1.7c-0.2,0.6-0.4,1.1-0.6,1.7c-0.7,2.3-1.1,4.6-1.4,6.9
					c-0.2,2.3-0.2,4.6,0,6.8c0.2,2.1,0.7,4.3,1,6.4c0.2,1,0.4,2,0.5,3c0.1,0.5,0.2,1,0.3,1.4c0.1,0.5,0.2,1,0.2,1.5
					c0.1,1,0.2,1.9,0.3,2.8c0,0.4,0,0.9,0.1,1.3c0,0.4,0,0.8,0,1.2c0,1.5,0.1,2.8,0.1,3.9c0.1,2.1,0.1,3.4,0.1,3.4H4434.9
					L4434.9,1936.7z"/>
			</g>
			<g id="XMLID_1585_" class="st1">
				<path id="XMLID_1584_" class="st2" d="M4426.1,1903.6c0,0,0-1,0.1-2.8c0-0.9,0.1-2.1,0.2-3.4c0.2-1.3,0.4-2.8,0.8-4.3
					s0.9-3,1.4-4.7c0.5-1.6,1-3.4,1.5-5.1c0.4-1.7,0.7-3.5,0.7-5.4c0.1-1.9-0.1-3.8-0.4-5.7c-0.2-1-0.3-2-0.5-3l-0.2-1.5
					c-0.1-0.5-0.2-1-0.2-1.5c-0.2-2.1-0.2-4.1,0-6c0.4-3.9,1.5-7.3,2.8-10.1c0.7-1.4,1.4-2.6,2-3.6s1.2-1.9,1.7-2.7
					c0.9-1.5,1.5-2.3,1.5-2.3s-0.5,0.9-1.3,2.4c-0.4,0.8-0.9,1.7-1.5,2.8s-1.2,2.3-1.7,3.7c-1.1,2.8-1.9,6.2-1.9,9.8
					c0,1.8,0.1,3.7,0.5,5.6s0.9,3.8,1.4,5.8s0.8,4.1,0.9,6.2s0,4.1-0.3,6.1s-0.8,3.7-1.1,5.4c-0.4,1.7-0.7,3.3-1,4.7
					c-0.3,1.4-0.4,2.6-0.4,3.8c-0.1,1.1,0,2.1,0,3c0.1,1.8,0.1,2.8,0.1,2.8H4426.1L4426.1,1903.6z"/>
			</g>
			<g id="XMLID_1588_" class="st1">
				<path id="XMLID_1587_" class="st2" d="M4460.1,1915c0,0,0-1.4,0.1-3.9c0-1.1,0-2.5-0.2-4.1c-0.1-0.8-0.2-1.6-0.4-2.6
					c-0.2-0.9-0.4-1.9-0.5-3c-0.4-2.1-0.8-4.3-1.2-6.7c-0.2-1.2-0.4-2.4-0.7-3.7c-0.1-0.6-0.2-1.3-0.3-1.9c-0.1-0.7-0.2-1.4-0.3-2.1
					c-0.3-2.8-0.3-5.6,0.1-8.5c0.2-1.4,0.4-2.9,0.8-4.3c0.3-1.4,0.7-2.7,1-4.1c0.6-2.7,1-5.4,1.1-8.1c0.2-2.7,0.1-5.4-0.1-8
					c-0.2-2.6-0.7-5.1-1.2-7.4c-0.6-2.3-1.3-4.5-1.9-6.5c-2.4-8.1-4-13.5-4-13.5s1.9,5.3,4.8,13.3c0.7,2,1.5,4.1,2.2,6.5
					c0.7,2.3,1.3,4.9,1.7,7.5c0.4,2.7,0.6,5.4,0.6,8.3c0,2.8-0.3,5.7-0.7,8.6c-0.3,1.4-0.5,2.8-0.8,4.1c-0.2,1.3-0.4,2.7-0.5,4
					c-0.2,2.7,0,5.3,0.4,7.8c0.1,0.6,0.2,1.2,0.3,1.8c0.1,0.6,0.3,1.2,0.4,1.9c0.3,1.2,0.6,2.5,0.9,3.6c0.6,2.4,1.1,4.6,1.6,6.7
					c0.2,1,0.5,2,0.7,3c0.2,0.9,0.4,1.9,0.6,2.8c0.3,1.8,0.4,3.4,0.5,4.7c0.1,2.5,0.1,3.9,0.1,3.9L4460.1,1915L4460.1,1915z"/>
			</g>
			<g id="XMLID_1591_" class="st1">
				<path id="XMLID_1590_" class="st2" d="M4444.3,1909.7c0,0,0-1.7,0.1-4.6c0-1.5,0.1-3.3,0.1-5.3s0.1-4.4,0.2-6.9
					c0.3-5.1,0.8-11,1.8-17.3c0.5-3.2,1.1-6.4,1.6-9.6c0.6-3.2,1.2-6.6,1.7-9.9c0.5-3.2,0.6-6.5,0.3-9.7c-0.2-3.2-1-6.4-1.4-9.5
					c-0.4-3.2-0.5-6.3-0.2-9.2c0.2-2.9,0.8-5.6,1.5-8.1c0.7-2.4,1.6-4.6,2.5-6.5c0.9-1.9,1.8-3.4,2.6-4.7c1.5-2.5,2.4-4,2.4-4
					s-0.8,1.5-2.2,4.1c-0.7,1.3-1.5,2.9-2.4,4.7c-0.8,1.9-1.5,4.1-2.1,6.5s-1,5.1-1.1,8c-0.1,2.8,0.1,5.9,0.6,8.9
					c0.6,3.1,1.5,6.2,1.9,9.6s0.5,6.8,0.1,10.3c-0.4,3.4-0.8,6.7-1.3,10c-0.4,3.3-0.9,6.5-1.2,9.6c-0.7,6.2-0.9,12-0.9,17
					c0,2.5,0,4.8,0.1,6.8c0,2,0.1,3.8,0.1,5.3c0.1,2.9,0.1,4.6,0.1,4.6L4444.3,1909.7L4444.3,1909.7z"/>
			</g>
			<g id="XMLID_1594_" class="st1">
				<path id="XMLID_1593_" class="st2" d="M4449.2,1938.6c0,0,0-1.5,0.1-4.2c0-1.3,0.1-2.9,0.1-4.8c0-0.9,0-1.9,0.1-2.9
					c0-0.3,0-0.5,0-0.8c0-0.3,0-0.6,0.1-0.9c0.1-0.6,0.1-1.2,0.2-1.8c0.2-1.2,0.5-2.5,1-3.8c0.1-0.3,0.2-0.6,0.4-1
					c0.1-0.3,0.2-0.6,0.3-0.8c0.1-0.3,0.2-0.6,0.3-0.9c0.1-0.3,0.2-0.6,0.3-0.9c0.7-2.3,1.3-4.9,1.6-7.6c0.3-2.7,0.2-5.5-0.1-8.4
					c-0.4-2.9-1.1-5.7-2.1-8.5c-0.3-0.7-0.5-1.4-0.8-2.1l-0.4-1.1l-0.2-0.6l-0.2-0.5c-0.3-0.7-0.5-1.5-0.8-2.2
					c-0.2-0.8-0.4-1.5-0.6-2.3c-0.6-3-0.7-6.1-0.4-9c0.3-2.9,1.2-5.7,2.2-8.1c1-2.3,1.2-4.8,0.7-6.9c-0.2-1.1-0.6-2.1-1.1-3
					c-0.5-0.9-1.1-1.7-1.7-2.4c-1.2-1.3-2.6-2.2-3.6-3.1c-2.1-1.6-3.3-2.6-3.3-2.6s1.2,0.9,3.4,2.4c1.1,0.8,2.5,1.6,3.8,2.9
					c0.7,0.7,1.3,1.5,1.9,2.4c0.5,0.9,1,2,1.3,3.1c0.6,2.3,0.6,5-0.4,7.5c-0.9,2.4-1.5,5-1.7,7.8c-0.2,2.8,0.1,5.6,0.8,8.4
					c0.2,0.7,0.4,1.4,0.6,2.1c0.3,0.7,0.5,1.3,0.8,2l0.2,0.5l0.2,0.5l0.5,1c0.3,0.7,0.7,1.4,1,2.1c1.3,2.9,2.2,5.9,2.8,8.9
					c0.6,3.1,0.8,6.1,0.6,9.1c-0.1,3-0.6,5.8-1.3,8.5c-0.1,0.3-0.2,0.7-0.3,1c-0.1,0.3-0.2,0.6-0.3,0.9c-0.1,0.3-0.2,0.6-0.3,0.9
					c-0.1,0.3-0.2,0.5-0.3,0.8c-0.3,1.1-0.5,2.1-0.6,3.1c-0.1,0.5-0.1,1-0.1,1.5c0,0.2,0,0.5,0,0.7c0,0.3,0,0.5,0,0.8
					c0,1,0.1,2,0.1,2.9c0,1.9,0.1,3.5,0.1,4.8c0.1,2.7,0.1,4.2,0.1,4.2h-5L4449.2,1938.6L4449.2,1938.6z"/>
			</g>
		</g>
		<g id="Layer_7" class="st0">
			<path id="XMLID_1595_" class="st3" d="M2637,1660.7l-12,150.4c-1.3,15.9,0.6,31.8,5.6,46.9l68.8,204.3l-18.3-0.7
				c-23.2,2.5-32.9-2.1-44.6-13.4c-2-1.9-3.3-4.4-3.7-7.1l0,0l-55.7-376.1L2637,1660.7z"/>
			<g id="XMLID_1611_" class="st1">
				<path id="XMLID_1609_" class="st4" d="M2631,1672.1c-0.4,4.7-0.8,9.4-1.2,14c-0.4,4.7-0.9,9.3-1.3,14l0,0l0,0
					c-0.6,2.6-1.1,5.3-1.6,7.9c-0.5,2.6-0.9,5.3-1.3,8c-0.7,5.3-1.2,10.7-1.1,16c0.2,2.7,0,5.5-0.3,8.2c-0.3,2.7-0.6,5.4-0.9,8.1
					c-0.7,5.4-1.6,10.7-2.5,16c-0.5,2.7-1,5.3-1.6,8c-0.3,1.3-0.6,2.6-0.9,4c-0.3,1.3-0.7,2.6-1,3.9c-0.3,1.3-0.8,2.6-1.2,3.9
					c-0.5,1.3-0.9,2.5-1.3,3.8c-0.9,2.5-1.3,5.1-1.2,7.8c0.1,2.6,0.6,5.3,1,8c0.4,2.7,0.9,5.3,1.3,8c0.4,2.7,0.8,5.3,1.1,8
					c0.4,2.7,0.7,5.4,1,8l-1.3-8c-0.4-2.7-0.9-5.3-1.4-8l-1.5-8c-0.5-2.7-1-5.3-1.2-8.1c-0.1-1.4,0-2.8,0.2-4.1
					c0.1-0.7,0.3-1.4,0.4-2c0.2-0.7,0.3-1.3,0.5-2c0.8-2.6,1.8-5.1,2.4-7.7c0.4-1.3,0.7-2.6,1-3.9c0.3-1.3,0.6-2.6,0.9-3.9
					c0.6-2.6,1.1-5.3,1.5-7.9c0.5-2.6,0.9-5.3,1.3-8c0.4-2.7,0.8-5.3,1.1-8c0.4-2.7,0.7-5.3,1-8c0.3-2.7,0.5-5.3,0.3-8
					c0-2.7,0.1-5.4,0.3-8.1c0.2-2.7,0.5-5.4,0.9-8.1c0.4-2.7,0.9-5.3,1.4-8c0.5-2.7,1.1-5.3,1.8-7.9v0.1c0.5-4.7,1.1-9.3,1.7-14
					C2629.9,1681.4,2630.4,1676.7,2631,1672.1z"/>
			</g>
			<g id="XMLID_1614_" class="st1">
				<path id="XMLID_1613_" class="st4" d="M2617.7,1801.7c0,0,0.3,2.1,0.9,5.7c0.5,3.6,1.4,8.8,2.2,15.1c0.4,3.1,0.9,6.5,1.3,10.1
					c0.4,3.6,0.9,7.4,1.2,11.3c0.1,1,0.1,2,0.1,3c0,0.3,0,0.5-0.1,0.8c0,0.1,0,0.1-0.1,0.3c0,0.1,0,0.1-0.1,0.2
					c0,0.1-0.2,0.3-0.3,0.4c0.3-0.2,0.1,0,0.1-0.1l0,0l0.1-0.1c0-0.1,0,0,0,0.1c-0.1,0.4-0.2,0.9-0.2,1.4c-0.2,2-0.2,4-0.2,6.1
					c0,4.1,0.1,8.3,0.2,12.5c0.1,4.2,0.3,8.4,0.6,12.5c0.3,4.1,0.6,8.2,1.3,12c0.2,1,0.4,1.9,0.6,2.8c0.3,0.9,0.7,1.8,1,2.7
					c0.7,1.8,1.3,3.5,1.9,5.2c1.2,3.4,2.4,6.6,3.5,9.6c2.2,5.9,3.9,10.9,5.2,14.3c1.2,3.5,1.9,5.5,1.9,5.5s-0.8-1.9-2.2-5.3
					s-3.4-8.3-5.7-14.1c-1.2-2.9-2.4-6.1-3.7-9.5c-0.7-1.7-1.3-3.4-2-5.2c-0.3-0.9-0.7-1.7-1-2.7s-0.5-1.9-0.7-2.9
					c-0.7-3.9-1.1-8-1.4-12.1s-0.5-8.3-0.7-12.6c-0.1-4.2-0.2-8.4-0.1-12.6c0-2.1,0.1-4.1,0.3-6.2c0.1-0.5,0.1-1,0.3-1.6
					c0-0.1,0-0.1,0.1-0.3c0-0.1,0.1-0.2,0.2-0.3l0,0c0.1-0.1-0.1,0.1,0.2-0.1c-0.1,0-0.2,0.2-0.2,0.2l0,0v-0.1c0-0.2,0-0.4,0-0.7
					c0-1,0-1.9-0.1-2.9c-0.3-3.9-0.6-7.7-1-11.3s-0.8-7-1.1-10.1C2618.6,1810.1,2617.7,1801.7,2617.7,1801.7z"/>
			</g>
			<g id="XMLID_1617_" class="st1">
				<path id="XMLID_1616_" class="st4" d="M2612.9,1695.4c0.1,3.5,0.3,7.1,0.5,10.6s0.4,7.1,0.7,10.6c0.1,1.8,0.3,3.5,0.5,5.3
					l0.5,5.3c0.2,1.8,0.4,3.5,0.7,5.3c0.2,1.8,0.6,3.5,0.9,5.2c0.1,0.9,0.4,1.7,0.6,2.6s0.4,1.7,0.6,2.5c0.2,0.9,0.5,1.6,0.7,2.6
					c0.2,0.9,0.4,1.7,0.6,2.6l0.3,2.8c0,0.9,0,1.8,0,2.7c-0.1,1.8-0.3,3.6-0.6,5.4c-0.1,0.9-0.4,1.8-0.6,2.6
					c-0.2,0.9-0.5,1.7-0.8,2.6c-0.3,0.9-0.6,1.7-0.9,2.5c-0.3,0.8-0.7,1.7-1.1,2.5c-0.7,1.6-1.6,3.2-2.5,4.7s-1.9,3-3,4.5v-0.1
					c-0.9,1.9-1.7,3.8-2.5,5.8c-0.4,1-0.7,2-1,3c-0.2,0.5-0.3,1-0.4,1.5c-0.1,0.3-0.1,0.5-0.1,0.8c0,0.3,0,0.5,0,0.8
					c-0.1-0.3-0.1-0.5-0.1-0.8c0-0.3,0-0.5,0.1-0.8c0.1-0.5,0.2-1,0.3-1.6c0.2-1,0.6-2,0.9-3c0.7-2,1.4-4,2.2-6l0,0l0,0
					c2-2.9,3.7-6,5.1-9.2c0.3-0.8,0.7-1.6,1-2.4c0.3-0.8,0.6-1.6,0.9-2.5c0.3-0.8,0.5-1.7,0.7-2.5c0.2-0.8,0.4-1.7,0.6-2.6
					c0.3-1.7,0.5-3.4,0.5-5.2c0-0.9,0-1.7-0.1-2.6l-0.3-2.5c-0.2-0.9-0.4-1.7-0.6-2.6c-0.2-0.8-0.5-1.7-0.7-2.6
					c-0.3-0.9-0.4-1.7-0.6-2.6c-0.2-0.9-0.4-1.7-0.5-2.6c-0.3-1.8-0.6-3.5-0.8-5.3c-0.3-1.8-0.4-3.5-0.6-5.3s-0.3-3.5-0.5-5.3
					c-0.1-1.8-0.2-3.5-0.3-5.3c-0.2-3.6-0.3-7.1-0.3-10.7C2612.7,1702.5,2612.7,1698.9,2612.9,1695.4z"/>
			</g>
			<g id="XMLID_1620_" class="st1">
				<path id="XMLID_1619_" class="st4" d="M2606,1799.7c0.7,2.7,1.3,5.3,1.9,8c0.6,2.7,1.2,5.3,1.8,8l1.8,8l1.7,8l1.6,8
					c0.3,1.3,0.5,2.7,0.8,4c0.2,1.3,0.5,2.7,0.7,4.1c0.4,2.7,0.7,5.5,0.9,8.2c0.1,1.4,0.2,2.8,0.1,4.2c0,0.7-0.1,1.4-0.1,2.1
					c0,0.4-0.1,0.7-0.2,1.1c0,0.2-0.1,0.4-0.1,0.5s-0.1,0.2-0.1,0.3c0,0.1-0.1,0.2-0.2,0.4l0.1-0.1c-0.3,0.6-0.6,1.3-0.8,1.9
					c-0.2,0.7-0.4,1.4-0.6,2c-0.3,1.4-0.6,2.8-0.8,4.2c-0.1,0.7-0.2,1.4-0.2,2.1c-0.1,0.7-0.1,1.4-0.1,2.2c0,0.7,0,1.4,0.1,2.2
					c0,0.7,0.1,1.4,0.2,2.2c-0.1-0.7-0.2-1.4-0.3-2.1c-0.1-0.7-0.2-1.4-0.2-2.2c0-0.7-0.1-1.5-0.1-2.2s0-1.5,0-2.2
					c0.1-1.5,0.3-2.9,0.6-4.4c0.1-0.7,0.3-1.4,0.5-2.1c0.2-0.7,0.4-1.4,0.8-2.1l0.1-0.1c0,0,0,0,0-0.1s0-0.1,0.1-0.2
					c0-0.1,0.1-0.3,0.1-0.5c0.1-0.3,0.1-0.6,0.1-1c0-0.7,0.1-1.3,0-2c0-1.3-0.1-2.7-0.2-4c-0.1-1.3-0.3-2.7-0.5-4
					c-0.2-1.3-0.4-2.7-0.6-4c-0.2-1.3-0.4-2.7-0.7-4c-0.2-1.4-0.5-2.7-0.8-4l-1.6-8.1l-1.5-8.1l-1.5-8.1c-0.5-2.7-1-5.4-1.4-8.1
					C2606.9,1805.1,2606.4,1802.4,2606,1799.7z"/>
			</g>
			<g id="XMLID_1623_" class="st1">
				<path id="XMLID_1622_" class="st4" d="M2614,1889.4c0.2,1.9,0.5,3.8,0.7,5.7c0.3,1.9,0.6,3.8,0.9,5.7c0.6,3.8,1.4,7.6,2.1,11.3
					c0.4,1.9,0.8,3.8,1.2,5.6c0.4,1.9,0.8,3.8,1.3,5.6c0.5,1.9,0.9,3.7,1.4,5.6l1.5,5.6l1.5,5.6l0.8,2.8l0.8,2.8l1.7,5.5l1.8,5.5
					c0.6,1.8,1.2,3.7,1.9,5.5l1.9,5.4c0.6,1.8,1.3,3.6,2,5.4l2,5.4l-0.2-0.2c1.9,1.9,3.7,3.8,5.4,5.7c1.7,2,3.4,4,5,6.1
					c0.8,1.1,1.5,2.2,2.2,3.3c0.6,1.2,1.3,2.4,1.5,3.9c0.1,0.8,0,1.4-0.1,2.1l-0.2,2l-0.3,3.9c-0.4,5.2-0.7,10.4-0.9,15.7
					c-0.1,2.6-0.1,5.2,0,7.8s0.2,5.2,0.9,7.8c-0.7-2.5-1-5.1-1.2-7.8c-0.2-2.6-0.2-5.2-0.3-7.9c0-5.2,0.2-10.5,0.5-15.7l0.2-3.9
					l0.1-2c0-0.6,0.1-1.3,0-1.8c-0.2-1.1-0.8-2.3-1.4-3.4c-0.7-1.1-1.4-2.2-2.2-3.2c-1.5-2.1-3.2-4.1-5-6c-1.7-1.9-3.5-3.8-5.4-5.6
					l-0.1-0.1l-0.1-0.1l-2.1-5.4c-0.7-1.8-1.4-3.6-2.1-5.4l-1.9-5.5c-0.7-1.8-1.2-3.7-1.8-5.5l-1.8-5.5l-1.6-5.5l-0.8-2.8l-0.8-2.8
					l-1.5-5.6l-1.4-5.6c-0.5-1.9-0.8-3.8-1.3-5.6c-0.4-1.9-0.8-3.8-1.2-5.7c-0.4-1.9-0.8-3.8-1.1-5.7c-0.4-1.9-0.7-3.8-1-5.7
					s-0.6-3.8-0.8-5.7C2614.7,1897.1,2614.3,1893.2,2614,1889.4z"/>
			</g>
			<g id="XMLID_1626_" class="st1">
				<path id="XMLID_1625_" class="st4" d="M2631,1888.3c0,0,0.2,0.4,0.6,1c0.4,0.7,1,1.7,1.6,3c0.7,1.3,1.4,2.9,2.2,4.8
					c0.8,1.9,1.6,4.1,2.4,6.5c0.4,1.2,0.7,2.5,1.1,3.8c0.4,1.3,0.7,2.7,1,4.1c0.3,1.4,0.6,2.9,0.9,4.4c0.2,1.5,0.5,3.1,0.6,4.6
					c0.1,1.6,0.3,3.2,0.4,4.8c0,1.6,0.2,3.3,0.1,5c0,1.7,0,3.4-0.1,5c0,1.6,0,3.3,0.1,5c0.3,6.7,1,13.4,1.8,19.6
					c0.4,3.1,0.8,6.2,1.3,9c0.5,2.8,1.1,5.5,2.4,7.6c0.6,1.1,1.3,2.1,1.9,3c0.6,1,1.2,1.9,1.8,2.8c1.1,1.8,2,3.3,2.7,4.6
					c0.7,1.3,1.2,2.3,1.6,3c0.4,0.7,0.5,1.1,0.5,1.1s-0.2-0.4-0.6-1c-0.4-0.7-1-1.7-1.7-2.9c-0.8-1.3-1.7-2.8-2.9-4.5
					c-1.1-1.7-2.6-3.5-3.9-5.7c-1.4-2.2-2.1-5-2.7-7.8c-0.6-2.9-1-5.9-1.5-9c-0.9-6.3-1.7-13-2-19.7c-0.1-1.7-0.1-3.4,0-5.1
					c0.1-1.7,0.1-3.3,0.2-5c0.1-1.6-0.1-3.3-0.1-4.9c0-1.6-0.2-3.2-0.3-4.8s-0.4-3.1-0.6-4.6c-0.3-1.5-0.5-2.9-0.7-4.4
					c-0.3-1.4-0.6-2.8-0.9-4.1c-0.4-1.3-0.6-2.6-1-3.8c-0.7-2.4-1.4-4.6-2.1-6.5s-1.4-3.6-2-4.9
					C2631.9,1889.8,2631,1888.3,2631,1888.3z"/>
			</g>
			<g id="XMLID_1629_" class="st1">
				<path id="XMLID_1628_" class="st4" d="M2659.7,1986.4c0.5,2.3,0.9,4.6,1.2,7c0.3,2.3,0.5,4.7,0.7,7c0.1,2.4,0.2,4.7,0.1,7.1
					c0,1.2-0.1,2.4-0.1,3.5c-0.1,1.2-0.2,2.4-0.3,3.5c-0.2,1.2-0.3,2.4-0.5,3.5c-0.2,1.2-0.4,2.3-0.6,3.5c-0.5,2.3-0.9,4.6-1.3,6.9
					c-0.4,2.3-0.8,4.6-1.2,6.9c-0.2,1.2-0.4,2.3-0.5,3.5c-0.2,1.2-0.3,2.3-0.4,3.4l0,0l0,0c-0.1,0.8-0.2,1.6-0.2,2.4
					c0,0.8,0,1.6,0.1,2.4c0.2,1.6,0.5,3.2,1.2,4.6c0.7,1.4,1.7,2.6,3.1,3.4c0.7,0.4,1.4,0.6,2.2,0.8s1.6,0.3,2.4,0.4
					c3.3,0.3,6.7,0.1,9.8-1c1.6-0.6,3.1-1.3,4.4-2.4c0.7-0.5,1.3-1.1,1.8-1.7c0.6-0.6,1.1-1.3,1.6-2c-0.4,0.7-0.9,1.4-1.4,2.1
					c-0.5,0.7-1.1,1.3-1.8,1.8c-1.3,1.1-2.8,2-4.4,2.7c-3.2,1.3-6.7,1.7-10.1,1.4c-0.9-0.1-1.7-0.2-2.6-0.3
					c-0.8-0.2-1.7-0.4-2.5-0.8c-1.6-0.8-2.9-2.2-3.7-3.8c-0.8-1.6-1.2-3.3-1.4-5.1c-0.1-0.9-0.1-1.7-0.1-2.6s0.1-1.7,0.2-2.6v0.1
					c0.1-1.2,0.2-2.4,0.4-3.6c0.1-1.2,0.3-2.3,0.5-3.5c0.3-2.3,0.8-4.6,1.2-7c0.4-2.3,0.9-4.6,1.4-6.9c0.3-1.2,0.5-2.3,0.7-3.4
					c0.2-1.1,0.3-2.3,0.5-3.4l0.4-3.5c0.1-1.2,0.2-2.3,0.2-3.5c0.1-2.3,0.2-4.7,0.1-7c0-1.2-0.1-2.3-0.1-3.5
					c-0.1-1.2-0.1-2.3-0.2-3.5C2660.2,1991.1,2660,1988.7,2659.7,1986.4z"/>
			</g>
			<g id="XMLID_1634_" class="st1">
				<path id="XMLID_1632_" class="st4" d="M2657.9,1966.9c0,0,0.5,0.9,1.2,2.5s1.8,3.9,3,6.7c1.2,2.8,2.6,6.1,4,9.7s2.8,7.4,4,11.3
					c0.6,2,1.1,3.9,1.6,5.9c0.2,1,0.4,2,0.4,3.1c0,0.3-0.1,0.6-0.1,0.9l-0.1,0.7c-0.1,0.5-0.2,0.9-0.2,1.4c-0.5,3.7-0.9,7.3-1,10.3
					s-0.2,5.6,0,7.3c0.1,0.9,0.2,1.6,0.4,2c0.2,0.4,0.4,0.6,0.4,0.6s0,0-0.1-0.1c-0.1-0.1-0.2-0.2-0.3-0.5c-0.2-0.4-0.4-1.1-0.6-2
					c-0.3-1.8-0.6-4.3-0.6-7.4s0.1-6.6,0.5-10.5c0.1-0.5,0.1-1,0.2-1.5l0.1-0.7c0-0.2,0-0.4,0-0.6c0-0.9-0.2-1.8-0.4-2.8
					c-0.4-1.9-1-3.9-1.6-5.8c-1.2-3.9-2.5-7.7-3.8-11.3c-1.3-3.6-2.5-6.9-3.5-9.8s-1.9-5.3-2.5-6.9
					C2658.2,1967.9,2657.9,1966.9,2657.9,1966.9z"/>
			</g>
			<path id="XMLID_1635_" class="st5" d="M2664.6,2038.1c0-0.2,0-0.4,0.1-0.6c0.2-0.9,0.8-3.5,2.6-5.8c0,0,0-0.1,0.1-0.1
				c1.6-2,3.9-0.3,4.7,2.1c0.5,1.3,1.8,1.9,1.8,2.6c0,1.1-0.5,5,0,7.1c0,0.2,0,0.4,0.1,0.6l0.6,3c0.2,1.3-0.9,1.3-2,2
				c-1,0.6-1.2,0.7-2,0.6c-0.7-0.1-2.7-0.6-4.3-1.6c-1-0.6-1.5-1.6-1.5-2.8v-7.1H2664.6L2664.6,2038.1z"/>
			<path id="XMLID_1636_" class="st5" d="M2609.9,1755.6c0.6-0.4,1-0.5,1.7-0.3c1.9,0.3,2.4,0.9,4.3,2.2c1.1,0.8-0.8,4.5-1.2,6.2
				c-0.2,0.8-0.6,1.5-1.3,2l-0.4,0.3c-0.9,0.7-2.2,0.8-3.2,0.3l-0.1-0.1c-0.9-0.4-0.5-0.8-0.9-1.7l-0.2-2.6
				c-0.2-0.5-0.3-1.6-0.2-2.1l0.6-3.4L2609.9,1755.6z"/>
			<path id="XMLID_1637_" class="st5" d="M2612.3,1785.4c0,0-2.8,6.2-10.3,10.3c-7.5,4.2-1.8,12.2-1.8,12.2l7,9.5
				c0,0-3.8-11.3-3.3-16C2604.4,1796.7,2614.6,1786.7,2612.3,1785.4z"/>
		</g>
		<g id="Layer_14">
			<g id="XMLID_1685_" class="st0">
				<line id="XMLID_1686_" class="st6" x1="810.9" y1="2586.6" x2="3045.9" y2="1506.6"/>
				<line id="XMLID_1687_" class="st6" x1="810.9" y1="1506.6" x2="3045.9" y2="2586.6"/>
			</g>
		</g>
		<g id="Layer_17">
		</g>
	</g>
</g>
<g id="Layer_2_2_">
	<path id="XMLID_48_" class="st7" d="M1637,2535.7l-19.9-18c0,0-6.2-4.9-12.2-5c0,0-4.6,0.1-8.3-1.1s-10.9,0.5-10.9,0.5
		s-13.8,6.2-31.2-0.9c0,0-5.6-5-17.6-9.2c0,0-4.9-1.5-5.2,1.2c-0.3,2.7-1.5,9.1,7.4,23.2c0,0,1.4,0.3,1,1.7c0,0,3.6,3.3,13.7,0.2
		c0,0,1.6,0.1,2.4,1.3c0,0,2.3,0.4,2.7,2.9c0,0-2.4-1.3-2.9-0.9c0,0,0,0.7-0.6,0.7c0,0,0.3,0.6,0.4,0.8c0.1,0.2,1.7,0.9,2.2,4.9
		c0,0-2-2-2.5-2c0,0-1.3,1.5-3.1-0.2c0,0-1.2,0.3-1.4,0c0,0-1.1,0.9-3.2,0.1c0,0-1.9,0-2.1,0.2s-3.2,0.3-3.3,0.3
		c-0.1-0.1-2.1-0.6-2.2-0.7c-0.1-0.1-2.8-1-3-1c-0.2,0-1.5,0.3-1.9,1.2c-0.4,0.9-0.7,1.7-7.2,4c0,0-0.9,0.5,2.1-2.6
		c0,0,1.1-2.8,1.3-3.6c0,0-1.3-2-1.2-4.1c0,0,0-0.7-1.2-0.7c0,0-0.4-0.1-1,2.2c0,0-0.4,0.6-0.5-1.5c0,0,0.2-1.1,0.7-2.6
		c0,0,0.4-2.5,0.5-2.9c0.1-0.4-1.1-5.3-5.2-15c0,0-3.8-6.3-1.4-10c0,0,0.3-2.3-1.8-3.9c-2.2-1.6-8.2,0-8.2,0s-11.7,6.3-19.3,0.1
		c0,0-9.7,5.5-13.6,16.6c0,0-1.8,3.3-1.4,3.5c0.5,0.2,0.7,1.2,0.2,1.7c-0.5,0.5,2,6.6,6,8.5c0,0,2.1,0.8,1.4,3.8
		c0,0,0.7,3.8-0.6,4.7c0,0-0.4,0.6-0.6-2c0,0-0.1-0.6-0.6-1.5c0,0-1.3,0.2-1.8-2.1c0,0-0.2-0.2-0.6-0.2c0,0-0.7-0.5-1.1-0.7
		c0,0-0.2-0.3-1.1-0.3c0,0-1.6,0-3.2-3.6c0,0-0.9-1.8-0.6,0.4c0,0,0.3,0.6,0.1,1.5c0,0,0,0.6,0.5,1.9c0.5,1.3,0.2,2.2,0.2,2.2
		s0.5,1.7,0.2,3c0,0-0.6,1.2-1.1,1.5c0,0-0.2,3.5-3.7,5.2c0,0-0.5,0.3,0-0.6c0,0,0.8-1.2,1.4-3c0,0-1.7-1.6-0.4-3.4
		c0,0-0.1-1.1-0.7-3.1c0,0,0.2-1.4-0.5-2.2c0,0-0.8,0-0.7-3c0,0,0.2-1.1-0.3-2.7c0,0-1.4-1.5-1.9-2.4c0,0-1.8,0-2.3-0.3
		c0,0-5.8,3.7-10.3,1.8c0,0-1.7-0.2-3-0.8c-1.3-0.7,2-0.5,2-0.5s0.9,0,1.1,0c0,0,1.3-1.1,5.6-2.3c0,0,2.5-1,2.6-1.2s0.8-0.2,0.8-0.2
		s4.4-4,6.1-4.7c0,0,4.1-1.2,12.1-22.9c0,0,0.9,0.9,0.7-13.5c-0.2-14.4,0.5-27.4,6.7-36.1s8.6-14,22.9-17.3
		c14.4-3.2,34.2,3.6,37.6,5.5c3.4,1.9,16.1,6.5,24.1,25.7c0,0,3.2,10.4,4.6,18c0,0,1,5.4,0.9,7.3c-0.2,1.9,1.5,3.5,9.3,2.1
		c7.8-1.4,12.3,0.9,12.3,0.9s5.9,1.3,9.2,9.8c3.2,8.6,5.1,12,5.3,15.8c0.2,3.8,1.1,4.2,2,5.8c0.9,1.6,20.9,21,21.8,25.3
		C1640.9,2537.2,1640,2538.4,1637,2535.7z"/>
	<path id="XMLID_11_" class="st7" d="M1160.4,2219.2c-1.7-0.2-19.5,6.1-20.1,6.5c0,0-0.2-0.4-0.2-0.7c0-0.3,0.5-1.6,0.5-1.6
		s0.1-0.4,0.3-0.7c0.2-0.3,0.5-0.9,0.5-0.9l-0.1-0.4l1.3-2c0,0,0.2-0.4,0.5,0.3c0,0,0.6-0.9-0.8-1.2c0,0-0.6-0.4-0.8,0.9
		c-0.2,1.3-1,1.8-1,1.8s-0.6,1.3-0.7,1.5s-0.9,1.6-0.9,1.6s-1.1,1.1-1.3,2.6l0,0.1l-3.8,2.2c0,0-0.4,0.3-0.8,0.6
		c-0.2-0.2-0.5-0.4-0.9-0.5c0,0-1,0,0.1,0.6c0,0,0.2-0.1,0.4,0.2c-1.1,0.8-2.6,1.9-2.7,2.2c-0.2,0.4-0.2,1.3-0.2,1.3l-2.3,0
		c0,0,0-1.4-0.6-1.7l0.6-3.9c0,0,0.2-0.3,0.4-0.5c0.2-0.2-0.1-0.9-0.6-0.2c-0.5,0.7-0.8,3.9-0.8,3.9l-4.5-4.1c0,0-0.2-2.8-0.3-4.6
		l-0.3-0.7c0,0-0.3-1.1-0.2-1.5c0.1-0.4,0.2-1,0.2-1s-0.1-0.5-0.2-0.6c-0.1-0.1,0.4-2,0.4-2s0.6-0.7,0.3-0.8s-1.5-0.4-1.9,0.2
		c-0.4,0.6,0.5,0.3,0.5,0.3l-0.1,2.3l-0.2,1.8l-0.4,3.7l0.4,1.4c0,0-12.4-10.5-22.7-14.9c0,0-1.7-0.1,0.4,0.7
		c2.1,0.8,15.5,9.2,22.5,15.4c0,0,0.3,1.9,0.1,2.2c-0.2,0.3-1.7,7.8,1.8,13.3c0,0-0.1,2.1,0.4,2.8c0,0-2,1.9-1.9,3.5l-1.3,0.6
		l0.3,0.5c0,0-5.5-2.2-9.1-0.8c0,0-1.2-0.9-3.4,1.9s-2.8,2.7-3.8,4.8c0,0-5,2.5-6,3.9c-0.9,1.4-0.1,2.5,0.7,2.3c0,0-0.5-0.7-0.4-1.2
		c0.1-0.4,1.6-2,1.6-2s0.5,0.2,0.6,0.2s1-0.7,1.5-1c0.5-0.3,3.4-1.8,3.4-1.8s3.3-4.9,4.3-5.2c0,0,1.4,0,2.7-0.1c0,0,4.9-0.5,6.8,1.2
		c0,0,1.5,0.3,2,0.1s0,1.7,0,1.7s-0.2,3.7-0.5,4.4c0,0-2.1-1.3-4.5,5.1c0,0-0.2,1.1-2.8,6.1c0,0-0.6,1.2-0.6,1.7
		c0,0.4-0.6,0.8-0.6,0.8s-0.4,0.5,0.1,1.1l-0.3,3.2c0,0,0.3,0-0.2,1.2c-0.6,1.2-0.7,3.1-0.7,3.1l-0.7,1.4l0.2,0c0,0,0.5-0.5,0.5,0.3
		c0,0.8,0,2.2-1.1,3.1l-0.5,0.8c0,0-0.1,0.2,0.2,0c0.3-0.2,1-0.6,1,0.5c-0.1,1-0.2,2.1-1.4,3.2c0,0-0.8,1.5,0,0.6
		c0.8-0.9,1.1-0.4,1.1-0.4s0.2,0.6-0.1,1.6c0,0-1.1,1.3-1.4,2.4c0,0,1.2-0.8,1.4-0.8s-0.1,1.6-0.1,1.6l-1,2.4l1.1-1l-0.6,1.6
		l-0.2,1.3c0,0-0.3,0.6-0.3,0.9c0,0.3-0.5,0.9-0.4,1.5s-0.5,2.5-0.3,3.1l-0.3,0.7l0.1,0.3l0.6-0.6l0.7,0.8l0.6-0.2l-0.7-0.8l0-0.5
		l0.2-2.4c0,0,0.5-0.6,0.6-1.3c0.1-0.8,0.3-0.7,0.6-1.4c0.3-0.7,0.4-0.8,0.5-1.5c0.1-0.7,0.1-0.7,0.1-0.7l0.3,1.6
		c0,0,0.1,0.3,0.4-1.9l0.6-7l0.4,0.5c0,0,0.3-1.3-0.1-2.3s0.2-3.2,0.2-3.2l1.1,0.8l-0.9-2.7l0.2-2.3l1,0.5l-1-2.2
		c0,0,0.7-4.4,0.8-4.9c0.1-0.5,0.6,0,0.6,0s0.5-0.7,0.3-2.1c0,0,0.3-0.9,0.6-3.1c0,0,3.6-5.7,5-6.4c0,0-0.6,3.1-0.3,6.3l-0.1,6.2
		c0,0,0.8,4.6,1.4,5.1c0.6,0.6,0.4-2,0.4-2l0.3,1.2c0,0-0.3,5.6-1.5,14.7c0,0,1,1.8,1.7,0.1c0.8-1.7,1.9-12.2,1.9-13.7
		c0,0,1.8-3,2.7-3.8c0,0,0.7-1.7,0.6-3.3c-0.1-1.6,1.7-6.7,2.6-7.6c0,0,2.1,2.7,2.7,5c0,0,0.1,1.3-0.2,3.1c0,0-0.1,0.1,0.2,0.5
		c0,0-1,1.5,0.1,2c0,0,0.4,0,0.1,1.4c-0.2,1.4,0.3,3.7-1.6,5.2c0,0-0.6,0.7,0.6,0.3c0,0,0.5-0.5,0,1.4s-1.8,2.9-1.8,2.9
		s-0.9,1.2,1.2-0.2c0,0-0.1,2.6-1.2,4.2c0,0-0.5,1.3-0.3,1.6c0.2,0.3,0.6-0.5,0.6-0.5l-1.1,3.7l-0.4,0.5l0.4-0.1l-0.6,1.9
		c0,0-0.1,0.3,0,0.6c0.2,0.3-0.1,1.6-0.1,1.6l0.7-1.2c0,0-0.1,1.7,0.2,2.2c0,0,0,0.9,0.3,1.4c0,0-0.3,1.1,0.3,1.3
		c0,0,0.4,0.1,0.2,1.2c-0.2,1.1,0.2,1.7,0.2,1.7s-0.5,0.6-0.7,0.6s-0.4,0.3,0,0.3s1-0.6,1-0.6l0.6,0.5c0,0,0.2,0.1-0.1-0.6
		c0,0,0.2-0.6,0.2-1.1c0-0.5-0.4-1.9-0.4-1.9s0-0.9,0.1-1.1c0.1-0.2-0.2-1-0.2-1s0-0.2,0-0.4c0-0.2,0,0-0.1-0.3
		c-0.2-0.3,0-0.9,0-1.1c0-0.2-0.3-0.8-0.2-1.5c0.1-0.7,0.2-0.7,0.7,0.4c0.5,1.1,0.3-0.9,0.3-0.9s-0.3-0.8-0.3-1.1
		c0-0.3,0.2-1.9,0.2-1.9s0.8-0.3,1.4,1c0,0,0.4-0.4,0.1-1c-0.3-0.6-0.9-1.2-0.5-2.9c0,0,0.4-0.7,1.1,0.2c0.8,0.9-0.1-1.1-0.1-1.1
		s-0.6-0.3-0.2-3c0,0,0.5-0.5,1.2,0.3c0.7,0.9-0.2-1.7-0.5-1.7c0,0-0.4,0,0.1-2.3c0,0,0.1-0.6,0.8-0.1c0,0,0.7,0.3-0.3-1.3
		c0,0-0.1-0.8,0.1-2.8c0,0-0.4-0.7-0.1-1.6c0.3-0.8,0.7-3.1,0.7-3.1s0.8-0.6,0.3-1.5c0,0-0.5-4.4-1-5.5c0,0-0.5-0.7-0.7-4.3
		c0,0-0.5-3.9-2-4.8c0,0-0.4-0.5-1.1-0.1s0.1-6.3,0.1-6.3s0.5,0.1,0.8-0.2c0,0,6.9-0.1,8.6,0.7c0,0,1.5,0.4,1.7,0.3
		c0.2-0.1,2.2,3.5,2.8,6.6c0,0,0.7,2.4,2.3,3.9c0,0,0.9,0.9,1.1,1c0.2,0.1-0.1,1.2,1.1,1.4c1.2,0.2,1.9,1.7,1.9,1.7s0.2,0.2-0.6,0.6
		c-0.7,0.4,0.5,0.3,0.5,0.3s0.8-0.4,0.8-0.7l0.5-0.4c0,0,0.1-0.3-0.4-0.3c-0.4-0.1-1.7-1.4-1.7-1.4s-1.4-1.2-1.5-1.6
		c-0.1-0.4-1.5-2.4-1.9-2.6c0,0,0.1-0.2,0-0.6c-0.2-0.4-2.2-8.2-3.5-8.9c-1.3-0.8-0.9-0.5-0.9-0.5s0.1-0.5-0.9-0.5
		c0,0-4.8-2.3-9.6-1.4c0,0-0.5,0.7-0.8-0.7c0,0,0.7-0.6,0.3-1.5c0,0-0.1-0.1,0.1-0.4s0.4-0.8,0-1.3c0,0-0.4-0.9-0.2-1.2
		c0.2-0.3,1-1.3,1-1.8c0-0.5,0.1-0.6,0.1-0.6l0.2,0c0,0,4.8-5.7,4.9-11.1l0.3-1.1l-0.2-0.3c0,0,1.3-3.3,1.8-3.8c0,0,0.2-0.3,0.3-0.5
		c0.1-0.2,4.4-2.5,19.3-7c0,0,1-0.1,1.8,0.1C1161.3,2219.7,1162.1,2219.4,1160.4,2219.2z M1123.1,2239.8c-0.1,1.2-0.5,0.2-0.5,0.2
		s-2-5-0.6-9.2c0,0,0.5-1.4,0-1.7c-0.5-0.3-0.3-1-0.3-1s3.2,2.8,3.8,4c0,0.1,0.1,0.2,0.1,0.3c-0.3,0.3-0.8,2-0.8,2
		c-0.1,0.1-0.2,0.2-0.2,0.3C1124.7,2235.3,1123.3,2238.6,1123.1,2239.8z M1125.9,2234.1c0,0-0.1,0-0.3,0l0.4-1
		C1126.1,2233.8,1125.9,2234.1,1125.9,2234.1z M1131.9,2234.3c0,0,0.1-0.2-0.6-0.2c0,0-0.1-1.2,0.2-1.7c0.1-0.2,0.6-0.8,1.3-1.4
		c0,0.6,0,1.4-0.3,2.8c0,0-0.1,1.2-0.1,1.9C1132.4,2236.4,1131.9,2234.3,1131.9,2234.3z M1136.6,2230.4l-0.3,0.3c0,0-0.2,9-3.5,10.5
		c0,0,0-2.3,0.4-3.8l-0.2-0.7c0,0,0.2-5.6,0.3-5.7c0-0.1,0.1-0.3,0.1-0.6c1-0.9,2.2-1.8,2.8-1.8l1.3-0.7L1136.6,2230.4z"/>
	<path id="XMLID_3_" class="st7" d="M2855.7,2300.1c-1.2,0.5-9.8,10.8-10,11.2c0,0-0.3-0.2-0.4-0.4c-0.1-0.2-0.3-1.1-0.3-1.1
		s-0.1-0.3-0.1-0.5s0-0.7,0-0.7l-0.2-0.2l0.1-1.7c0,0,0-0.3,0.5,0c0,0,0.1-0.8-0.9-0.5c0,0-0.5,0-0.2,0.9c0.4,0.9,0.1,1.4,0.1,1.4
		s0.1,1,0.1,1.2c0,0.2,0,1.3,0,1.3s-0.3,1.1,0.1,2.1l0,0.1l-1.5,2.7c0,0-0.1,0.3-0.3,0.7c-0.2-0.1-0.4-0.1-0.7,0
		c0,0-0.6,0.3,0.2,0.3c0,0,0.1-0.2,0.3,0c-0.4,0.9-0.9,2.1-0.9,2.3c0,0.3,0.4,0.9,0.4,0.9l-1.4,0.8c0,0-0.5-0.8-1-0.9l-1-2.6
		c0,0,0-0.3,0.1-0.4c0-0.2-0.4-0.5-0.5,0.1s0.9,2.7,0.9,2.7l-4.2-0.9c0,0-1.1-1.7-1.8-2.7l-0.4-0.3c0,0-0.6-0.6-0.7-0.9
		c-0.1-0.3-0.2-0.7-0.2-0.7s-0.2-0.3-0.3-0.3c-0.1,0-0.4-1.4-0.4-1.4s0.1-0.6-0.1-0.6c-0.2,0-1.1,0.3-1.1,0.8c0,0.5,0.4,0,0.4,0
		l0.7,1.4l0.5,1.2l1.1,2.4l0.7,0.7c0,0-11.4-2-19.3-1c0,0-1.1,0.5,0.5,0.3s12.8,0.1,19.3,1.4c0,0,0.9,1,0.8,1.3
		c0,0.3,1.8,5.4,5.9,7.5c0,0,0.7,1.3,1.3,1.6c0,0-0.5,1.9,0.1,2.8l-0.6,0.8l0.4,0.2c0,0-4.2,0.6-5.9,2.8c0,0-1.1-0.1-1.4,2.4
		c-0.4,2.5-0.8,2.7-0.6,4.3c0,0-2.2,3.4-2.3,4.5c-0.1,1.2,0.8,1.5,1.3,1.2c0,0-0.6-0.3-0.6-0.6c-0.1-0.3,0.3-1.8,0.3-1.8
		s0.4-0.1,0.4-0.1c0.1,0,0.4-0.8,0.5-1.1c0.2-0.3,1.4-2.3,1.4-2.3s0.3-4.2,0.8-4.8c0,0,0.9-0.5,1.6-1c0,0,2.9-2.1,4.6-1.7
		c0,0,1-0.4,1.3-0.7c0.3-0.3,0.6,1.1,0.6,1.1s1.2,2.4,1.2,2.9c0,0-1.8-0.1-0.9,4.8c0,0,0.3,0.7,0.5,4.7c0,0,0.1,1,0.3,1.2
		c0.2,0.3-0.1,0.7-0.1,0.7s-0.1,0.5,0.5,0.6l0.9,2.1c0,0,0.2-0.1,0.3,0.8s0.7,2.2,0.7,2.2l0,1.1l0.1-0.1c0,0,0.1-0.5,0.4,0
		c0.3,0.5,0.8,1.4,0.5,2.3l0,0.7c0,0,0,0.2,0.2-0.1c0.1-0.2,0.4-0.7,0.8-0.1c0.3,0.7,0.7,1.4,0.3,2.4c0,0,0,1.2,0.2,0.4
		s0.6-0.6,0.6-0.6s0.3,0.3,0.5,1c0,0-0.2,1.2,0,1.9c0,0,0.4-0.9,0.6-1c0.1-0.1,0.5,1.1,0.5,1.1l0.3,1.9l0.4-1l0.2,1.2l0.3,0.9
		c0,0,0,0.5,0.1,0.6c0.1,0.2,0,0.7,0.3,1.1c0.3,0.3,0.6,1.7,0.9,2l0,0.5l0.2,0.2l0.1-0.6l0.7,0.2l0.3-0.3l-0.8-0.2l-0.2-0.3
		l-0.7-1.5c0,0,0.1-0.5-0.1-1c-0.2-0.5-0.1-0.5-0.2-1.1c-0.1-0.5,0-0.6-0.2-1.1c-0.2-0.5-0.2-0.5-0.2-0.5l0.8,0.9
		c0,0,0.2,0.1-0.5-1.3l-2.2-4.5l0.4,0.1c0,0-0.3-0.9-0.9-1.4c-0.6-0.5-1-2-1-2l0.9,0.1l-1.5-1.4l-0.7-1.5l0.8-0.1l-1.4-1
		c0,0-1.2-2.9-1.3-3.3c-0.1-0.3,0.4-0.2,0.4-0.2s0-0.6-0.6-1.4c0,0-0.1-0.6-0.7-2.1c0,0,0.2-4.8,0.8-5.7c0,0,0.7,2.1,2.1,4l2.2,3.8
		c0,0,2.2,2.5,2.7,2.6s-0.5-1.3-0.5-1.3l0.7,0.6c0,0,1.8,3.6,4.3,9.6c0,0,1.2,0.7,1.1-0.6s-3.2-8.2-3.8-9.1c0,0,0-2.5,0.3-3.3
		c0,0-0.2-1.3-0.8-2.3s-1.4-4.7-1.1-5.6c0,0,2.3,0.9,3.5,2.1c0,0,0.5,0.8,1,2c0,0,0,0.1,0.3,0.2c0,0-0.1,1.3,0.8,1.2
		c0,0,0.2-0.1,0.6,0.8c0.4,1,1.5,2.2,0.9,3.8c0,0-0.1,0.7,0.5-0.1c0,0,0.1-0.5,0.5,0.9c0.4,1.4,0,2.5,0,2.5s-0.1,1.1,0.7-0.6
		c0,0,0.9,1.6,0.8,3c0,0,0.2,1,0.4,1.1c0.2,0.1,0.2-0.5,0.2-0.5l0.6,2.7l-0.1,0.4l0.2-0.2l0.3,1.4c0,0,0,0.2,0.2,0.3
		c0.2,0.1,0.5,1,0.5,1l0-1c0,0,0.6,1.1,0.9,1.3c0,0,0.3,0.6,0.7,0.8c0,0,0.2,0.8,0.7,0.7c0,0,0.3-0.1,0.5,0.7s0.7,1,0.7,1
		s-0.1,0.6-0.2,0.6c-0.2,0.1-0.1,0.3,0.1,0.2s0.4-0.8,0.4-0.8l0.5,0.1c0,0,0.2,0-0.3-0.4c0,0-0.1-0.4-0.3-0.8c-0.2-0.3-0.9-1-0.9-1
		s-0.3-0.5-0.4-0.7c-0.1-0.2-0.5-0.5-0.5-0.5s-0.1-0.2-0.1-0.3c-0.1-0.1,0,0-0.2-0.2c-0.2-0.1-0.3-0.6-0.4-0.7
		c-0.1-0.1-0.5-0.4-0.7-0.8c-0.2-0.4-0.1-0.5,0.6,0c0.7,0.5-0.1-0.7-0.1-0.7s-0.5-0.4-0.5-0.6c-0.1-0.2-0.6-1.2-0.6-1.2
		s0.4-0.5,1.2,0.1c0,0,0.1-0.4-0.3-0.6c-0.4-0.2-1-0.4-1.3-1.6c0,0,0-0.6,0.8-0.3c0.8,0.3-0.5-0.6-0.5-0.6s-0.5,0-1.2-1.8
		c0,0,0.1-0.5,0.9-0.2c0.8,0.3-0.8-1-1-0.9c0,0-0.2,0.1-0.8-1.4c0,0-0.2-0.4,0.5-0.3c0,0,0.5-0.1-0.7-0.7c0,0-0.3-0.5-0.9-1.8
		c0,0-0.5-0.3-0.6-0.9c-0.1-0.6-0.7-2.1-0.7-2.1s0.3-0.7-0.4-1.1c0,0-1.9-2.5-2.6-3c0,0-0.6-0.3-2-2.4c0,0-1.7-2.2-2.9-2.2
		c0,0-0.4-0.2-0.8,0.3c-0.3,0.5-2.2-3.9-2.2-3.9s0.4-0.1,0.4-0.4c0,0,4.3-2.5,5.5-2.7c0,0,1-0.3,1.1-0.4c0.1-0.1,2.6,1.4,4.1,3
		c0,0,1.3,1.2,2.8,1.6c0,0,0.9,0.2,1,0.2c0.2,0,0.4,0.8,1.2,0.5c0.8-0.3,1.8,0.4,1.8,0.4s0.1,0-0.1,0.5s0.4,0,0.4,0s0.4-0.5,0.2-0.7
		l0.2-0.4c0,0,0-0.2-0.3-0.1s-1.5-0.3-1.5-0.3s-1.3-0.2-1.5-0.5c-0.2-0.2-1.8-1-2.1-0.9c0,0,0-0.2-0.2-0.4c-0.2-0.2-4.3-4.2-5.4-4.2
		s-0.7,0-0.7,0s-0.1-0.3-0.7,0c0,0-3.7,0.3-6.4,2.6c0,0,0,0.6-0.7-0.1c0,0,0.2-0.6-0.4-1c0,0-0.1,0-0.1-0.2c0-0.2,0-0.6-0.5-0.8
		c0,0-0.6-0.4-0.5-0.7c0-0.2,0.1-1.2,0-1.5s-0.2-0.4-0.2-0.4l0.1-0.1c0,0,0.9-5.2-1-8.6l-0.2-0.8l-0.2-0.1c0,0-0.4-2.5-0.3-3
		c0,0,0-0.3,0-0.4c0-0.2,1.8-3.1,9.3-11.2c0,0,0.6-0.4,1.1-0.6C2856.4,2300.2,2856.9,2299.6,2855.7,2300.1z M2840.2,2326.2
		c0.3,0.8-0.2,0.3-0.2,0.3s-3-2.3-3.7-5.4c0,0-0.2-1-0.6-1c-0.4,0-0.5-0.5-0.5-0.5s3,0.6,3.8,1.1c0.1,0,0.1,0.1,0.2,0.1
		c-0.1,0.3,0.2,1.5,0.2,1.5c0,0.1,0,0.2,0,0.3C2839.6,2322.9,2839.9,2325.4,2840.2,2326.2z M2839.8,2321.8c0,0-0.1,0-0.2,0.1
		l-0.1-0.8C2839.8,2321.5,2839.8,2321.8,2839.8,2321.8z M2843.6,2319.7c0,0,0-0.1-0.5,0.1c0,0-0.5-0.7-0.5-1.1
		c0-0.2,0.1-0.7,0.3-1.3c0.2,0.3,0.5,0.9,0.9,1.8c0,0,0.3,0.8,0.7,1.2C2844.7,2320.8,2843.6,2319.7,2843.6,2319.7z M2845.1,2315.6
		l-0.1,0.3c0,0,3.1,5.6,1.6,7.7c0,0-0.8-1.4-1.1-2.5l-0.4-0.3c0,0-1.9-3.5-1.9-3.6c0,0,0-0.2-0.2-0.4c0.3-0.9,0.7-1.9,1.1-2.1
		l0.6-0.9L2845.1,2315.6z"/>
	<path id="XMLID_2_" class="st7" d="M2655.1,2505.1l-9.2,7c0,0-3.2,2.2-0.5-4.6c0,0,4.2-7.8,5.1-8.5c0,0,1.1-5.7,1.5-6.6
		c0.4-0.9,7-15.8,23.7-5.9c0,0,5.1,6.9,10.9-1.7c0,0,24.7-23.8,58.4-16.8c0,0,13.1,0.7,33.6,19c0,0,0.1,2.1,3.2,1.8
		c3.1-0.3,12.5-5.6,12.5-5.6s1.8,0.3-0.6,2.2c-2.5,1.9-8.1,4.1-8.1,4.1l2.9,0.6c0,0-1.7,1.6-3.7,1.8c-2,0.2,8.8,1.5,8.8,1.5
		s6.8,1.6,7.2,2c0.4,0.5-1.7,0.4-2.3,0.2c-0.6-0.2,1,0.8,1,0.8s0.3,1.3-4.7-0.3c0,0-5.5-0.5-7.9,0.3s5.9,2.2,5.9,2.2l3.8,0.8
		c0,0,3.5,0.9-6.8-0.7c0,0-3-0.7,4,2.6c0,0-0.2,0.5-1.8,0s6.6,3.6,6.6,3.6s1.1,1.8-6-1.3c0,0-3.2-1.9-5-2s-1.2,0.2,0.9,1.4
		c2.1,1.2,5.4,3.2,5.4,3.2s1.7,1.9-4.4-1.6c0,0-5.3-3-7.7-3.3c0,0-1.6,0-1.8,0.8c-0.2,0.8-2.1,0.6-2.1,0.6l-0.9,0.8
		c0,0,2.7,2.5,3.9,2.6c1.2,0.1,1.2,0.7,1.2,0.7l-0.8,0.1c0,0-0.3,0.2,0,0.4c0.3,0.2-0.4,0.3-1.2-0.1s-3.5-1.2-6.3-1.9
		c0,0-1.3-0.6-1.7,0.7c-0.3,1.3-5.9,4.8-11.3,11.3c0,0-0.9,0.4,2.3,4.4c3.2,4,3.1,6.8,6.6,8.8c0,0,0.9,0.8,2.1,0.9
		c0,0,2.3-1.6,5.7,0c0,0,1.5,0.3-4.6,1.8c0,0,1.6,7.1,1.8,8.5c0.1,1.4,1.1,5.2,1.1,5.2h-9.4l1.9-7c0,0-4-7.5-6.3-12.1
		c0,0-4.6-6-5.7-6.8c0,0-6,4.8-11.9,5.5c0,0-1.7,1-2.3,4.4c-0.7,3.4-4.8,12.2-6.8,15.3s-5.9,10.4-5.9,10.4l-7.7-0.5l4.2-3.5
		l7.2-12.6c0,0,1.4-4.7,1.2-5.7s-1.3,1.2-1.3,1.2s-1.2,0.3-4.9-4.7c0,0-1.5-0.8-2.5-1c-1-0.2-2.7-2.1-2.7-2.1s-8.6-3.4-15.1-4.5
		c-6.4-1.1-19-3.7-22.8-4.9c-4.6-1.5-9.9-4.6-13.5-9.6S2662,2502.1,2655.1,2505.1z"/>
	<path id="XMLID_73_" class="st7" d="M1143.5,2025.8c0.4-0.1,0.9,0,0.9,0c7.3,2.2,9.4,3.3,9.4,3.4s0.1,0.3,0.1,0.3
		c0.2,0.2,0.9,1.8,0.9,1.8l-0.1,0.1l0.2,0.5c0,2.7,2.4,5.4,2.4,5.4l0.1,0c0,0,0,0.1,0,0.3s0.4,0.8,0.5,0.9c0.1,0.1-0.1,0.6-0.1,0.6
		c-0.2,0.3-0.1,0.5,0,0.7c0.1,0.1,0,0.2,0,0.2c-0.2,0.5,0.1,0.7,0.1,0.7c-0.2,0.6-0.4,0.3-0.4,0.3c-2.3-0.4-4.7,0.7-4.7,0.7
		c-0.5,0-0.4,0.2-0.4,0.2s0.2-0.1-0.4,0.3c-0.6,0.4-1.6,4.2-1.7,4.4c-0.1,0.2,0,0.3,0,0.3c-0.2,0.1-0.9,1-0.9,1.3
		c0,0.2-0.7,0.8-0.7,0.8s-0.6,0.7-0.8,0.7c-0.2,0-0.2,0.2-0.2,0.2l0.3,0.2c0,0.2,0.4,0.4,0.4,0.4s0.6,0.1,0.2-0.1
		c-0.3-0.2-0.3-0.3-0.3-0.3s0.4-0.7,0.9-0.8c0.6-0.1,0.4-0.6,0.5-0.7c0.1-0.1,0.5-0.5,0.5-0.5c0.7-0.7,1.1-1.9,1.1-1.9
		c0.3-1.5,1.3-3.3,1.4-3.2c0.1,0,0.8-0.2,0.8-0.2c0.8-0.4,4.2-0.3,4.2-0.3c0.1,0.2,0.4,0.1,0.4,0.1s0.4,3.3,0,3.1s-0.6,0.1-0.6,0.1
		c-0.7,0.4-1,2.3-1,2.3c-0.1,1.7-0.3,2.1-0.3,2.1c-0.2,0.5-0.5,2.7-0.5,2.7c-0.3,0.4,0.2,0.7,0.2,0.7s0.2,1.1,0.3,1.5
		c0.1,0.4-0.1,0.8-0.1,0.8c0.1,1,0.1,1.4,0.1,1.4c-0.5,0.8-0.2,0.6-0.2,0.6c0.3-0.2,0.4,0,0.4,0c0.2,1.1,0,1.1,0,1.1
		c-0.1,0-0.6,1.3-0.3,0.9s0.6-0.2,0.6-0.2c0.2,1.3-0.1,1.4-0.1,1.4s-0.4,1-0.1,0.5c0.4-0.4,0.6-0.1,0.6-0.1c0.2,0.8-0.1,1.1-0.2,1.4
		c-0.2,0.3,0,0.5,0,0.5c0.3-0.7,0.7-0.5,0.7-0.5s0.1,0.8,0.1,0.9c0,0.1-0.1,0.5-0.1,0.5s-0.1,1,0.2,0.5s0.3-0.5,0.3-0.2
		c0,0.3-0.1,0.6-0.1,0.7s0.1,0.4,0,0.6s-0.1,0.1-0.1,0.2c0,0.1,0,0.2,0,0.2s-0.1,0.4-0.1,0.5c0,0.1,0,0.5,0,0.5s-0.2,0.7-0.2,0.9
		c0,0.3,0.1,0.6,0.1,0.6c-0.1,0.4,0,0.3,0,0.3l0.3-0.2c0,0,0.3,0.3,0.5,0.3c0.2,0,0.1-0.2,0-0.2c-0.1,0-0.3-0.3-0.3-0.3
		s0.2-0.3,0.1-0.8c-0.1-0.5,0.1-0.6,0.1-0.6c0.3-0.1,0.1-0.7,0.1-0.7c0.1-0.3,0.1-0.7,0.1-0.7c0.2-0.2,0.1-1.1,0.1-1.1l0.3,0.6
		c0,0-0.1-0.7,0-0.8s0-0.3,0-0.3l-0.3-0.9l0.2,0l-0.2-0.2l-0.6-1.8c0,0,0.2,0.4,0.3,0.3c0.1-0.1-0.1-0.8-0.1-0.8
		c-0.6-0.8-0.6-2-0.6-2c1,0.7,0.6,0.1,0.6,0.1s-0.6-0.5-0.9-1.4c-0.2-0.9,0-0.7,0-0.7c0.6,0.2,0.3-0.1,0.3-0.1
		c-0.9-0.7-0.7-1.8-0.8-2.5c-0.1-0.7,0.1-0.7,0.1-0.7c0.5-0.3,0.1-1,0.1-1c0.1-0.2,0.1-0.2,0.1-0.2c-0.1-0.9-0.1-1.5-0.1-1.5
		c0.3-1.1,1.3-2.5,1.3-2.5c0.4,0.4,1.3,2.9,1.2,3.7c0,0.8,0.3,1.6,0.3,1.6c0.4,0.4,1.3,1.9,1.3,1.9c0,0.7,0.6,5.9,0.9,6.7
		s0.8-0.1,0.8-0.1c-0.6-4.4-0.8-7.2-0.8-7.2l0.2-0.6c0,0-0.1,1.2,0.2,1c0.3-0.3,0.7-2.5,0.7-2.5l0-3c0.2-1.6-0.2-3.1-0.2-3.1
		c0.7,0.3,2.4,3.1,2.4,3.1c0.2,1.1,0.3,1.5,0.3,1.5c-0.1,0.7,0.1,1,0.1,1s0.2-0.2,0.3,0c0.1,0.2,0.4,2.4,0.4,2.4l-0.5,1.1l0.5-0.3
		l0.1,1.1l-0.4,1.3l0.5-0.4c0,0,0.3,1.1,0.1,1.6s-0.1,1.1-0.1,1.1l0.2-0.2l0.3,3.4c0.1,1.1,0.2,0.9,0.2,0.9l0.2-0.8c0,0,0,0,0.1,0.3
		c0.1,0.3,0.1,0.4,0.3,0.7c0.1,0.4,0.2,0.3,0.3,0.7s0.3,0.7,0.3,0.7l0.1,1.2l0,0.2l-0.4,0.4l0.3,0.1l0.4-0.4l0.3,0.3l0.1-0.2
		l-0.2-0.3c0.1-0.3-0.2-1.2-0.1-1.5c0.1-0.3-0.2-0.6-0.2-0.7c0-0.1-0.1-0.4-0.1-0.4l-0.1-0.7l-0.3-0.8l0.6,0.5l-0.5-1.2
		c0,0-0.2-0.8-0.1-0.8c0.1,0,0.7,0.4,0.7,0.4c-0.1-0.5-0.7-1.2-0.7-1.2c-0.1-0.5,0-0.8,0-0.8s0.1-0.3,0.6,0.2c0.4,0.4,0-0.3,0-0.3
		c-0.6-0.5-0.6-1-0.7-1.5c0-0.5,0.3-0.3,0.5-0.2c0.1,0.1,0.1,0,0.1,0l-0.2-0.4c-0.5-0.4-0.5-1.1-0.5-1.5c0-0.4,0.2-0.2,0.2-0.2
		l0.1,0l-0.4-0.7c0,0,0-0.9-0.3-1.5c-0.3-0.6-0.1-0.6-0.1-0.6l-0.2-1.6c0.3-0.3,0.1-0.5,0.1-0.5s-0.3-0.2-0.3-0.4s-0.3-0.8-0.3-0.8
		c-1.2-2.4-1.3-3-1.3-3c-1.2-3.1-2.2-2.5-2.2-2.5c-0.2-0.3-0.3-2.1-0.3-2.1s-0.3-0.9,0-0.9c0.3,0.1,1,0,1,0c0.9-0.8,3.3-0.6,3.3-0.6
		c0.6,0.1,1.3,0.1,1.3,0.1c0.5,0.1,2.1,2.5,2.1,2.5s1.4,0.7,1.7,0.9s0.7,0.5,0.7,0.5c0,0,0.3-0.1,0.3-0.1s0.7,0.7,0.8,1
		c0.1,0.2-0.2,0.6-0.2,0.6c0.4,0.1,0.8-0.5,0.4-1.1c-0.5-0.7-2.9-1.9-2.9-1.9c-0.5-1-0.8-1-1.9-2.3c-1.1-1.3-1.7-0.9-1.7-0.9
		c-1.8-0.7-4.5,0.4-4.5,0.4l0.2-0.2l-0.6-0.3c0-0.8-0.9-1.7-0.9-1.7c0.2-0.4,0.2-1.4,0.2-1.4c1.7-2.7,1-6.3,0.9-6.5
		c-0.1-0.1,0.1-1.1,0.1-1.1c3.4-3,9.9-7.1,11-7.5c1-0.4,0.2-0.3,0.2-0.3c-5,2.2-11.1,7.3-11.1,7.3l0.2-0.7l-0.2-1.8l-0.1-0.9
		l-0.1-1.1c0,0,0.4,0.1,0.3-0.2c-0.2-0.3-0.8-0.2-0.9-0.1c-0.1,0.1,0.1,0.4,0.1,0.4s0.3,0.9,0.2,1c-0.1,0.1-0.1,0.3-0.1,0.3
		s0.1,0.3,0.1,0.5s-0.1,0.7-0.1,0.7l-0.1,0.3c0,0.9-0.1,2.2-0.1,2.2l-2.2,2c0,0-0.1-1.6-0.4-1.9c-0.3-0.3-0.4,0-0.3,0.1
		c0.1,0.1,0.2,0.2,0.2,0.2l0.3,1.9c-0.3,0.2-0.3,0.8-0.3,0.8l-1.1,0c0,0,0-0.4-0.1-0.6c-0.1-0.1-0.8-0.7-1.3-1.1
		c0.1-0.2,0.2-0.1,0.2-0.1c0.5-0.3,0-0.3,0-0.3c-0.2,0.1-0.4,0.1-0.4,0.2c-0.2-0.2-0.4-0.3-0.4-0.3l-1.8-1.1l0,0
		c-0.1-0.7-0.7-1.3-0.7-1.3s-0.4-0.7-0.5-0.8c0-0.1-0.3-0.7-0.3-0.7s-0.4-0.2-0.5-0.9s-0.4-0.4-0.4-0.4c-0.7,0.2-0.4,0.6-0.4,0.6
		c0.2-0.4,0.3-0.2,0.3-0.2l0.6,1l0,0.2c0,0,0.1,0.3,0.2,0.4c0.1,0.2,0.1,0.3,0.1,0.3s0.2,0.6,0.2,0.8c0,0.1-0.1,0.4-0.1,0.4
		c-0.3-0.2-9-3.3-9.8-3.2C1143.1,2025.6,1143.5,2025.8,1143.5,2025.8z M1161.3,2033.1c0-0.1,0-0.1-0.1-0.2c0,0-0.2-0.8-0.4-1
		c0,0,0-0.1,0.1-0.1c0.3-0.6,1.9-2,1.9-2s0.1,0.4-0.1,0.5c-0.2,0.1,0,0.8,0,0.8c0.7,2.1-0.3,4.5-0.3,4.5s-0.2,0.5-0.2-0.1
		C1162.1,2035,1161.4,2033.4,1161.3,2033.1z M1160.8,2032.3l0.2,0.5c-0.1,0-0.1,0-0.1,0S1160.7,2032.6,1160.8,2032.3z
		 M1157.6,2033.6c0-0.4,0-0.9,0-0.9c-0.1-0.7-0.2-1.1-0.1-1.4c0.3,0.3,0.6,0.6,0.6,0.7c0.1,0.3,0.1,0.9,0.1,0.9
		c-0.3,0-0.3,0.1-0.3,0.1S1157.6,2033.9,1157.6,2033.6z M1155.2,2029.8l0.6,0.3c0.3,0,0.9,0.4,1.4,0.9c0,0.1,0,0.3,0,0.3
		c0,0.1,0.1,2.8,0.1,2.8l-0.1,0.3c0.2,0.7,0.2,1.9,0.2,1.9c-1.6-0.7-1.7-5.1-1.7-5.1l-0.2-0.1L1155.2,2029.8z"/>
</g>
</svg>
