<?xml version="1.0" encoding="utf-8"?>
<!-- Generator: Adobe Illustrator 19.0.0, SVG Export Plug-In . SVG Version: 6.00 Build 0)  -->
<svg version="1.1" id="Layer_1" xmlns="http://www.w3.org/2000/svg" xmlns:xlink="http://www.w3.org/1999/xlink" x="0px" y="0px"
	 viewBox="636 -219.9 2232.7 999.9" style="enable-background:new 636 -219.9 2232.7 999.9;" xml:space="preserve">
<style type="text/css">
	.st0{display:none;fill:url(#XMLID_2_);}
	.st1{display:none;fill:#FFFFFF;enable-background:new    ;}
	.st2{font-family:'ArialMT';}
	.st3{font-size:88.2028px;}
	.st4{letter-spacing:14;}
	.st5{display:none;}
	.st6{display:inline;fill:#FFFFFF;}
	.st7{fill:#0F343D;}
</style>
<g id="Layer_1_1_">
	
		<linearGradient id="XMLID_2_" gradientUnits="userSpaceOnUse" x1="1752.3999" y1="300.3" x2="1752.4" y2="1380.2" gradientTransform="matrix(1 0 0 -1 0 1080.2)">
		<stop  offset="0" style="stop-color:#001A27"/>
		<stop  offset="1" style="stop-color:#001A27"/>
	</linearGradient>
	<rect id="XMLID_27_" x="636" y="-300" class="st0" width="2232.7" height="1079.9"/>
	<text id="XMLID_1677_" transform="matrix(1 0 0 1 1434.5317 201.3907)" class="st1 st2 st3 st4">URURANGI</text>
	<g id="XMLID_142_" class="st5">
		<circle id="XMLID_152_" class="st6" cx="1908.6" cy="-23.5" r="5.5"/>
		<circle id="XMLID_148_" class="st6" cx="1591.9" cy="-6.2" r="3.8"/>
		<circle id="XMLID_147_" class="st6" cx="1717.1" cy="-23" r="4"/>
		<circle id="XMLID_146_" class="st6" cx="1885.1" cy="-138" r="4"/>
		<circle id="XMLID_145_" class="st6" cx="1913.9" cy="-81.1" r="2.9"/>
		<circle id="XMLID_144_" class="st6" cx="1837.6" cy="-107.3" r="3.7"/>
		<circle id="XMLID_143_" class="st6" cx="1800.9" cy="32" r="2"/>
	</g>
	<path id="XMLID_28_" class="st7" d="M636,641c0,0,188.5-62,298.5-22s162,22,162,22s214-72,292-50s168.5-8.1,207.2,24.9
		c0,0,58.8-27.3,88.8-29.1s114.6-15.8,114.6-15.8s72.6-2,82,0c9.4,2,147.4,4.2,179.4-0.9c32-5.1,184-21.1,196-19.1s168,20,182,30
		s166,34,176,36s76,12,102,12s111.6,8,131.9-2c20.3-10,20.1,4,20.1,4v149L636,779.9L636,641z"/>
	<path id="XMLID_29_" class="st7" d="M1855.4,574l1-76.9l-0.2-0.4c0,0-0.3,0.2-0.7,0c0,0-9.2,14.7-15.6,31.1c0,0-2.1,2.7,1.9-7.4
		c4-10.1,9-19.9,9-19.9s2.9-3.8,3.2-4.9c0,0-0.9-1.8-0.2-2.1c0,0-9.2-18.9-11.7-27c0,0-0.1-1.8,1.3,1.8c0,0,5.1,10.5,6.1,12.2
		c1.1,1.7,5.1,8,5.1,8.9c0,0,0.3,0.6,0.6,3.3c0,0,0.6,1,1.1,0.8s1.4-0.1,1.4-0.1s19-2.1,30.3-2.2c0,0,1.4,0.5-2,0.7
		c0,0-17.3,2-24.4,4l-0.4,1.4c0,0-0.2,0.3-0.6,0.3c-0.4,0-2.3,0.2-2.3,0.2l0.7,76.2L1855.4,574L1855.4,574z"/>
	<path id="XMLID_30_" class="st7" d="M1668.4,598v-49h2v-0.7c0,0,20.2,2,20.6,2c0.5,0,0.9-0.4,0-0.7c-0.9-0.3-17.2-2.9-17.2-2.9
		s-0.2-0.2-1.3-0.1c-1,0.1-4.1,0.2-4.1,0.2s-0.4-0.3-1-0.3c-0.6,0-1.8-3.3-1.8-3.3l-7.3-19.5c0,0-0.7-1.1-0.2,0.8
		c0.5,2,4.8,16.8,4.8,16.8s0.3,1.1,0.7,1.4c0.4,0.3,1.3,2,1.8,3.5c0,0-0.6,0.2-0.2,0.9c0,0,0.1,0.2-1.1,1.6s-15.5,18.6-15.5,18.6
		s-1,1.4,1.1-0.4c2.1-1.8,13.2-13.4,13.2-13.4l3.1-4.9l0.3,0.1l-0.9,49.4L1668.4,598L1668.4,598z"/>
	<path id="XMLID_31_" class="st7" d="M2084.4,575v-56h2.2l25.1,10c0,0,2.8,0.7,0-0.6c-2.8-1.4-20.1-10.3-20.1-10.3l-4-0.9l-0.1-0.6
		l-3.4-1.7h-0.5l-2.5-30.5c0,0-0.8-2.6-0.8,2.5s0,21.4,0,21.4s1.4,5.8,1.4,6.5c0,0-1.5-0.2-0.6,1.6l-28.1,18.7c0,0-1.7,1.6,1.7-0.2
		s21.3-11.8,21.3-11.8l5.7-5l0.5,0.2l-1.1,56.7L2084.4,575L2084.4,575z"/>
	<path id="XMLID_34_" class="st7" d="M2234.8,561l0.8-64l-0.2-0.3c0,0-0.3,0.1-0.6,0c0,0-7.7,12.2-13,25.9c0,0-1.7,2.2,1.6-6.2
		s7.5-16.6,7.5-16.6s2.4-3.2,2.6-4.1c0,0-0.7-1.5-0.1-1.8c0,0-7.6-15.7-9.7-22.5c0,0,0-1.5,1.1,1.5c0,0,4.2,8.7,5.1,10.2
		c0.9,1.4,4.3,6.6,4.3,7.4c0,0,0.2,0.5,0.5,2.8c0,0,0.5,0.8,0.9,0.6s1.2,0,1.2,0s15.9-1.7,25.3-1.8c0,0,1.1,0.4-1.6,0.6
		c0,0-14.4,1.7-20.3,3.4l-0.3,1.1c0,0-0.2,0.2-0.5,0.2s-1.9,0.2-1.9,0.2l0.6,63.4L2234.8,561L2234.8,561z"/>
	<path id="XMLID_32_" class="st7" d="M2294.4,561v-39h1.8l17.4,7.1c0,0,2,0.6,0-0.4s-13.9-7.1-13.9-7.1l-2.7-0.6v-0.6l-2.4-1.4h-0.4
		l-1.9-20.9c0,0-0.8-1.6-0.8,1.9s0,14.8,0,14.8s1.2,4,1.2,4.5c0,0-0.9-0.1-0.3,1.1l-19.4,13c0,0-1.2,1.1,1.2-0.2s14.8-8.2,14.8-8.2
		l4-3.4l0.4,0.1l-0.8,39.3L2294.4,561L2294.4,561z"/>
	<path id="XMLID_35_" class="st7" d="M1436.4,605l0.5-38.4l-0.1-0.2c0,0-0.2,0.1-0.4,0c0,0-4.6,7.4-7.8,15.6c0,0-1,1.3,1-3.7
		c2-5.1,4.5-9.9,4.5-9.9s1.4-1.9,1.6-2.4c0,0-0.4-0.9-0.1-1.1c0,0-4.6-9.4-5.8-13.5c0,0,0-0.9,0.7,0.9c0,0,2.5,5.2,3.1,6.1
		c0.6,0.9,2.6,4,2.6,4.4c0,0,0.1,0.3,0.3,1.7c0,0,0.3,0.5,0.5,0.4s0.7,0,0.7,0s9.5-1,15.2-1.1c0,0,0.7,0.3-1,0.4c0,0-8.6,1-12.2,2
		l-0.2,0.7c0,0-0.1,0.1-0.3,0.1c-0.2,0-1.2,0.1-1.2,0.1l0.4,38.1h-2V605L1436.4,605z"/>
	<path id="XMLID_33_" class="st7" d="M1376.4,598v-56h2.3l25.1,10c0,0,2.9,0.7,0-0.6c-2.9-1.4-20.1-10.3-20.1-10.3l-4-0.9l-0.1-0.6
		l-3.4-1.6h-0.5l-2.5-30.7c0,0-0.8-2.7-0.8,2.4s0,21.4,0,21.4s1.5,5.8,1.4,6.5c0,0-1.5-0.2-0.6,1.6l-28.1,18.8c0,0-1.7,1.6,1.7-0.2
		c3.4-1.9,21.3-11.8,21.3-11.8l5.7-5l0.5,0.2l-1.1,56.8L1376.4,598L1376.4,598z"/>
	<path id="XMLID_36_" class="st7" d="M1558.4,615l1-76.9l-0.2-0.4c0,0-0.3,0.2-0.7,0c0,0-9.2,14.7-15.6,31.1c0,0-2.1,2.7,1.9-7.4
		c4-10.1,9-19.9,9-19.9s2.9-3.8,3.2-4.9c0,0-0.9-1.8-0.2-2.1c0,0-9.2-18.9-11.7-27c0,0-0.1-1.8,1.3,1.8c0,0,5.1,10.5,6.1,12.2
		c1.1,1.7,5.1,8,5.1,8.9c0,0,0.3,0.6,0.6,3.3c0,0,0.6,1,1.1,0.8s1.4-0.1,1.4-0.1s19-2.1,30.3-2.2c0,0,1.4,0.5-2,0.7
		c0,0-17.3,2-24.4,4l-0.4,1.4c0,0-0.2,0.3-0.6,0.3c-0.4,0-2.3,0.2-2.3,0.2l0.7,76.2L1558.4,615L1558.4,615z"/>
	<path id="XMLID_37_" class="st7" d="M2033.4,575v-50h2v-0.1c0,0,20.4,2.1,20.9,2.1s0.9-0.4,0-0.7s-17.3-3-17.3-3s-0.2-0.2-1.3-0.1
		s-4.1,0.2-4.1,0.2s-0.4-0.3-1-0.3c-0.6,0-1.8-3.4-1.8-3.4l-7.3-19.6c0,0-0.7-1.2-0.2,0.8s4.9,16.9,4.9,16.9s0.3,1.1,0.7,1.4
		s1.3,2.1,1.9,3.5c0,0-0.6,0.2-0.2,0.9c0,0,0.1,0.2-1.1,1.6c-1.2,1.4-15.6,18.7-15.6,18.7s-1,1.4,1.1-0.4
		c2.1-1.9,13.3-13.5,13.3-13.5l3.2-4.9l0.3,0.1l-0.9,49.7L2033.4,575L2033.4,575z"/>
	<path id="XMLID_38_" class="st7" d="M1266.4,606v-56h2.2l25.1,10c0,0,2.8,0.7,0-0.6c-2.8-1.4-20.1-10.3-20.1-10.3l-4-0.9l-0.1-0.6
		l-3.4-1.7h-0.5l-2.5-30.5c0,0-0.8-2.6-0.8,2.5s0,21.4,0,21.4s1.4,5.8,1.4,6.5c0,0-1.5-0.2-0.6,1.6l-28.1,18.7c0,0-1.7,1.6,1.7-0.2
		c3.4-1.9,21.3-11.8,21.3-11.8l5.7-5l0.5,0.2l-1.1,56.7L1266.4,606L1266.4,606z"/>
</g>
</svg>
