<?xml version="1.0" encoding="utf-8"?>
<!-- Generator: Adobe Illustrator 19.0.0, SVG Export Plug-In . SVG Version: 6.00 Build 0)  -->
<svg version="1.1" id="Layer_1" xmlns="http://www.w3.org/2000/svg" xmlns:xlink="http://www.w3.org/1999/xlink" x="0px" y="0px"
	 viewBox="275 991.3 2233.4 400.6" style="enable-background:new 275 991.3 2233.4 400.6;" xml:space="preserve">
<style type="text/css">
	.st0{fill:none;}
	.st1{fill:#193435;}
	.st2{fill:#508287;}
	.st3{fill:#3D6A72;}
	.st4{fill:#315760;}
	.st5{fill:#27464F;}
	.st6{fill:url(#_Path_5_1_);}
	.st7{opacity:0.35;fill:#27464F;enable-background:new    ;}
	.st8{fill:none;stroke:#5D5D5D;stroke-miterlimit:10;}
	.st9{fill:#C5E6EA;}
	.st10{fill:#0A1719;}
	.st11{fill:#17292D;}
	.st12{fill:none;stroke:#5D5D5D;stroke-width:200;stroke-miterlimit:10;}
	.st13{fill:#0D0E12;}
	.st14{opacity:0.21;}
	.st15{fill:#1D3435;}
	.st16{fill:#152A2B;}
	.st17{fill:#1A3333;}
	.st18{fill:#1D3A3A;}
</style>
<title>Asset 5</title>
<g id="Layer_2">
	<g id="Layer_1-2">
		<rect x="272.9" y="312.4" class="st0" width="2235" height="1082"/>
		<g id="Layer_2-2">
			<g id="_Group_">
				<g id="_Group_2">
					<path class="st1" d="M2312.7,1371.3c-1.4,0.9-2.9,1.6-4.5,2c-1.6,0.5-3.2,0.8-4.8,1.1c-3.2,0.5-6.5,0.7-9.8,0.6
						c3.3-0.1,6.5-0.4,9.8-0.9c1.6-0.2,3.2-0.6,4.8-1C2309.7,1372.8,2311.3,1372.1,2312.7,1371.3z"/>
				</g>
				<g id="_Group_3">
					<path class="st1" d="M2303.8,1362.9c2.2,0.3,4.3,0.8,6.3,1.5c1,0.4,2,0.9,2.9,1.5c1,0.6,1.6,1.6,1.7,2.7c0-0.5-0.3-1-0.6-1.4
						s-0.7-0.8-1.2-1.1c-0.9-0.6-1.9-1.1-2.9-1.4C2307.9,1363.9,2305.9,1363.3,2303.8,1362.9z"/>
				</g>
				<g id="_Group_4">
					<path class="st1" d="M2288.7,1374.9c-3.1-0.2-6.2-0.6-9.1-1.4c-1.5-0.4-3-1-4.3-1.7c-0.7-0.4-1.3-0.8-1.9-1.4s-0.9-1.4-0.8-2.2
						c0.2-0.8,0.6-1.5,1.3-2c0.6-0.5,1.3-0.9,2-1.2c1.4-0.6,2.9-1.2,4.4-1.5c3-0.7,6.1-1.2,9.2-1.3c-3.1,0.2-6.1,0.7-9.1,1.4
						c-1.5,0.4-2.9,0.9-4.3,1.6c-0.7,0.3-1.3,0.7-1.9,1.2c-0.6,0.5-1,1.1-1.2,1.8c-0.1,0.7,0.2,1.5,0.7,2s1.1,1,1.8,1.4
						c1.4,0.7,2.8,1.3,4.3,1.7C2282.6,1374.1,2285.6,1374.6,2288.7,1374.9z"/>
				</g>
			</g>
			<g id="_Group_5">
				<path class="st1" d="M2279.7,1368.1c-0.1-0.2,0-0.4,0.1-0.6c0.1-0.2,0.3-0.3,0.5-0.3C2280.1,1367.6,2279.8,1367.7,2279.7,1368.1
					z"/>
			</g>
			<g id="_Group_6">
				<path class="st1" d="M2291.6,1364.9c2-0.1,4.1-0.1,6.1,0s4.1,0.4,6.1,0.8c1,0.2,2,0.5,2.9,1c0.5,0.2,0.9,0.6,1.1,1.2
					c0.1,0.6-0.4,1-0.8,1.3c-1.8,0.9-3.8,1.4-5.9,1.6c1-0.2,2-0.4,3-0.6c1-0.2,1.9-0.6,2.8-1.1c0.4-0.3,0.8-0.7,0.7-1.1
					s-0.6-0.8-1-1c-0.9-0.5-1.9-0.8-2.9-1C2299.7,1365.1,2295.6,1364.8,2291.6,1364.9z"/>
			</g>
			<g id="_Group_7">
				<path class="st1" d="M2293.7,1371.3c-0.9,0-1.9,0-2.8,0s-1.9-0.1-2.8-0.2c-1.9-0.2-3.7-0.5-5.5-1.1c0.9,0.2,1.8,0.4,2.7,0.5
					s1.8,0.3,2.8,0.3s1.9,0.2,2.8,0.2S2292.7,1371.3,2293.7,1371.3z"/>
			</g>
			<g id="_Group_8">
				<g id="_Group_9">
					<path class="st1" d="M2186.6,1382.3c1.4,0.8,2.9,1.4,4.5,1.9c1.6,0.4,3.2,0.8,4.8,1c3.2,0.5,6.5,0.8,9.8,0.9
						c-3.3,0.1-6.6-0.1-9.8-0.6c-1.6-0.3-3.2-0.6-4.8-1.1C2189.5,1383.9,2188,1383.2,2186.6,1382.3z"/>
				</g>
				<g id="_Group_10">
					<path class="st1" d="M2195.6,1373.9c-2.1,0.4-4.2,1-6.2,1.8c-1,0.4-2,0.8-2.9,1.4c-0.5,0.3-0.9,0.6-1.2,1.1
						c-0.4,0.4-0.6,0.9-0.6,1.4c0.1-1.1,0.7-2.1,1.7-2.7c0.9-0.6,1.9-1.1,2.9-1.5C2191.3,1374.7,2193.4,1374.2,2195.6,1373.9z"/>
				</g>
				<g id="_Group_11">
					<path class="st1" d="M2210.6,1385.9c3.1-0.3,6.1-0.8,9.1-1.6c1.5-0.4,2.9-1,4.3-1.7c0.7-0.4,1.3-0.8,1.8-1.4
						c0.5-0.5,0.8-1.3,0.7-2c-0.2-0.7-0.6-1.4-1.2-1.8c-0.6-0.5-1.2-0.9-1.9-1.2c-1.4-0.7-2.8-1.2-4.3-1.6c-3-0.7-6.1-1.2-9.1-1.4
						c3.1,0.1,6.2,0.6,9.2,1.3c1.5,0.4,3,0.9,4.4,1.5c0.7,0.3,1.4,0.7,2,1.2s1.1,1.2,1.3,2c0.1,0.8-0.2,1.6-0.8,2.2
						c-0.5,0.6-1.2,1-1.9,1.4c-1.4,0.7-2.8,1.3-4.3,1.7C2216.8,1385.3,2213.7,1385.8,2210.6,1385.9z"/>
				</g>
			</g>
			<g id="_Group_12">
				<path class="st1" d="M2219.7,1379.1c-0.2-0.4-0.4-0.6-0.6-0.9c0.2,0,0.4,0.2,0.5,0.3C2219.7,1378.7,2219.8,1378.9,2219.7,1379.1
					z"/>
			</g>
			<g id="_Group_13">
				<path class="st1" d="M2207.7,1375.9c-4.1-0.1-8.2,0.2-12.2,1.1c-1,0.2-2,0.5-2.9,1c-0.4,0.2-0.9,0.6-1,1
					c-0.1,0.4,0.3,0.9,0.7,1.1c0.9,0.5,1.8,0.9,2.8,1.1c1,0.3,2,0.5,3,0.6c-2.1-0.1-4.1-0.7-5.9-1.6c-0.4-0.3-0.9-0.7-0.8-1.3
					c0.2-0.5,0.6-0.9,1.1-1.2c0.9-0.5,1.9-0.8,2.9-1c2-0.4,4-0.7,6.1-0.8C2203.6,1375.9,2205.7,1375.8,2207.7,1375.9z"/>
			</g>
			<g id="_Group_14">
				<path class="st1" d="M2205.7,1382.3c0.9-0.1,1.9-0.1,2.8-0.2c0.9-0.1,1.8-0.1,2.8-0.2s1.8-0.2,2.8-0.3s1.8-0.3,2.7-0.5
					c-1.8,0.6-3.6,0.9-5.5,1.1c-0.9,0.1-1.9,0.2-2.8,0.2S2206.6,1382.4,2205.7,1382.3z"/>
			</g>
			<rect x="272.9" y="932.4" class="st0" width="2234" height="470"/>
		</g>
		<path id="_Path_" class="st2" d="M272.9,1133.4l64.4-19l65.4-13.3l33.3,6l140.7,0.3l312.4-30c0,0,39.4,2,61.5-5l8,5l14.8,2
			l26.3-4.5l9.5,3l19.5,3l119.4,16.2l127.8-18.7l31.8-1l31.7,5l11.3-6.3l16.7,1.3l12,3l21.3-3.7l17,0.7l21.3,8.7l232.9,22.3l18.8,5
			l20.8,5.5l62.9,2.5l25.3-11l11.7-1.5l11.3,5.5l618.3,16l66.9,1v189l-2235,74V1133.4z"/>
		<path id="_Path_2" class="st3" d="M272.9,1214.4l313.1-77.9l295.8-39.1c0,0,89.9-2.1,131.9-15.1c42-13,53.6-11,53.6-11l46,4
			l45.8-4.1l49.1-12.9c0,0,36.4,18,63,22s81.3,5,81.3,5l32,1l204.6,17c0,0,95.1,15,114.9,12c19.8-3,46-6,46-6l25.9,5l29.3-1l42-11
			l26.6-12l17.5,5l35.6,3.5c0,0,62-6.5,65-6.5h38l58.4-11.4l201.5,5.2c0,0,79.2-0.1,99.8-6.1s31.4-8.7,31.4-8.7s20.3,12.7,38.4,14.7
			l48.1,5.3h0.6l-1,122l-2234.2,97.6V1214.4z"/>
		<path id="_Path_3" class="st4" d="M272.9,1119.4c0,0,39,11,116.2-7.9c77.7-19,105.3-22.5,105.3-22.5s144.2-13.5,175.5-21
			c31.3-7.5,182.7,26.8,182.7,26.8s53.8,13.2,92.9,6.3c0,0,98.4-4.5,128.8-13.5s101.6,6.7,101.6,6.7s57.6,35.8,89.9,27.3l32.4-8.5
			c0,0,108.5-25.5,127.7-36c12.1-6.7,23.7-14.2,34.7-22.5c0,0,42.6-22.5,55.6-22.5s66.7,48.8,84.1,45.4c0,0,85,49.2,101.4,45.4
			l16.5-3.8l0,0l93.1,4l134.5-20.5l93-9l227.9,9c0,0,258.4-8.1,240.2-8.1h1v150l-2235,32.9V1119.4z"/>
		<path id="_Path_4" class="st5" d="M272.9,1136.4l83.8,1.5c21,0.3,41.9-2.7,62-9c33.6-10.5,83.2-27.6,94.9-40.5
			c18-20,112-34,112-34s124-32,158-56s108,54,108,54s62,49.4,126,42.7c64-6.7,216,41.3,216,41.3s103.8,7.7,156,6
			c60.5-2,150-11,150-11s194-3,236,5s198-22,198-22l150-48c0,0,12.4-5.9,33.2-18.5c9-5.5,17.5-16.1,30.8-21.5c0,0,10.9,2.9,37.8,8
			c13.8,2.6,26.4,3.3,41.3,13.5c13.5,9.2,42.1,14,57.4,21.1c21.9,10.1,44.5,18.8,67.5,26.1l115,17.3l1.4,1v195H272.9V1136.4z"/>
		
			<linearGradient id="_Path_5_1_" gradientUnits="userSpaceOnUse" x1="1491.6218" y1="2917.5801" x2="1491.6218" y2="2667.98" gradientTransform="matrix(1 0 0 1 -101.22 -1523.14)">
			<stop  offset="0" style="stop-color:#00373F"/>
			<stop  offset="0.49" style="stop-color:#5A9BA4"/>
			<stop  offset="0.84" style="stop-color:#94DBE6"/>
			<stop  offset="1" style="stop-color:#AAF4FF"/>
		</linearGradient>
		<path id="_Path_5" class="st6" d="M272.9,1173.4c143.3-10.7,64.1-12.2,322.9-6.6h156.7l728-22l614,12h413l0.5,237.6H272.9V1173.4
			L272.9,1173.4z"/>
		<path id="_Path_6" class="st7" d="M2507.9,1202.4v26l-10.6,0.6l-114.8,7.1c0,0-32.6,4.1-67.4,10.8c-15.3,2.9-43.9,4.9-57.4,8.7
			c-14.9,4.2-27.4,4.5-41.2,5.6c-26.9,2.1-37.8,3.3-37.8,3.3c-13.3-2.2-21.8-6.6-30.8-8.9c-20.9-5.2-33.2-7.6-33.2-7.6l-150-19.8
			c0,0-156-12.4-198-9.1c-34.3,2.7-170,2.4-218.6,2.2c-17.3,4.9-34.2,10-40.7,10c-13,0-55.6-9.3-55.6-9.3s-5.4-1.7-13.8-4
			c-19.7-0.6-39.8-1-57.4-1.3c-52.2-0.7-156,2.5-156,2.5s-152,19.8-216,17c-64-2.8-126,17.6-126,17.6s-74,32.2-108,22.3
			s-158-23.1-158-23.1s-94-5.8-112-14c-11.6-5.3-61.3-12.4-94.9-16.7c-20.6-2.6-41.3-3.8-62-3.7l-75,0.9v-89.6l2235,15.6
			L2507.9,1202.4L2507.9,1202.4z"/>
		<path id="_Path_7" class="st8" d="M195.7,1474"/>
		<g id="_Group_15">
			<g id="_Group_16">
				<path class="st9" d="M1862.3,1214.1l-139.4,0.8l-139.4,0.6c-46.5,0.2-93,0.7-139.4,0.4s-93-0.7-139.4-1.8v-0.4
					c46.5-1.2,93-1.4,139.4-1.8c46.4-0.4,93,0.2,139.4,0.4l139.4,0.6l139.4,0.8V1214.1z"/>
			</g>
			<g id="_Group_17">
				<path class="st9" d="M1043.3,1180.6l159.7-1.2l159.7-0.9l79.8-0.6l39.9-0.2l39.9,0.1l39.9,0.3c13.3,0.2,26.6,0.3,39.9,0.5
					c13.3,0.2,26.6,0.5,39.9,0.7c13.3,0.2,26.6,0.6,39.9,1.1v0.6c-13.3,0.5-26.6,0.7-39.9,1.1c-13.3,0.4-26.6,0.5-39.9,0.7
					c-13.3,0.2-26.6,0.4-39.9,0.5l-39.9,0.3l-39.9,0.1l-39.9-0.2l-79.8-0.6l-159.7-0.5l-159.7-1.2V1180.6z"/>
			</g>
			<g id="_Group_18">
				<path class="st9" d="M1782.7,1180.7c9.8-0.3,19.5-0.5,29.3-0.8l29.3-0.6c9.8-0.2,19.5-0.7,29.3-0.4c4.9,0.1,9.8,0.3,14.6,0.6
					c4.8,0.3,9.8,0.6,14.6,1.2v0.4c-4.9,0.6-9.8,0.9-14.6,1.2s-9.8,0.5-14.6,0.6c-9.8,0.3-19.5-0.2-29.3-0.4l-29.3-0.6
					c-9.8-0.3-19.5-0.5-29.3-0.8V1180.7z"/>
			</g>
			<g id="_Group_19">
				<path class="st9" d="M1374.7,1232l-35.3,0.4l-35.3,0.3c-11.8,0.1-23.5,0.3-35.3,0.2s-23.5-0.3-35.3-0.9v-0.2
					c11.8-0.6,23.5-0.7,35.3-0.9s23.5,0.1,35.3,0.2l35.3,0.3l35.3,0.4V1232z"/>
			</g>
			<g id="_Group_20">
				<path class="st9" d="M1540.7,1249l-14,0.4l-14,0.3c-4.7,0.1-9.3,0.3-14,0.2s-9.3-0.3-14-0.9v-0.2c4.7-0.5,9.3-0.8,14-0.9
					s9.3,0.1,14,0.2l14,0.3l14,0.4V1249z"/>
			</g>
			<g id="_Group_21">
				<path class="st9" d="M1439.7,1257.9l-28,0.3c-4.7,0-9.3,0.2-14,0.1s-9.3-0.2-14-0.5v-0.1c4.7-0.3,9.3-0.4,14-0.5
					c4.7-0.1,9.3,0,14,0.1l28,0.3V1257.9z"/>
			</g>
			<g id="_Group_22">
				<path class="st9" d="M1167.7,1205.8l22.5-0.4l22.5-0.3c7.5-0.1,15-0.3,22.5-0.2c3.8,0.1,7.5,0.1,11.3,0.3l5.6,0.2
					c1.9,0.1,3.8,0.2,5.6,0.4v0.2c-1.9,0.2-3.8,0.2-5.6,0.4l-5.6,0.2c-3.8,0.2-7.5,0.2-11.3,0.3c-7.5,0.1-15-0.1-22.5-0.2l-22.5-0.3
					l-22.5-0.4V1205.8z"/>
			</g>
		</g>
		<path id="_Path_8" class="st10" d="M2507.9,1258.4c0,0-43.8,5.7-84.8,11.5c-25.2,3.5-48.2,9.4-58.8,7.8
			c-11.3-1.6-22.5,8-34.8,14.3c-10.9,5.6-23.4,8.3-28.4,14.1c-7.3,8.6-9.7,7.7-11.2,13.7c-3.4,13.5,61.4,74.1,99,74.6
			c55.8,0.7,119,0,119,0V1258.4z"/>
		<path id="_Path_9" class="st11" d="M2507.9,1253.4c0,0-39.6,4.4-80.6,10.2c-25.2,3.5-48.2,9.4-58.8,7.8
			c-11.3-1.6-22.5,8-34.8,14.3c-10.9,5.6-23.4,8.3-28.4,14.1c-7.3,8.6-9.7,7.7-11.2,13.7c-3.4,13.5,61.2,78.5,98.8,79.9
			c55,2,115,1,115,1V1253.4z"/>
		<path id="_Path_10" class="st10" d="M524,1279.4c0,0,0.9,8.6,2.2,9.1s-4.5,7.1-6,10.3s-7.5,12-7.5,12s-4.8,7.3,3,17.3
			s-32-0.1-32-0.1l2.8-48.6H524L524,1279.4z"/>
		<path id="_Path_11" class="st11" d="M273,1245.9c0,0,220.6,0.5,247.2,30c0.9,1,1.9,1.8,2.9,2.6c1.5,1.1,2.7,4.3-3.9,13.2
			c-2,2.7-6.3,13.8-8.5,17.8c-4.8,8.5,9.6,10.3,22.3,12.1c28.5,4.2,71.7,1.9,71.7,1.9s366-15,423,6c57,21,77,29,153,34
			c45.2,3,86.7,14.8,118.2,31h-1026c1-5,16-11,0,0l0,0v-144.1L273,1245.9"/>
		<path id="_Path_12" class="st12" d="M171.7,1189.4"/>
		<path id="_Path_13" class="st13" d="M2288,1368.4c-0.1-1.8-0.1-3.6,0.1-5.3c0.1-2.6,0.2-5.3,0.2-5.3v-0.3l2.1-1.3l2.5-1.3
			c1.5-0.7,1.5-0.2,1.5-0.2l2.6,0.7c2.3,3,0.8,4.1,0.8,4.1l0.2,0.7c0,0.2,0,0.4-0.1,0.5c-0.1,0.2-1,11.1-1,11.1
			c0.4-0.1,0.9-0.1,1.3,0c-0.8-0.9,0.8-10.6,0.8-10.6c1.4-3.3,0.3-3.8,0.3-3.8l-0.6-2.6c-0.8-0.8-0.1-1.1-0.1-1.1
			c7-1.2,6.2-1.4,6.2-1.4c0-1.9,1.1-1.5,1.1-1.5c2.8,0.8,3.8,0,3.8,0c3.8,0.4,2.9-1.5,2.9-1.5c2.9-0.6,3.3-1.3,3.3-1.3l0.2-0.4
			c0.1-0.5-0.6-1.6-0.6-1.6c-0.6-0.4-1.2-0.7-1.8-0.9c0-0.2,0.1-0.4,0.1-0.6h0.3c0.7,0,1.5-0.1,2.2-0.3c2-1.1,0.9-1.3,0.9-1.3
			l-0.5-0.1l1.5-1c0.7-0.5-0.3-0.6-0.3-0.6c0.7-0.4,0.4-0.4,0.4-0.4h-0.5c0.3-0.2,0.3-0.4,0.3-0.4c-2.3-0.9-9.2,1.2-9.2,1.2
			c-2.2-0.8-4.5-1.4-6.8-1.7c-15.2-9-25-1.6-25-1.6l-1.1,0.7c-6-2.1-8.4-1.5-8.9-1.3h-0.1c-1.3,0.8-2.3,1.9-3,3.2
			c-1.6,1.3-2.6,3.1-2.8,5.1c0.2,0.7,0.5,0.3,0.5,0.3c4.8-2.3,4.3-1.9,4.3-1.9c3.8,0.3,4.6,2.1,4.6,2.1c1.9,2,4.3,3.5,6.9,4.4
			c2.6,0.7,4.9,2,6.8,3.8c0.8,0.5,1.3,1.4,1.4,2.3l0.6,0.9c0,0,0.4,2.5,0.5,5s0,5,0.1,5.1v0.3c0.2,0,0.4,0,0.6,0L2288,1368.4z"/>
		<path id="_Path_14" d="M2210.7,1382.1c0.2,0-0.5-2.3-0.5-2.3c-0.3-0.8-0.7-1.5-1.2-2.3l-0.7-1.8c0,0-0.2-1.5-0.1-1.8
			c0-0.7,0.1-1.4,0.4-2c0.8-1,1.9-1.7,3.2-2c1.6-0.2,9.5-0.2,13-5.5c0.3-1.1,1.5-1.7,2.6-1.4c0.1,0,0.3,0.1,0.4,0.2
			c0,0,2.9,2.5,3.7,2.5c0.3-1.6-0.1-3.3-1-4.7c0,0,0.1-3.2-1.8-3.9c-2.2-0.6-4.5-0.3-6.4,0.7c-0.2-0.1-0.5-0.3-0.6-0.5
			c0,0-7.2-9.4-18.9-4.4c0,0-7.6,3-8.4,3c0,0-1.2-0.5-7-0.4c0,0-0.1,0,0.1,0.2l-0.2,0.3l1.4,0.7c0,0,0.3,0.1-0.7,0.3
			c0,0-0.3,0.1-0.2,0.6c0,0-0.1,0.2-0.3,0.2s-1.2,0.5-0.4,1.1l-0.2,0.1v0.2l0.8,0.2c0,0,0.6,0.1-0.4,0.6c0,0-0.8,0.2,3.7,1.4
			c0.3,0.1,0.5,0.2,0.7,0.3l0.2,0.2l1.8,0.2c0.7,0.3,1.4,0.6,2.1,1c0.4,0.7,0.9,1.4,1.3,2c0.2,0.2,1.2,0.3,1.4,0.8
			c0.9,1.2,1.9,2.3,3,3.2c0.3,0.2,0.3,1.4,0.3,1.4l-0.2,1.2c-0.4,1.2-1,2.3-1.6,3.3c-0.4,0.3-2.6,3.6-3,3.9c0.2,0,0.4,0,0.6,0
			s0.5,0,0.7,0s0.5,0,0.7,0c0.1-0.1-0.1-0.4-0.1-0.4l0.6-1c0,0,1-0.6,1.1-1c0.3-0.4,0.5-0.9,0.7-1.4c0-0.2,1-2.9,2.1-3.7
			c0,0,1.7,0,3.8-0.3l-0.5,2.9c-0.2,0.8,0.1,1.6,0.7,2.2c0,0,0.5,1.7,0.8,2l0.4,0.7c0,0,1,3.1,1.2,3"/>
		<g id="_Group_23" class="st14">
			<path class="st15" d="M1512.6,1322.9c7.2,6.5,14.9,12.4,23,17.7c4,2.7,8.1,5.1,12.3,7.4c4.2,2.3,8.5,4.3,12.9,6
				c4.4,1.7,8.9,2.9,13.5,3.6l7.1,0.9c2.4,0.3,4.9,0.8,7.3,1.3c4.8,1,9.6,2.4,14.3,4.2c1.2,0.4,2.3,0.9,3.5,1.4s2.3,1.1,3.4,1.7
				c0.6,0.3,1.1,0.6,1.6,0.9c0.5,0.3,1.1,0.6,1.6,1c1.1,0.7,2.1,1.5,2.9,2.4l-0.4,0.4c-2.2-1-4.4-1.7-6.8-2.3
				c-2.3-0.6-4.7-1.1-7-1.6c-4.7-0.9-9.4-1.6-14.2-2.3l-7.1-1c-1.2-0.2-2.4-0.4-3.6-0.5c-1.2-0.1-2.5-0.4-3.8-0.7
				c-4.9-1.2-9.7-2.9-14.3-5c-9-4.1-17.4-9.3-25.2-15.4c-3.9-3-7.6-6.2-11.2-9.4c-3.6-3.3-7.1-6.7-10.4-10.3L1512.6,1322.9z"/>
		</g>
		<path id="_Path_15" class="st16" d="M600.2,1293.2c0,0-1-2.4-6-2.7s-6.4-0.3-7.8,0.4c0,0-0.2,0.1-0.1,0.5c0,0-4.2,0.8-4.9,1.3
			c0,0-1.3,0.2-1.7,0.2s-3.1-0.3-4,0.3c0,0-0.5,0.1,1.9,0.2c-0.7,0.1-1.3,0.2-1.9,0.5c-0.1,0.2,0,0,2.7-0.1c0,0-1.3,0.8-1.5,1.3
			c-0.3,0.5-0.6,1-1,1.5c-0.2,0-0.3,0-0.5,0c-0.1,0-0.6-1.4,0.8-1c0,0,0.1,0,0-0.1c-0.3-0.4-0.8-0.5-1.2-0.3c0,0-0.1,0-0.1,0.1
			c0,0-0.5,0.2-0.5,1.1c0,0-0.1,0.1-1-0.2c0,0-0.3,0-0.1,0.1c0.3,0.2,0.7,0.4,1.1,0.4c0.1,0.2,0.2,0.4,0.3,0.6c0,0,0.1,0.1,0,0.1
			s-1.3,0.5-2-1.3l0,0c0,0-0.3,0.5,0.3,1.4c-0.4,0.2-0.9,0.2-1.4,0.3c0,0-0.1,0-0.1,0.1c0.7,0.1,1.3,0.3,1.9,0.7
			c0.4,0,0.8,0.1,1.3,0c0.9,0,1.8,0.1,2.7,0.3c0.5,0.1,1,0.1,1.5,0c1.4-0.1,2.7,0,4.1,0.1c0.1,0.1,5.4,0.8,5.9,1.1
			c0.5,0.3,13.3,0.6,15.6-0.7c0,0,3.6-1.1,3.9-1.6s-1.8-3.7-2.4-3.7c0,0-0.6-0.4-0.6-0.5s0.3-0.3,0.3-0.3s0.5-0.3,0.6-0.4
			c0.4,0,0.9,0,1.3-0.1c0,0,0-0.1,0.2-0.1c0.5,0.2,1.1,0.4,1.7,0.5c0.9,0.4,2,0.7,3,0.8c0.2,0.1,0.4,0.2,0.6,0.2
			c0,0,0.7-0.2-0.4-0.9c-0.6-0.4-1.3-0.8-2-1.1c-0.8-0.5-1.4-1.2-2-1.9c-0.3-1.4-1.3-2.6-2.6-3.2c-1.1-0.5-2.4-0.6-3.5-0.1
			c-1.1,0.6-2,1.6-2.5,2.7c-0.2,0.3-0.3,0.6-0.4,0.9c-0.1,0.6-0.1,1.3,0,1.9"/>
		<path id="_Path_16" class="st17" d="M538.4,1264.4c-0.6,0.4-1.3,0.7-2,0.6c0,0-0.8-0.1-1-2.5c-0.2-2.4-1.9-3.5-3.1-3.4
			c-0.3,0-0.7,0-1,0.2c-0.5,0.4-0.9,0.9-1.1,1.4s-0.2,1.1,0,1.7c0,0,0.3,0.9-1,3.2c0,0-0.1,0.4,0.1,0.6c0,0,0.1,0.2,0.3-0.3
			c0.2-0.2,0.4-0.5,0.7-0.7l1.5-1.8c0.3-0.3,0.7-0.5,1.1-0.5c0.3,0.1,0.4,0.3,0.3,0.6l0,0c-0.1,0.5-0.1,0.9-0.1,0.9s-1,1.4-0.9,2.2
			s1.2,1.2,1.2,1.2l1.4,0.4c2.6,0.4,5.2,0.5,7.8,0.5c3.2-0.2,6.4-0.8,9.4-1.9c0,0,0.5-0.3,0.2-0.3s0.2-0.3,0.2-0.3s1-0.8,2.4-2.5
			c0,0-0.1,0,0-0.1c0.3-0.2,0.7-0.4,1-0.5c0,0,0.1-0.1-0.2,0c-0.3,0.1,0-0.2,0-0.2c-0.3,0.1-0.5,0.2-0.8,0.3c-0.7,0.1-1.3,0.3-2,0.5
			c-0.1,0.1-0.7-0.1-0.8-0.2c0.4-0.1,0.8-0.1,1.3-0.2c-0.5-0.3-1.1-0.4-1.7-0.3c0,0,1.5-0.2,1.7-0.1c0,0-5.9-0.7-8.3-0.1
			c0,0-2.4,0.3-2.8,0.4C541.8,1263.3,539,1263.6,538.4,1264.4z"/>
		<path id="_Path_17" class="st18" d="M732,1261.1c0,0,4.1-1,4.4-1.6c0.4-1,0.2-2.2-0.5-3c-0.7-1-1.4-2-1.9-3.1
			c0.6-1,0.4-2.4-0.5-3.2c0,0,0.1-1.6-1-1.5c-1.1,0.1-1.1,1.5-1.1,1.5c-0.8,1-0.8,2.4,0,3.4c0,0-0.7,0.3-0.7,0.6
			c0,0.3-2.7-1.6-4.5,1.5c0,0-1.5,0.8-1.5,1.6c0,0-0.6,0.4-0.5,1c0,0-0.8,0.1-0.8,0.2c0,0.1,0.3,0.5,0.3,0.5l0.3,0.2
			c0.3,0.7,0.6,1.3,1.1,1.8c1.9,0.2,3.8,0.1,5.7-0.2l0.3,0.3C731.4,1261.2,731.7,1261.2,732,1261.1z"/>
		<path id="_Path_18" class="st16" d="M716.1,1286.6c0,0,3.5,3.1,2.2,5.7c0,0-12.5,2.4-18.5,1.2c-2.2-0.3-4.3-1.4-5.7-3.1h0.5
			l0.2-1.3l0.5,1.3h0.5c0,0-0.5-2.6,1.8-1.8l0.8-0.8c0,0-2.2-1.5-3-1.1c0,0,0.2-1.1,2.7-0.8c1.1,0,2.2-0.2,3.3-0.5
			c0,0,8.3-2.8,9.5-1c0,0-0.3-3.7,3.2-4c0.8,0,1.5,0.3,2,0.9c0.5,0.9,0.8,1.9,1.1,2.8c0.7,0.6,1.4,1.3,2,2.1
			c0.1,0.3-2.7-0.8-2.7-0.8s-1,0.4-1,0.6C715.5,1286.2,714.9,1286.2,716.1,1286.6z"/>
		<rect x="272.9" y="312.4" class="st0" width="2235" height="1078"/>
	</g>
</g>
</svg>
