<?xml version="1.0" encoding="utf-8"?>
<!-- Generator: Adobe Illustrator 19.0.0, SVG Export Plug-In . SVG Version: 6.00 Build 0)  -->
<svg version="1.1" id="Layer_1" xmlns="http://www.w3.org/2000/svg" xmlns:xlink="http://www.w3.org/1999/xlink" x="0px" y="0px"
	 viewBox="0 0 960 560" style="enable-background:new 0 0 960 560;" xml:space="preserve">
<style type="text/css">
	.st0{fill:#FFFFFF; }
</style>
<g id="XMLID_1_">
	<path id="XMLID_10_" stroke="000000" stroke-width="4" class="st0 path" d="M95,281c0,0,232-26,403,0s377-11.6,377-11.6"/>
	<path class="path" stroke="000000" stroke-width="4" id="XMLID_9_" d="M95,281c0,0,3-0.4,8.7-1.2c5.7-0.7,14-1.9,24.7-3.1c5.3-0.6,11.2-1.3,17.6-2c6.4-0.7,13.4-1.4,20.8-2.1
		c3.7-0.3,7.5-0.7,11.5-1.1c3.9-0.3,8-0.7,12.2-1c4.2-0.3,8.5-0.7,12.8-1c4.4-0.3,8.9-0.6,13.5-0.9c4.6-0.3,9.3-0.6,14-0.9
		c4.8-0.3,9.6-0.5,14.6-0.8c4.9-0.2,10-0.5,15.1-0.8c5.1-0.2,10.3-0.4,15.6-0.6c5.3-0.2,10.6-0.4,16-0.5c5.4-0.2,10.9-0.2,16.4-0.3
		c5.5-0.1,11.1-0.2,16.8-0.2c2.8-0.1,5.7,0,8.5,0c2.8,0,5.7,0,8.6,0.1c5.7,0,11.5,0.1,17.4,0.1c2.9,0,5.9,0.1,8.8,0.2
		c2.9,0.1,5.9,0.2,8.8,0.3c5.9,0.2,11.9,0.4,17.9,0.5c3,0,6,0.3,9,0.5c3,0.2,6,0.4,9,0.6c6,0.4,12.1,0.7,18.2,1.1
		c6.1,0.5,12.2,1.1,18.3,1.6c3,0.3,6.1,0.6,9.2,0.8l4.6,0.4c1.5,0.1,3.1,0.3,4.6,0.5c6.1,0.8,12.2,1.6,18.3,2.3l9.2,1.2l4.5,0.6
		l4.5,0.6c3,0.4,6,0.9,9.1,1.3c3,0.4,6,0.7,9,1.1c3,0.4,6,0.7,9,1c3,0.3,6,0.6,9,0.9c6,0.6,12,1.1,17.9,1.6c6,0.5,11.9,0.8,17.8,1.2
		c3,0.2,5.9,0.4,8.9,0.5c2.9,0.1,5.9,0.3,8.8,0.4c5.9,0.3,11.7,0.4,17.5,0.6c5.8,0.1,11.5,0.2,17.2,0.3c22.8,0.2,44.9,0,65.8-0.7
		c5.2-0.2,10.4-0.4,15.5-0.6c5.1-0.2,10.1-0.5,15-0.7c9.9-0.5,19.4-1,28.5-1.6c9.1-0.6,17.9-1.3,26.2-1.9c8.3-0.6,16.2-1.3,23.6-2
		c14.8-1.4,27.7-2.7,38.4-3.9c10.6-1.2,19-2.2,24.7-2.9c5.7-0.7,8.7-1.1,8.7-1.1s-3,0.7-8.6,1.8c-5.6,1.1-13.9,2.8-24.4,4.6
		c-10.6,1.8-23.4,4-38.2,6.1c-7.4,1.1-15.3,2.1-23.6,3.2c-8.3,1.1-17.1,2-26.2,3c-9.1,1-18.7,1.9-28.5,2.8
		c-9.9,0.9-20.1,1.6-30.6,2.2c-21,1.3-43.3,2.2-66.3,2.3c-5.8,0-11.6,0-17.4,0c-5.8-0.1-11.7-0.1-17.7-0.3c-3-0.1-5.9-0.2-8.9-0.3
		c-3-0.1-6-0.2-9-0.4c-6-0.3-12-0.6-18.1-1.1c-6-0.4-12.1-0.8-18.2-1.4c-3-0.3-6.1-0.6-9.1-0.8c-3.1-0.3-6.1-0.7-9.2-1
		c-3.1-0.4-6.1-0.7-9.2-1.1c-3-0.4-6-0.8-9.1-1.3l-9.1-1.2l-9-1.2c-6-0.8-12-1.6-18-2.4c-1.5-0.2-3-0.4-4.5-0.5l-4.5-0.4
		c-3-0.3-6-0.6-9-0.9c-6-0.6-12-1.2-18-1.7c-6-0.4-12-0.8-18-1.2c-6-0.4-11.9-0.8-17.9-1.1c-5.9-0.3-11.8-0.6-17.7-0.8
		c-2.9-0.1-5.9-0.3-8.8-0.4c-2.9-0.1-5.8-0.3-8.7-0.3c-5.8-0.1-11.6-0.3-17.3-0.4c-2.9-0.1-5.7-0.1-8.5-0.2
		c-2.8-0.1-5.7-0.1-8.5-0.1c-5.6-0.1-11.2-0.1-16.7-0.2c-5.5,0-10.9-0.2-16.3-0.1c-5.4,0-10.7,0.1-15.9,0.1c-5.2,0-10.4,0-15.5,0.1
		c-5.1,0.1-10.1,0.2-15,0.3c-4.9,0.1-9.8,0.2-14.5,0.2c-4.8,0.1-9.4,0.3-14,0.4c-4.6,0.1-9.1,0.2-13.4,0.4
		c-4.4,0.2-8.7,0.3-12.8,0.5c-4.2,0.1-8.2,0.3-12.2,0.4c-4,0.2-7.8,0.3-11.5,0.5c-7.4,0.3-14.4,0.6-20.8,1
		c-6.4,0.3-12.4,0.6-17.7,0.9c-10.7,0.6-19.1,1.1-24.8,1.4C98.1,280.8,95,281,95,281z"/>
</g>
</svg>
