<?xml version="1.0" encoding="utf-8"?>
<!-- Generator: Adobe Illustrator 19.0.0, SVG Export Plug-In . SVG Version: 6.00 Build 0)  -->
<svg version="1.1" id="Layer_1" xmlns="http://www.w3.org/2000/svg" xmlns:xlink="http://www.w3.org/1999/xlink" x="0px" y="0px"
	 viewBox="636 -219.9 2232.7 999.9" style="enable-background:new 636 -219.9 2232.7 999.9;" xml:space="preserve">
<path class="st0" d="M2676,268.1c0,0-84,22-136,0s-118,9.8-118,9.8" fill="none" stroke="#fff" stroke-width="4"/>
<path class="st0" d="M2131.4,382c0,0-84,22-136,0s-118,9.8-118,9.8" fill="none" stroke="#fff"/>
<path class="st0" d="M2117.9,56.4c0,0-84,22-136,0s-118,9.8-118,9.8" fill="none" stroke="#fff"/>
<path class="st0" d="M1488.6,188c0,0-84,22-136,0s-118,9.8-118,9.8" fill="none" stroke="#fff"/>
<path class="st0" d="M1051.1,373.2c0,0-84,22-136,0s-118,9.8-118,9.8" fill="none" stroke="#fff"/>
<path class="st0" d="M1471.7-76.9c0,0-84,22-136,0s-118,9.8-118,9.8" fill="none" stroke="#fff"/>
<path class="st0" d="M2751-155.7c0,0-84,22-136,0s-118,9.8-118,9.8" fill="none" stroke="#fff"/>
<path class="st0" d="M834.8,47.6c0,0-84,22-136,0s-118,9.8-118,9.8" fill="none" stroke="#fff"/>
<path class="st0" d="M2676,442.3c0,0-84,22-136,0s-118,9.8-118,9.8" fill="none" stroke="#fff"/>
</svg>
